<?xml version="1.0" encoding="UTF-8" standalone="no"?>
<!DOCTYPE svg PUBLIC "-//W3C//DTD SVG 1.1//EN"
 "http://www.w3.org/Graphics/SVG/1.1/DTD/svg11.dtd">
<!-- Generated by graphviz version 2.38.0 (20140413.2041)
 -->
<!-- Title: %3 Pages: 1 -->
<svg width="1018pt" height="116pt"
 viewBox="0.00 0.00 1018.09 116.00" xmlns="http://www.w3.org/2000/svg" xmlns:xlink="http://www.w3.org/1999/xlink">
<g id="graph0" class="graph" transform="scale(1 1) rotate(0) translate(4 112)">
<title>%3</title>
<polygon fill="white" stroke="none" points="-4,4 -4,-112 1014.09,-112 1014.09,4 -4,4"/>
<!-- app -->
<g id="node1" class="node"><title>app</title>
<ellipse fill="none" stroke="black" cx="557.845" cy="-90" rx="27" ry="18"/>
<text text-anchor="middle" x="557.845" y="-86.3" font-family="Times New Roman,serif" font-size="14.00">app</text>
</g>
<!-- std.algorithm -->
<g id="node2" class="node"><title>std.algorithm</title>
<ellipse fill="none" stroke="black" cx="57.8449" cy="-18" rx="57.6901" ry="18"/>
<text text-anchor="middle" x="57.8449" y="-14.3" font-family="Times New Roman,serif" font-size="14.00">std.algorithm</text>
</g>
<!-- app&#45;&gt;std.algorithm -->
<g id="edge1" class="edge"><title>app&#45;&gt;std.algorithm</title>
<path fill="none" stroke="black" d="M530.807,-86.8897C462.403,-81.2918 277.075,-64.5107 124.845,-36 119.885,-35.0711 114.747,-33.9888 109.624,-32.8284"/>
<polygon fill="black" stroke="black" points="110.375,-29.4096 99.8383,-30.5207 108.768,-36.2227 110.375,-29.4096"/>
</g>
<!-- std.array -->
<g id="node3" class="node"><title>std.array</title>
<ellipse fill="none" stroke="black" cx="175.845" cy="-18" rx="42.4939" ry="18"/>
<text text-anchor="middle" x="175.845" y="-14.3" font-family="Times New Roman,serif" font-size="14.00">std.array</text>
</g>
<!-- app&#45;&gt;std.array -->
<g id="edge2" class="edge"><title>app&#45;&gt;std.array</title>
<path fill="none" stroke="black" d="M531.043,-86.1396C474.474,-79.7876 338.944,-62.9064 227.845,-36 224.265,-35.133 220.576,-34.1385 216.894,-33.0752"/>
<polygon fill="black" stroke="black" points="217.827,-29.7006 207.241,-30.1395 215.79,-36.3977 217.827,-29.7006"/>
</g>
<!-- std.ascii -->
<g id="node4" class="node"><title>std.ascii</title>
<ellipse fill="none" stroke="black" cx="276.845" cy="-18" rx="40.0939" ry="18"/>
<text text-anchor="middle" x="276.845" y="-14.3" font-family="Times New Roman,serif" font-size="14.00">std.ascii</text>
</g>
<!-- app&#45;&gt;std.ascii -->
<g id="edge3" class="edge"><title>app&#45;&gt;std.ascii</title>
<path fill="none" stroke="black" d="M532.335,-84.0363C489.527,-75.5089 400.665,-56.9587 326.845,-36 323.67,-35.0985 320.399,-34.1144 317.122,-33.0887"/>
<polygon fill="black" stroke="black" points="317.954,-29.6794 307.363,-29.928 315.798,-36.3389 317.954,-29.6794"/>
</g>
<!-- std.container.rbtree -->
<g id="node5" class="node"><title>std.container.rbtree</title>
<ellipse fill="none" stroke="black" cx="416.845" cy="-18" rx="81.4863" ry="18"/>
<text text-anchor="middle" x="416.845" y="-14.3" font-family="Times New Roman,serif" font-size="14.00">std.container.rbtree</text>
</g>
<!-- app&#45;&gt;std.container.rbtree -->
<g id="edge4" class="edge"><title>app&#45;&gt;std.container.rbtree</title>
<path fill="none" stroke="black" d="M536.736,-78.5203C515.867,-68.1599 483.395,-52.0391 457.506,-39.1864"/>
<polygon fill="black" stroke="black" points="458.813,-35.9276 448.3,-34.6158 455.7,-42.1975 458.813,-35.9276"/>
</g>
<!-- std.conv -->
<g id="node6" class="node"><title>std.conv</title>
<ellipse fill="none" stroke="black" cx="557.845" cy="-18" rx="42.4939" ry="18"/>
<text text-anchor="middle" x="557.845" y="-14.3" font-family="Times New Roman,serif" font-size="14.00">std.conv</text>
</g>
<!-- app&#45;&gt;std.conv -->
<g id="edge5" class="edge"><title>app&#45;&gt;std.conv</title>
<path fill="none" stroke="black" d="M557.845,-71.6966C557.845,-63.9827 557.845,-54.7125 557.845,-46.1124"/>
<polygon fill="black" stroke="black" points="561.345,-46.1043 557.845,-36.1043 554.345,-46.1044 561.345,-46.1043"/>
</g>
<!-- std.file -->
<g id="node7" class="node"><title>std.file</title>
<ellipse fill="none" stroke="black" cx="652.845" cy="-18" rx="35.194" ry="18"/>
<text text-anchor="middle" x="652.845" y="-14.3" font-family="Times New Roman,serif" font-size="14.00">std.file</text>
</g>
<!-- app&#45;&gt;std.file -->
<g id="edge6" class="edge"><title>app&#45;&gt;std.file</title>
<path fill="none" stroke="black" d="M575.269,-76.1609C589.319,-65.8088 609.331,-51.0627 625.511,-39.141"/>
<polygon fill="black" stroke="black" points="627.596,-41.9522 633.57,-33.2024 623.443,-36.3168 627.596,-41.9522"/>
</g>
<!-- std.getopt -->
<g id="node8" class="node"><title>std.getopt</title>
<ellipse fill="none" stroke="black" cx="753.845" cy="-18" rx="47.3916" ry="18"/>
<text text-anchor="middle" x="753.845" y="-14.3" font-family="Times New Roman,serif" font-size="14.00">std.getopt</text>
</g>
<!-- app&#45;&gt;std.getopt -->
<g id="edge7" class="edge"><title>app&#45;&gt;std.getopt</title>
<path fill="none" stroke="black" d="M581.098,-80.6952C613.043,-69.2864 671.075,-48.5607 710.999,-34.3022"/>
<polygon fill="black" stroke="black" points="712.24,-37.5756 720.48,-30.9161 709.885,-30.9834 712.24,-37.5756"/>
</g>
<!-- std.range -->
<g id="node9" class="node"><title>std.range</title>
<ellipse fill="none" stroke="black" cx="863.845" cy="-18" rx="44.393" ry="18"/>
<text text-anchor="middle" x="863.845" y="-14.3" font-family="Times New Roman,serif" font-size="14.00">std.range</text>
</g>
<!-- app&#45;&gt;std.range -->
<g id="edge8" class="edge"><title>app&#45;&gt;std.range</title>
<path fill="none" stroke="black" d="M583.797,-84.4083C629.704,-76.0936 728.105,-57.4074 809.845,-36 813.431,-35.0608 817.133,-34.0293 820.838,-32.953"/>
<polygon fill="black" stroke="black" points="822.005,-36.2573 830.578,-30.0326 819.994,-29.5523 822.005,-36.2573"/>
</g>
<!-- std.stdio -->
<g id="node10" class="node"><title>std.stdio</title>
<ellipse fill="none" stroke="black" cx="967.845" cy="-18" rx="42.4939" ry="18"/>
<text text-anchor="middle" x="967.845" y="-14.3" font-family="Times New Roman,serif" font-size="14.00">std.stdio</text>
</g>
<!-- app&#45;&gt;std.stdio -->
<g id="edge9" class="edge"><title>app&#45;&gt;std.stdio</title>
<path fill="none" stroke="black" d="M584.721,-86.6563C644.857,-81.06 794.586,-65.1633 916.845,-36 920.215,-35.196 923.681,-34.2677 927.143,-33.2681"/>
<polygon fill="black" stroke="black" points="928.273,-36.5824 936.808,-30.3058 926.222,-29.8897 928.273,-36.5824"/>
</g>
</g>
</svg>
