<?xml version="1.0" encoding="UTF-8" standalone="no"?>
<!DOCTYPE svg PUBLIC "-//W3C//DTD SVG 1.1//EN"
 "http://www.w3.org/Graphics/SVG/1.1/DTD/svg11.dtd">
<!-- Generated by graphviz version 2.38.0 (20140413.2041)
 -->
<!-- Title: %3 Pages: 1 -->
<svg width="1546pt" height="116pt"
 viewBox="0.00 0.00 1546.09 116.00" xmlns="http://www.w3.org/2000/svg" xmlns:xlink="http://www.w3.org/1999/xlink">
<g id="graph0" class="graph" transform="scale(1 1) rotate(0) translate(4 112)">
<title>%3</title>
<polygon fill="white" stroke="none" points="-4,4 -4,-112 1542.09,-112 1542.09,4 -4,4"/>
<!-- app -->
<g id="node1" class="node"><title>app</title>
<ellipse fill="none" stroke="black" cx="753.845" cy="-90" rx="27" ry="18"/>
<text text-anchor="middle" x="753.845" y="-86.3" font-family="Times New Roman,serif" font-size="14.00">app</text>
</g>
<!-- std.algorithm -->
<g id="node2" class="node"><title>std.algorithm</title>
<ellipse fill="none" stroke="black" cx="57.8449" cy="-18" rx="57.6901" ry="18"/>
<text text-anchor="middle" x="57.8449" y="-14.3" font-family="Times New Roman,serif" font-size="14.00">std.algorithm</text>
</g>
<!-- app&#45;&gt;std.algorithm -->
<g id="edge1" class="edge"><title>app&#45;&gt;std.algorithm</title>
<path fill="none" stroke="black" d="M726.672,-88.3047C638.948,-85.7208 355.589,-74.7245 124.845,-36 119.796,-35.1528 114.57,-34.1159 109.366,-32.9761"/>
<polygon fill="black" stroke="black" points="109.967,-29.5229 99.436,-30.6801 108.39,-36.343 109.967,-29.5229"/>
</g>
<!-- std.array -->
<g id="node3" class="node"><title>std.array</title>
<ellipse fill="none" stroke="black" cx="175.845" cy="-18" rx="42.4939" ry="18"/>
<text text-anchor="middle" x="175.845" y="-14.3" font-family="Times New Roman,serif" font-size="14.00">std.array</text>
</g>
<!-- app&#45;&gt;std.array -->
<g id="edge2" class="edge"><title>app&#45;&gt;std.array</title>
<path fill="none" stroke="black" d="M726.707,-88.3232C648.458,-85.933 415.976,-75.7439 227.845,-36 224.192,-35.2282 220.434,-34.2926 216.691,-33.2616"/>
<polygon fill="black" stroke="black" points="217.477,-29.8443 206.895,-30.357 215.487,-36.5555 217.477,-29.8443"/>
</g>
<!-- std.ascii -->
<g id="node4" class="node"><title>std.ascii</title>
<ellipse fill="none" stroke="black" cx="276.845" cy="-18" rx="40.0939" ry="18"/>
<text text-anchor="middle" x="276.845" y="-14.3" font-family="Times New Roman,serif" font-size="14.00">std.ascii</text>
</g>
<!-- app&#45;&gt;std.ascii -->
<g id="edge3" class="edge"><title>app&#45;&gt;std.ascii</title>
<path fill="none" stroke="black" d="M727.032,-87.5773C659.23,-83.5704 475.737,-70.1739 326.845,-36 323.435,-35.2174 319.931,-34.2904 316.437,-33.2795"/>
<polygon fill="black" stroke="black" points="317.288,-29.879 306.7,-30.2584 315.213,-36.5646 317.288,-29.879"/>
</g>
<!-- std.container.rbtree -->
<g id="node5" class="node"><title>std.container.rbtree</title>
<ellipse fill="none" stroke="black" cx="416.845" cy="-18" rx="81.4863" ry="18"/>
<text text-anchor="middle" x="416.845" y="-14.3" font-family="Times New Roman,serif" font-size="14.00">std.container.rbtree</text>
</g>
<!-- app&#45;&gt;std.container.rbtree -->
<g id="edge4" class="edge"><title>app&#45;&gt;std.container.rbtree</title>
<path fill="none" stroke="black" d="M728.515,-83.7386C677.095,-73.0579 558.988,-48.5252 483.833,-32.9144"/>
<polygon fill="black" stroke="black" points="484.482,-29.4747 473.98,-30.8677 483.059,-36.3284 484.482,-29.4747"/>
</g>
<!-- std.conv -->
<g id="node6" class="node"><title>std.conv</title>
<ellipse fill="none" stroke="black" cx="557.845" cy="-18" rx="42.4939" ry="18"/>
<text text-anchor="middle" x="557.845" y="-14.3" font-family="Times New Roman,serif" font-size="14.00">std.conv</text>
</g>
<!-- app&#45;&gt;std.conv -->
<g id="edge5" class="edge"><title>app&#45;&gt;std.conv</title>
<path fill="none" stroke="black" d="M730.591,-80.6952C698.085,-69.0857 638.565,-47.8285 598.601,-33.5557"/>
<polygon fill="black" stroke="black" points="599.735,-30.2443 589.14,-30.177 597.381,-36.8365 599.735,-30.2443"/>
</g>
<!-- std.file -->
<g id="node7" class="node"><title>std.file</title>
<ellipse fill="none" stroke="black" cx="652.845" cy="-18" rx="35.194" ry="18"/>
<text text-anchor="middle" x="652.845" y="-14.3" font-family="Times New Roman,serif" font-size="14.00">std.file</text>
</g>
<!-- app&#45;&gt;std.file -->
<g id="edge6" class="edge"><title>app&#45;&gt;std.file</title>
<path fill="none" stroke="black" d="M735.788,-76.4854C720.713,-66.0372 698.948,-50.953 681.497,-38.8577"/>
<polygon fill="black" stroke="black" points="683.035,-35.6651 672.822,-32.8454 679.047,-41.4185 683.035,-35.6651"/>
</g>
<!-- std.getopt -->
<g id="node8" class="node"><title>std.getopt</title>
<ellipse fill="none" stroke="black" cx="753.845" cy="-18" rx="47.3916" ry="18"/>
<text text-anchor="middle" x="753.845" y="-14.3" font-family="Times New Roman,serif" font-size="14.00">std.getopt</text>
</g>
<!-- app&#45;&gt;std.getopt -->
<g id="edge7" class="edge"><title>app&#45;&gt;std.getopt</title>
<path fill="none" stroke="black" d="M753.845,-71.6966C753.845,-63.9827 753.845,-54.7125 753.845,-46.1124"/>
<polygon fill="black" stroke="black" points="757.345,-46.1043 753.845,-36.1043 750.345,-46.1044 757.345,-46.1043"/>
</g>
<!-- std.range -->
<g id="node9" class="node"><title>std.range</title>
<ellipse fill="none" stroke="black" cx="863.845" cy="-18" rx="44.393" ry="18"/>
<text text-anchor="middle" x="863.845" y="-14.3" font-family="Times New Roman,serif" font-size="14.00">std.range</text>
</g>
<!-- app&#45;&gt;std.range -->
<g id="edge8" class="edge"><title>app&#45;&gt;std.range</title>
<path fill="none" stroke="black" d="M773.005,-76.8069C789.446,-66.3446 813.454,-51.0666 832.661,-38.8445"/>
<polygon fill="black" stroke="black" points="834.545,-41.7938 841.103,-33.4722 830.787,-35.8882 834.545,-41.7938"/>
</g>
<!-- std.stdio -->
<g id="node10" class="node"><title>std.stdio</title>
<ellipse fill="none" stroke="black" cx="967.845" cy="-18" rx="42.4939" ry="18"/>
<text text-anchor="middle" x="967.845" y="-14.3" font-family="Times New Roman,serif" font-size="14.00">std.stdio</text>
</g>
<!-- app&#45;&gt;std.stdio -->
<g id="edge9" class="edge"><title>app&#45;&gt;std.stdio</title>
<path fill="none" stroke="black" d="M777.618,-81.3308C809.374,-71.0723 867.382,-52.2851 916.845,-36 919.903,-34.993 923.064,-33.9488 926.243,-32.8955"/>
<polygon fill="black" stroke="black" points="927.367,-36.2102 935.754,-29.737 925.161,-29.5669 927.367,-36.2102"/>
</g>
<!-- std.format -->
<g id="node11" class="node"><title>std.format</title>
<ellipse fill="#e6ffed" stroke="#bef5cb" cx="1075.84" cy="-18" rx="48.1917" ry="18"/>
<text text-anchor="middle" x="1075.84" y="-14.3" font-family="Times New Roman,serif" font-size="14.00">std.format</text>
</g>
<!-- app&#45;&gt;std.format -->
<g id="edge10" class="edge"><title>app&#45;&gt;std.format</title>
<path fill="none" stroke="#2cbe4e" d="M779.977,-84.6009C827.716,-76.3811 932.105,-57.5598 1018.84,-36 1022.63,-35.0601 1026.53,-34.0278 1030.44,-32.951"/>
<polygon fill="#2cbe4e" stroke="#2cbe4e" points="1031.44,-36.3062 1040.1,-30.2094 1029.53,-29.572 1031.44,-36.3062"/>
</g>
<!-- std.range.primitives -->
<g id="node12" class="node"><title>std.range.primitives</title>
<ellipse fill="#e6ffed" stroke="#bef5cb" cx="1222.84" cy="-18" rx="81.4863" ry="18"/>
<text text-anchor="middle" x="1222.84" y="-14.3" font-family="Times New Roman,serif" font-size="14.00">std.range.primitives</text>
</g>
<!-- app&#45;&gt;std.range.primitives -->
<g id="edge11" class="edge"><title>app&#45;&gt;std.range.primitives</title>
<path fill="none" stroke="#2cbe4e" d="M780.101,-85.7671C841.791,-78.0754 1000.74,-57.7006 1132.84,-36 1139.59,-34.8917 1146.61,-33.676 1153.62,-32.4204"/>
<polygon fill="#2cbe4e" stroke="#2cbe4e" points="1154.64,-35.7926 1163.85,-30.56 1153.39,-28.9055 1154.64,-35.7926"/>
</g>
<!-- std.string -->
<g id="node13" class="node"><title>std.string</title>
<ellipse fill="#e6ffed" stroke="#bef5cb" cx="1365.84" cy="-18" rx="44.393" ry="18"/>
<text text-anchor="middle" x="1365.84" y="-14.3" font-family="Times New Roman,serif" font-size="14.00">std.string</text>
</g>
<!-- app&#45;&gt;std.string -->
<g id="edge12" class="edge"><title>app&#45;&gt;std.string</title>
<path fill="none" stroke="#2cbe4e" d="M780.913,-88.4967C862.26,-86.5454 1111.36,-77.36 1312.84,-36 1316.52,-35.2465 1320.29,-34.3311 1324.05,-33.3202"/>
<polygon fill="#2cbe4e" stroke="#2cbe4e" points="1325.28,-36.61 1333.91,-30.4669 1323.33,-29.8862 1325.28,-36.61"/>
</g>
<!-- std.sumtype -->
<g id="node14" class="node"><title>std.sumtype</title>
<ellipse fill="#e6ffed" stroke="#bef5cb" cx="1482.84" cy="-18" rx="55.4913" ry="18"/>
<text text-anchor="middle" x="1482.84" y="-14.3" font-family="Times New Roman,serif" font-size="14.00">std.sumtype</text>
</g>
<!-- app&#45;&gt;std.sumtype -->
<g id="edge13" class="edge"><title>app&#45;&gt;std.sumtype</title>
<path fill="none" stroke="#2cbe4e" d="M780.983,-88.5848C871.882,-86.8234 1173.69,-77.9758 1418.84,-36 1423.62,-35.1821 1428.56,-34.1725 1433.48,-33.0567"/>
<polygon fill="#2cbe4e" stroke="#2cbe4e" points="1434.59,-36.3902 1443.49,-30.6442 1432.95,-29.5851 1434.59,-36.3902"/>
</g>
</g>
</svg>
