<?xml version="1.0" encoding="UTF-8" standalone="no"?>
<!DOCTYPE svg PUBLIC "-//W3C//DTD SVG 1.1//EN"
 "http://www.w3.org/Graphics/SVG/1.1/DTD/svg11.dtd">
<!-- Generated by graphviz version 2.38.0 (20140413.2041)
 -->
<!-- Title: %3 Pages: 1 -->
<svg width="4977pt" height="116pt"
 viewBox="0.00 0.00 4977.29 116.00" xmlns="http://www.w3.org/2000/svg" xmlns:xlink="http://www.w3.org/1999/xlink">
<g id="graph0" class="graph" transform="scale(1 1) rotate(0) translate(4 112)">
<title>%3</title>
<polygon fill="white" stroke="none" points="-4,4 -4,-112 4973.29,-112 4973.29,4 -4,4"/>
<!-- app -->
<g id="node1" class="node"><title>app</title>
<ellipse fill="none" stroke="black" cx="2292.84" cy="-90" rx="27" ry="18"/>
<text text-anchor="middle" x="2292.84" y="-86.3" font-family="Times New Roman,serif" font-size="14.00">app</text>
</g>
<!-- std.algorithm -->
<g id="node2" class="node"><title>std.algorithm</title>
<ellipse fill="none" stroke="black" cx="57.8449" cy="-18" rx="57.6901" ry="18"/>
<text text-anchor="middle" x="57.8449" y="-14.3" font-family="Times New Roman,serif" font-size="14.00">std.algorithm</text>
</g>
<!-- app&#45;&gt;std.algorithm -->
<g id="edge1" class="edge"><title>app&#45;&gt;std.algorithm</title>
<path fill="none" stroke="black" d="M2265.75,-89.1725C2047.02,-90.4408 566.618,-96.6634 124.845,-36 119.495,-35.2653 113.955,-34.2637 108.459,-33.1116"/>
<polygon fill="black" stroke="black" points="109.185,-29.6877 98.6602,-30.9005 107.644,-36.516 109.185,-29.6877"/>
</g>
<!-- std.array -->
<g id="node3" class="node"><title>std.array</title>
<ellipse fill="none" stroke="black" cx="175.845" cy="-18" rx="42.4939" ry="18"/>
<text text-anchor="middle" x="175.845" y="-14.3" font-family="Times New Roman,serif" font-size="14.00">std.array</text>
</g>
<!-- app&#45;&gt;std.array -->
<g id="edge2" class="edge"><title>app&#45;&gt;std.array</title>
<path fill="none" stroke="black" d="M2265.7,-88.7798C2037.18,-86.8635 437.79,-72.2147 227.845,-36 223.955,-35.329 219.957,-34.4277 215.989,-33.3887"/>
<polygon fill="black" stroke="black" points="216.846,-29.9929 206.267,-30.5749 214.899,-36.717 216.846,-29.9929"/>
</g>
<!-- std.ascii -->
<g id="node4" class="node"><title>std.ascii</title>
<ellipse fill="none" stroke="black" cx="276.845" cy="-18" rx="40.0939" ry="18"/>
<text text-anchor="middle" x="276.845" y="-14.3" font-family="Times New Roman,serif" font-size="14.00">std.ascii</text>
</g>
<!-- app&#45;&gt;std.ascii -->
<g id="edge3" class="edge"><title>app&#45;&gt;std.ascii</title>
<path fill="none" stroke="black" d="M2265.61,-88.7605C2043,-86.7384 526.082,-71.7089 326.845,-36 323.201,-35.3469 319.463,-34.477 315.751,-33.4749"/>
<polygon fill="black" stroke="black" points="316.652,-30.0913 306.068,-30.5715 314.642,-36.7963 316.652,-30.0913"/>
</g>
<!-- std.container.rbtree -->
<g id="node5" class="node"><title>std.container.rbtree</title>
<ellipse fill="none" stroke="black" cx="416.845" cy="-18" rx="81.4863" ry="18"/>
<text text-anchor="middle" x="416.845" y="-14.3" font-family="Times New Roman,serif" font-size="14.00">std.container.rbtree</text>
</g>
<!-- app&#45;&gt;std.container.rbtree -->
<g id="edge4" class="edge"><title>app&#45;&gt;std.container.rbtree</title>
<path fill="none" stroke="black" d="M2265.77,-88.7804C2070.02,-87.1052 869.013,-75.3322 506.845,-36 499.175,-35.1671 491.18,-34.0393 483.259,-32.7583"/>
<polygon fill="black" stroke="black" points="483.739,-29.2898 473.294,-31.0645 482.566,-36.1909 483.739,-29.2898"/>
</g>
<!-- std.conv -->
<g id="node6" class="node"><title>std.conv</title>
<ellipse fill="none" stroke="black" cx="557.845" cy="-18" rx="42.4939" ry="18"/>
<text text-anchor="middle" x="557.845" y="-14.3" font-family="Times New Roman,serif" font-size="14.00">std.conv</text>
</g>
<!-- app&#45;&gt;std.conv -->
<g id="edge5" class="edge"><title>app&#45;&gt;std.conv</title>
<path fill="none" stroke="black" d="M2265.76,-88.6215C2062.45,-85.7179 778.469,-66.2721 608.845,-36 605.184,-35.3467 601.427,-34.4849 597.693,-33.4954"/>
<polygon fill="black" stroke="black" points="598.524,-30.0918 587.943,-30.6333 596.553,-36.8083 598.524,-30.0918"/>
</g>
<!-- std.file -->
<g id="node7" class="node"><title>std.file</title>
<ellipse fill="none" stroke="black" cx="652.845" cy="-18" rx="35.194" ry="18"/>
<text text-anchor="middle" x="652.845" y="-14.3" font-family="Times New Roman,serif" font-size="14.00">std.file</text>
</g>
<!-- app&#45;&gt;std.file -->
<g id="edge6" class="edge"><title>app&#45;&gt;std.file</title>
<path fill="none" stroke="black" d="M2265.61,-88.6449C2067.92,-85.9949 856.444,-68.5095 696.845,-36 693.986,-35.4177 691.071,-34.6682 688.17,-33.8094"/>
<polygon fill="black" stroke="black" points="689.062,-30.417 678.468,-30.5523 686.835,-37.053 689.062,-30.417"/>
</g>
<!-- std.format -->
<g id="node8" class="node"><title>std.format</title>
<ellipse fill="none" stroke="black" cx="753.845" cy="-18" rx="48.1917" ry="18"/>
<text text-anchor="middle" x="753.845" y="-14.3" font-family="Times New Roman,serif" font-size="14.00">std.format</text>
</g>
<!-- app&#45;&gt;std.format -->
<g id="edge7" class="edge"><title>app&#45;&gt;std.format</title>
<path fill="none" stroke="black" d="M2265.73,-88.9516C2089.74,-88.4987 1107.41,-83.8333 811.845,-36 807.413,-35.2828 802.843,-34.3306 798.305,-33.2419"/>
<polygon fill="black" stroke="black" points="799.045,-29.8179 788.485,-30.6788 797.277,-36.591 799.045,-29.8179"/>
</g>
<!-- std.getopt -->
<g id="node9" class="node"><title>std.getopt</title>
<ellipse fill="none" stroke="black" cx="867.845" cy="-18" rx="47.3916" ry="18"/>
<text text-anchor="middle" x="867.845" y="-14.3" font-family="Times New Roman,serif" font-size="14.00">std.getopt</text>
</g>
<!-- app&#45;&gt;std.getopt -->
<g id="edge8" class="edge"><title>app&#45;&gt;std.getopt</title>
<path fill="none" stroke="black" d="M2265.66,-88.8759C2097.42,-87.968 1196.55,-81.0424 924.845,-36 920.604,-35.297 916.236,-34.3732 911.893,-33.3189"/>
<polygon fill="black" stroke="black" points="912.442,-29.8436 901.879,-30.6648 910.649,-36.61 912.442,-29.8436"/>
</g>
<!-- std.range -->
<g id="node10" class="node"><title>std.range</title>
<ellipse fill="none" stroke="black" cx="977.845" cy="-18" rx="44.393" ry="18"/>
<text text-anchor="middle" x="977.845" y="-14.3" font-family="Times New Roman,serif" font-size="14.00">std.range</text>
</g>
<!-- app&#45;&gt;std.range -->
<g id="edge9" class="edge"><title>app&#45;&gt;std.range</title>
<path fill="none" stroke="black" d="M2265.7,-88.8491C2105.31,-87.8081 1279.93,-80.3443 1030.84,-36 1026.99,-35.3146 1023.04,-34.4211 1019.1,-33.4023"/>
<polygon fill="black" stroke="black" points="1020.02,-30.0245 1009.44,-30.6594 1018.11,-36.7582 1020.02,-30.0245"/>
</g>
<!-- std.stdio -->
<g id="node11" class="node"><title>std.stdio</title>
<ellipse fill="none" stroke="black" cx="1081.84" cy="-18" rx="42.4939" ry="18"/>
<text text-anchor="middle" x="1081.84" y="-14.3" font-family="Times New Roman,serif" font-size="14.00">std.stdio</text>
</g>
<!-- app&#45;&gt;std.stdio -->
<g id="edge10" class="edge"><title>app&#45;&gt;std.stdio</title>
<path fill="none" stroke="black" d="M2265.44,-88.7723C2112.21,-87.3441 1360.29,-78.2586 1132.84,-36 1129.24,-35.3298 1125.54,-34.4645 1121.85,-33.4799"/>
<polygon fill="black" stroke="black" points="1122.81,-30.1131 1112.23,-30.6468 1120.83,-36.8282 1122.81,-30.1131"/>
</g>
<!-- core.bitop -->
<g id="node12" class="node"><title>core.bitop</title>
<ellipse fill="#ffeef0" stroke="#fdaeb7" cx="1189.84" cy="-18" rx="48.1917" ry="18"/>
<text text-anchor="middle" x="1189.84" y="-14.3" font-family="Times New Roman,serif" font-size="14.00">core.bitop</text>
</g>
<!-- app&#45;&gt;core.bitop -->
<g id="edge11" class="edge"><title>app&#45;&gt;core.bitop</title>
<path fill="none" stroke="#cb2431" d="M2265.85,-88.506C2122.7,-85.7542 1451.36,-71.156 1246.84,-36 1242.67,-35.2816 1238.36,-34.3563 1234.08,-33.309"/>
<polygon fill="#cb2431" stroke="#cb2431" points="1234.76,-29.8682 1224.19,-30.6835 1232.96,-36.6335 1234.76,-29.8682"/>
</g>
<!-- core.checkedint -->
<g id="node13" class="node"><title>core.checkedint</title>
<ellipse fill="#ffeef0" stroke="#fdaeb7" cx="1323.84" cy="-18" rx="68.4888" ry="18"/>
<text text-anchor="middle" x="1323.84" y="-14.3" font-family="Times New Roman,serif" font-size="14.00">core.checkedint</text>
</g>
<!-- app&#45;&gt;core.checkedint -->
<g id="edge12" class="edge"><title>app&#45;&gt;core.checkedint</title>
<path fill="none" stroke="#cb2431" d="M2265.72,-88.9173C2156.74,-88.2625 1740.33,-82.6662 1401.84,-36 1395.54,-35.1305 1388.98,-34.0256 1382.47,-32.7978"/>
<polygon fill="#cb2431" stroke="#cb2431" points="1382.81,-29.2965 1372.32,-30.7835 1381.45,-36.1626 1382.81,-29.2965"/>
</g>
<!-- core.exception -->
<g id="node14" class="node"><title>core.exception</title>
<ellipse fill="#ffeef0" stroke="#fdaeb7" cx="1474.84" cy="-18" rx="64.189" ry="18"/>
<text text-anchor="middle" x="1474.84" y="-14.3" font-family="Times New Roman,serif" font-size="14.00">core.exception</text>
</g>
<!-- app&#45;&gt;core.exception -->
<g id="edge13" class="edge"><title>app&#45;&gt;core.exception</title>
<path fill="none" stroke="#cb2431" d="M2265.65,-88.5787C2168.1,-86.7461 1826.76,-77.5656 1548.84,-36 1543,-35.1256 1536.93,-34.0359 1530.9,-32.8332"/>
<polygon fill="#cb2431" stroke="#cb2431" points="1531.33,-29.3471 1520.82,-30.7204 1529.89,-36.1981 1531.33,-29.3471"/>
</g>
<!-- core.internal.string -->
<g id="node15" class="node"><title>core.internal.string</title>
<ellipse fill="#ffeef0" stroke="#fdaeb7" cx="1634.84" cy="-18" rx="77.1866" ry="18"/>
<text text-anchor="middle" x="1634.84" y="-14.3" font-family="Times New Roman,serif" font-size="14.00">core.internal.string</text>
</g>
<!-- app&#45;&gt;core.internal.string -->
<g id="edge14" class="edge"><title>app&#45;&gt;core.internal.string</title>
<path fill="none" stroke="#cb2431" d="M2265.98,-87.4681C2184.05,-82.5911 1930.27,-65.9588 1721.84,-36 1714.83,-34.9914 1707.52,-33.7954 1700.25,-32.512"/>
<polygon fill="#cb2431" stroke="#cb2431" points="1700.86,-29.0658 1690.4,-30.7173 1699.61,-35.9525 1700.86,-29.0658"/>
</g>
<!-- core.internal.traits -->
<g id="node16" class="node"><title>core.internal.traits</title>
<ellipse fill="#ffeef0" stroke="#fdaeb7" cx="1805.84" cy="-18" rx="75.2868" ry="18"/>
<text text-anchor="middle" x="1805.84" y="-14.3" font-family="Times New Roman,serif" font-size="14.00">core.internal.traits</text>
</g>
<!-- app&#45;&gt;core.internal.traits -->
<g id="edge15" class="edge"><title>app&#45;&gt;core.internal.traits</title>
<path fill="none" stroke="#cb2431" d="M2266.42,-86.13C2202,-79.001 2031.82,-59.3651 1890.84,-36 1884.26,-34.9089 1877.41,-33.6857 1870.58,-32.4089"/>
<polygon fill="#cb2431" stroke="#cb2431" points="1871.09,-28.9448 1860.62,-30.5091 1869.78,-35.8208 1871.09,-28.9448"/>
</g>
<!-- core.memory -->
<g id="node17" class="node"><title>core.memory</title>
<ellipse fill="#ffeef0" stroke="#fdaeb7" cx="1958.84" cy="-18" rx="59.2899" ry="18"/>
<text text-anchor="middle" x="1958.84" y="-14.3" font-family="Times New Roman,serif" font-size="14.00">core.memory</text>
</g>
<!-- app&#45;&gt;core.memory -->
<g id="edge16" class="edge"><title>app&#45;&gt;core.memory</title>
<path fill="none" stroke="#cb2431" d="M2267.08,-84.2947C2219.48,-75.5065 2114.6,-55.6997 2026.84,-36 2022.19,-34.9555 2017.37,-33.8324 2012.54,-32.6793"/>
<polygon fill="#cb2431" stroke="#cb2431" points="2013.21,-29.2402 2002.67,-30.2857 2011.56,-36.0431 2013.21,-29.2402"/>
</g>
<!-- core.stdc.string -->
<g id="node18" class="node"><title>core.stdc.string</title>
<ellipse fill="#ffeef0" stroke="#fdaeb7" cx="2103.84" cy="-18" rx="67.6881" ry="18"/>
<text text-anchor="middle" x="2103.84" y="-14.3" font-family="Times New Roman,serif" font-size="14.00">core.stdc.string</text>
</g>
<!-- app&#45;&gt;core.stdc.string -->
<g id="edge17" class="edge"><title>app&#45;&gt;core.stdc.string</title>
<path fill="none" stroke="#cb2431" d="M2269.67,-80.4166C2240.35,-69.5584 2189.14,-50.5904 2151.36,-36.5987"/>
<polygon fill="#cb2431" stroke="#cb2431" points="2152.17,-33.1674 2141.58,-32.9763 2149.74,-39.7317 2152.17,-33.1674"/>
</g>
<!-- std.algorithm.comparison -->
<g id="node19" class="node"><title>std.algorithm.comparison</title>
<ellipse fill="#ffeef0" stroke="#fdaeb7" cx="2292.84" cy="-18" rx="103.182" ry="18"/>
<text text-anchor="middle" x="2292.84" y="-14.3" font-family="Times New Roman,serif" font-size="14.00">std.algorithm.comparison</text>
</g>
<!-- app&#45;&gt;std.algorithm.comparison -->
<g id="edge18" class="edge"><title>app&#45;&gt;std.algorithm.comparison</title>
<path fill="none" stroke="#cb2431" d="M2292.84,-71.6966C2292.84,-63.9827 2292.84,-54.7125 2292.84,-46.1124"/>
<polygon fill="#cb2431" stroke="#cb2431" points="2296.34,-46.1043 2292.84,-36.1043 2289.34,-46.1044 2296.34,-46.1043"/>
</g>
<!-- std.algorithm.iteration -->
<g id="node20" class="node"><title>std.algorithm.iteration</title>
<ellipse fill="#ffeef0" stroke="#fdaeb7" cx="2502.84" cy="-18" rx="89.0842" ry="18"/>
<text text-anchor="middle" x="2502.84" y="-14.3" font-family="Times New Roman,serif" font-size="14.00">std.algorithm.iteration</text>
</g>
<!-- app&#45;&gt;std.algorithm.iteration -->
<g id="edge19" class="edge"><title>app&#45;&gt;std.algorithm.iteration</title>
<path fill="none" stroke="#cb2431" d="M2316.53,-81.1062C2348.47,-70.4581 2406.29,-51.1856 2449.07,-36.9237"/>
<polygon fill="#cb2431" stroke="#cb2431" points="2450.4,-40.1714 2458.78,-33.6886 2448.19,-33.5306 2450.4,-40.1714"/>
</g>
<!-- std.algorithm.mutation -->
<g id="node21" class="node"><title>std.algorithm.mutation</title>
<ellipse fill="#ffeef0" stroke="#fdaeb7" cx="2701.84" cy="-18" rx="91.784" ry="18"/>
<text text-anchor="middle" x="2701.84" y="-14.3" font-family="Times New Roman,serif" font-size="14.00">std.algorithm.mutation</text>
</g>
<!-- app&#45;&gt;std.algorithm.mutation -->
<g id="edge20" class="edge"><title>app&#45;&gt;std.algorithm.mutation</title>
<path fill="none" stroke="#cb2431" d="M2318.74,-84.5681C2379.22,-74.2162 2531.72,-48.117 2625.05,-32.1438"/>
<polygon fill="#cb2431" stroke="#cb2431" points="2625.74,-35.5762 2635.01,-30.4393 2624.56,-28.6765 2625.74,-35.5762"/>
</g>
<!-- std.algorithm.searching -->
<g id="node22" class="node"><title>std.algorithm.searching</title>
<ellipse fill="#ffeef0" stroke="#fdaeb7" cx="2906.84" cy="-18" rx="94.7833" ry="18"/>
<text text-anchor="middle" x="2906.84" y="-14.3" font-family="Times New Roman,serif" font-size="14.00">std.algorithm.searching</text>
</g>
<!-- app&#45;&gt;std.algorithm.searching -->
<g id="edge21" class="edge"><title>app&#45;&gt;std.algorithm.searching</title>
<path fill="none" stroke="#cb2431" d="M2319.46,-86.7875C2395.21,-80.3703 2618.43,-60.6327 2802.84,-36 2811.41,-34.856 2820.35,-33.5556 2829.24,-32.1954"/>
<polygon fill="#cb2431" stroke="#cb2431" points="2829.9,-35.6362 2839.24,-30.6393 2828.82,-28.7195 2829.9,-35.6362"/>
</g>
<!-- std.algorithm.sorting -->
<g id="node23" class="node"><title>std.algorithm.sorting</title>
<ellipse fill="#ffeef0" stroke="#fdaeb7" cx="3104.84" cy="-18" rx="85.2851" ry="18"/>
<text text-anchor="middle" x="3104.84" y="-14.3" font-family="Times New Roman,serif" font-size="14.00">std.algorithm.sorting</text>
</g>
<!-- app&#45;&gt;std.algorithm.sorting -->
<g id="edge22" class="edge"><title>app&#45;&gt;std.algorithm.sorting</title>
<path fill="none" stroke="#cb2431" d="M2320.01,-88.026C2415.24,-84.3922 2742.7,-70.0475 3010.84,-36 3018.6,-35.0159 3026.68,-33.8183 3034.7,-32.5191"/>
<polygon fill="#cb2431" stroke="#cb2431" points="3035.53,-35.9297 3044.82,-30.8275 3034.37,-29.0256 3035.53,-35.9297"/>
</g>
<!-- std.encoding -->
<g id="node24" class="node"><title>std.encoding</title>
<ellipse fill="#ffeef0" stroke="#fdaeb7" cx="3265.84" cy="-18" rx="57.6901" ry="18"/>
<text text-anchor="middle" x="3265.84" y="-14.3" font-family="Times New Roman,serif" font-size="14.00">std.encoding</text>
</g>
<!-- app&#45;&gt;std.encoding -->
<g id="edge23" class="edge"><title>app&#45;&gt;std.encoding</title>
<path fill="none" stroke="#cb2431" d="M2320.1,-89.2862C2430.51,-90.0507 2855.12,-89.1664 3198.84,-36 3203.98,-35.2063 3209.29,-34.1954 3214.57,-33.0632"/>
<polygon fill="#cb2431" stroke="#cb2431" points="3215.67,-36.4019 3224.64,-30.7619 3214.11,-29.5778 3215.67,-36.4019"/>
</g>
<!-- std.exception -->
<g id="node25" class="node"><title>std.exception</title>
<ellipse fill="#ffeef0" stroke="#fdaeb7" cx="3401.84" cy="-18" rx="59.5901" ry="18"/>
<text text-anchor="middle" x="3401.84" y="-14.3" font-family="Times New Roman,serif" font-size="14.00">std.exception</text>
</g>
<!-- app&#45;&gt;std.exception -->
<g id="edge24" class="edge"><title>app&#45;&gt;std.exception</title>
<path fill="none" stroke="#cb2431" d="M2320.13,-88.3144C2463.3,-84.61 3128.94,-66.0331 3332.84,-36 3338.26,-35.2022 3343.87,-34.1702 3349.45,-33.0092"/>
<polygon fill="#cb2431" stroke="#cb2431" points="3350.4,-36.3846 3359.4,-30.8026 3348.88,-29.5506 3350.4,-36.3846"/>
</g>
<!-- std.functional -->
<g id="node26" class="node"><title>std.functional</title>
<ellipse fill="#ffeef0" stroke="#fdaeb7" cx="3539.84" cy="-18" rx="59.5901" ry="18"/>
<text text-anchor="middle" x="3539.84" y="-14.3" font-family="Times New Roman,serif" font-size="14.00">std.functional</text>
</g>
<!-- app&#45;&gt;std.functional -->
<g id="edge25" class="edge"><title>app&#45;&gt;std.functional</title>
<path fill="none" stroke="#cb2431" d="M2319.87,-88.5064C2473.48,-85.5913 3237.95,-69.5948 3470.84,-36 3476.26,-35.2184 3481.88,-34.1969 3487.45,-33.0422"/>
<polygon fill="#cb2431" stroke="#cb2431" points="3488.4,-36.4185 3497.41,-30.8431 3486.89,-29.5834 3488.4,-36.4185"/>
</g>
<!-- std.internal.memory -->
<g id="node27" class="node"><title>std.internal.memory</title>
<ellipse fill="#ffeef0" stroke="#fdaeb7" cx="3699.84" cy="-18" rx="82.5854" ry="18"/>
<text text-anchor="middle" x="3699.84" y="-14.3" font-family="Times New Roman,serif" font-size="14.00">std.internal.memory</text>
</g>
<!-- app&#45;&gt;std.internal.memory -->
<g id="edge26" class="edge"><title>app&#45;&gt;std.internal.memory</title>
<path fill="none" stroke="#cb2431" d="M2320.28,-89.3614C2458.66,-90.8778 3093.64,-94.1897 3608.84,-36 3616.48,-35.1376 3624.44,-34.0043 3632.33,-32.7314"/>
<polygon fill="#cb2431" stroke="#cb2431" points="3632.99,-36.1702 3642.27,-31.0543 3631.82,-29.2679 3632.99,-36.1702"/>
</g>
<!-- std.internal.unicode_tables -->
<g id="node28" class="node"><title>std.internal.unicode_tables</title>
<ellipse fill="#ffeef0" stroke="#fdaeb7" cx="3907.84" cy="-18" rx="107.482" ry="18"/>
<text text-anchor="middle" x="3907.84" y="-14.3" font-family="Times New Roman,serif" font-size="14.00">std.internal.unicode_tables</text>
</g>
<!-- app&#45;&gt;std.internal.unicode_tables -->
<g id="edge27" class="edge"><title>app&#45;&gt;std.internal.unicode_tables</title>
<path fill="none" stroke="#cb2431" d="M2320.02,-89.1548C2468.69,-89.7694 3198.6,-89.7932 3791.84,-36 3802.21,-35.0598 3813.07,-33.8166 3823.81,-32.429"/>
<polygon fill="#cb2431" stroke="#cb2431" points="3824.59,-35.8548 3834.04,-31.0595 3823.67,-28.9166 3824.59,-35.8548"/>
</g>
<!-- std.meta -->
<g id="node29" class="node"><title>std.meta</title>
<ellipse fill="#ffeef0" stroke="#fdaeb7" cx="4074.84" cy="-18" rx="41.6928" ry="18"/>
<text text-anchor="middle" x="4074.84" y="-14.3" font-family="Times New Roman,serif" font-size="14.00">std.meta</text>
</g>
<!-- app&#45;&gt;std.meta -->
<g id="edge28" class="edge"><title>app&#45;&gt;std.meta</title>
<path fill="none" stroke="#cb2431" d="M2320.02,-88.645C2526.86,-85.8803 3849.29,-67.0747 4023.84,-36 4027.55,-35.3395 4031.36,-34.4646 4035.15,-33.4591"/>
<polygon fill="#cb2431" stroke="#cb2431" points="4036.41,-36.7343 4045.02,-30.5509 4034.44,-30.0196 4036.41,-36.7343"/>
</g>
<!-- std.parallelism -->
<g id="node30" class="node"><title>std.parallelism</title>
<ellipse fill="#ffeef0" stroke="#fdaeb7" cx="4196.84" cy="-18" rx="62.2891" ry="18"/>
<text text-anchor="middle" x="4196.84" y="-14.3" font-family="Times New Roman,serif" font-size="14.00">std.parallelism</text>
</g>
<!-- app&#45;&gt;std.parallelism -->
<g id="edge29" class="edge"><title>app&#45;&gt;std.parallelism</title>
<path fill="none" stroke="#cb2431" d="M2320.02,-88.9826C2519.09,-88.7401 3754.82,-85.2458 4125.84,-36 4131.56,-35.2415 4137.49,-34.2158 4143.37,-33.0419"/>
<polygon fill="#cb2431" stroke="#cb2431" points="4144.13,-36.4584 4153.18,-30.9473 4142.67,-29.6127 4144.13,-36.4584"/>
</g>
<!-- std.range.primitives -->
<g id="node31" class="node"><title>std.range.primitives</title>
<ellipse fill="#ffeef0" stroke="#fdaeb7" cx="4358.84" cy="-18" rx="81.4863" ry="18"/>
<text text-anchor="middle" x="4358.84" y="-14.3" font-family="Times New Roman,serif" font-size="14.00">std.range.primitives</text>
</g>
<!-- app&#45;&gt;std.range.primitives -->
<g id="edge30" class="edge"><title>app&#45;&gt;std.range.primitives</title>
<path fill="none" stroke="#cb2431" d="M2320.08,-88.8606C2527.91,-87.7085 3865.57,-78.7023 4267.84,-36 4275.8,-35.1557 4284.1,-33.9972 4292.31,-32.6786"/>
<polygon fill="#cb2431" stroke="#cb2431" points="4292.97,-36.1161 4302.25,-31.0012 4291.81,-29.2136 4292.97,-36.1161"/>
</g>
<!-- std.system -->
<g id="node32" class="node"><title>std.system</title>
<ellipse fill="#ffeef0" stroke="#fdaeb7" cx="4507.84" cy="-18" rx="50.0912" ry="18"/>
<text text-anchor="middle" x="4507.84" y="-14.3" font-family="Times New Roman,serif" font-size="14.00">std.system</text>
</g>
<!-- app&#45;&gt;std.system -->
<g id="edge31" class="edge"><title>app&#45;&gt;std.system</title>
<path fill="none" stroke="#cb2431" d="M2320.06,-88.7529C2554.41,-86.5697 4228.65,-69.8549 4448.84,-36 4453.29,-35.3163 4457.88,-34.3961 4462.43,-33.3358"/>
<polygon fill="#cb2431" stroke="#cb2431" points="4463.46,-36.6847 4472.29,-30.8285 4461.74,-29.9006 4463.46,-36.6847"/>
</g>
<!-- std.traits -->
<g id="node33" class="node"><title>std.traits</title>
<ellipse fill="#ffeef0" stroke="#fdaeb7" cx="4617.84" cy="-18" rx="42.4939" ry="18"/>
<text text-anchor="middle" x="4617.84" y="-14.3" font-family="Times New Roman,serif" font-size="14.00">std.traits</text>
</g>
<!-- app&#45;&gt;std.traits -->
<g id="edge32" class="edge"><title>app&#45;&gt;std.traits</title>
<path fill="none" stroke="#cb2431" d="M2320.02,-88.8575C2561.4,-87.528 4334.88,-76.4216 4566.84,-36 4570.51,-35.3616 4574.27,-34.5101 4578,-33.5274"/>
<polygon fill="#cb2431" stroke="#cb2431" points="4579.14,-36.8418 4587.75,-30.6755 4577.17,-30.1232 4579.14,-36.8418"/>
</g>
<!-- std.typecons -->
<g id="node34" class="node"><title>std.typecons</title>
<ellipse fill="#ffeef0" stroke="#fdaeb7" cx="4735.84" cy="-18" rx="57.6901" ry="18"/>
<text text-anchor="middle" x="4735.84" y="-14.3" font-family="Times New Roman,serif" font-size="14.00">std.typecons</text>
</g>
<!-- app&#45;&gt;std.typecons -->
<g id="edge33" class="edge"><title>app&#45;&gt;std.typecons</title>
<path fill="none" stroke="#cb2431" d="M2320.04,-88.7667C2567.43,-86.5961 4424.7,-69.2597 4668.84,-36 4674.2,-35.2711 4679.74,-34.2731 4685.23,-33.1232"/>
<polygon fill="#cb2431" stroke="#cb2431" points="4686.05,-36.5279 4695.03,-30.9147 4684.51,-29.6992 4686.05,-36.5279"/>
</g>
<!-- std.uni -->
<g id="node35" class="node"><title>std.uni</title>
<ellipse fill="#ffeef0" stroke="#fdaeb7" cx="4846.84" cy="-18" rx="35.194" ry="18"/>
<text text-anchor="middle" x="4846.84" y="-14.3" font-family="Times New Roman,serif" font-size="14.00">std.uni</text>
</g>
<!-- app&#45;&gt;std.uni -->
<g id="edge34" class="edge"><title>app&#45;&gt;std.uni</title>
<path fill="none" stroke="#cb2431" d="M2319.99,-88.9976C2575.03,-88.901 4546.95,-86.5167 4802.84,-36 4805.71,-35.435 4808.62,-34.698 4811.53,-33.8479"/>
<polygon fill="#cb2431" stroke="#cb2431" points="4812.86,-37.0942 4821.23,-30.607 4810.64,-30.4546 4812.86,-37.0942"/>
</g>
<!-- std.utf -->
<g id="node36" class="node"><title>std.utf</title>
<ellipse fill="#ffeef0" stroke="#fdaeb7" cx="4934.84" cy="-18" rx="34.394" ry="18"/>
<text text-anchor="middle" x="4934.84" y="-14.3" font-family="Times New Roman,serif" font-size="14.00">std.utf</text>
</g>
<!-- app&#45;&gt;std.utf -->
<g id="edge35" class="edge"><title>app&#45;&gt;std.utf</title>
<path fill="none" stroke="#cb2431" d="M2320.12,-89.0185C2580.65,-89.1205 4625.68,-88.2468 4890.84,-36 4893.88,-35.4019 4896.98,-34.61 4900.05,-33.6946"/>
<polygon fill="#cb2431" stroke="#cb2431" points="4901.35,-36.9527 4909.7,-30.4361 4899.11,-30.3209 4901.35,-36.9527"/>
</g>
</g>
</svg>
