<?xml version="1.0" encoding="UTF-8" standalone="no"?>
<!DOCTYPE svg PUBLIC "-//W3C//DTD SVG 1.1//EN"
 "http://www.w3.org/Graphics/SVG/1.1/DTD/svg11.dtd">
<!-- Generated by graphviz version 2.38.0 (20140413.2041)
 -->
<!-- Title: %3 Pages: 1 -->
<svg width="4472pt" height="116pt"
 viewBox="0.00 0.00 4471.54 116.00" xmlns="http://www.w3.org/2000/svg" xmlns:xlink="http://www.w3.org/1999/xlink">
<g id="graph0" class="graph" transform="scale(1 1) rotate(0) translate(4 112)">
<title>%3</title>
<polygon fill="white" stroke="none" points="-4,4 -4,-112 4467.54,-112 4467.54,4 -4,4"/>
<!-- app -->
<g id="node1" class="node"><title>app</title>
<ellipse fill="none" stroke="black" cx="2448.1" cy="-90" rx="27" ry="18"/>
<text text-anchor="middle" x="2448.1" y="-86.3" font-family="Times New Roman,serif" font-size="14.00">app</text>
</g>
<!-- core.bitop -->
<g id="node2" class="node"><title>core.bitop</title>
<ellipse fill="none" stroke="black" cx="48.0957" cy="-18" rx="48.1917" ry="18"/>
<text text-anchor="middle" x="48.0957" y="-14.3" font-family="Times New Roman,serif" font-size="14.00">core.bitop</text>
</g>
<!-- app&#45;&gt;core.bitop -->
<g id="edge1" class="edge"><title>app&#45;&gt;core.bitop</title>
<path fill="none" stroke="black" d="M2420.88,-88.8252C2175.31,-87.1905 344.991,-73.7872 105.096,-36 100.85,-35.3312 96.4774,-34.4304 92.1323,-33.3908"/>
<polygon fill="black" stroke="black" points="92.6763,-29.9149 82.115,-30.7569 90.8962,-36.6848 92.6763,-29.9149"/>
</g>
<!-- core.checkedint -->
<g id="node3" class="node"><title>core.checkedint</title>
<ellipse fill="none" stroke="black" cx="182.096" cy="-18" rx="68.4888" ry="18"/>
<text text-anchor="middle" x="182.096" y="-14.3" font-family="Times New Roman,serif" font-size="14.00">core.checkedint</text>
</g>
<!-- app&#45;&gt;core.checkedint -->
<g id="edge2" class="edge"><title>app&#45;&gt;core.checkedint</title>
<path fill="none" stroke="black" d="M2421.12,-89.0539C2201.73,-89.3865 707.157,-89.6368 260.096,-36 253.531,-35.2124 246.705,-34.1281 239.942,-32.8849"/>
<polygon fill="black" stroke="black" points="240.603,-29.4479 230.118,-30.966 239.261,-36.3181 240.603,-29.4479"/>
</g>
<!-- core.exception -->
<g id="node4" class="node"><title>core.exception</title>
<ellipse fill="none" stroke="black" cx="333.096" cy="-18" rx="64.189" ry="18"/>
<text text-anchor="middle" x="333.096" y="-14.3" font-family="Times New Roman,serif" font-size="14.00">core.exception</text>
</g>
<!-- app&#45;&gt;core.exception -->
<g id="edge3" class="edge"><title>app&#45;&gt;core.exception</title>
<path fill="none" stroke="black" d="M2420.94,-89.041C2209.42,-89.2492 822.488,-88.5704 407.096,-36 400.917,-35.218 394.498,-34.1455 388.138,-32.9165"/>
<polygon fill="black" stroke="black" points="388.736,-29.4663 378.235,-30.8754 387.323,-36.3222 388.736,-29.4663"/>
</g>
<!-- core.internal.traits -->
<g id="node5" class="node"><title>core.internal.traits</title>
<ellipse fill="none" stroke="black" cx="491.096" cy="-18" rx="75.2868" ry="18"/>
<text text-anchor="middle" x="491.096" y="-14.3" font-family="Times New Roman,serif" font-size="14.00">core.internal.traits</text>
</g>
<!-- app&#45;&gt;core.internal.traits -->
<g id="edge4" class="edge"><title>app&#45;&gt;core.internal.traits</title>
<path fill="none" stroke="black" d="M2421,-88.8624C2219.87,-87.747 956.299,-79.0891 576.096,-36 568.899,-35.1844 561.405,-34.0747 553.978,-32.8103"/>
<polygon fill="black" stroke="black" points="554.39,-29.3282 543.928,-31.0032 553.151,-36.2177 554.39,-29.3282"/>
</g>
<!-- core.memory -->
<g id="node6" class="node"><title>core.memory</title>
<ellipse fill="none" stroke="black" cx="644.096" cy="-18" rx="59.2899" ry="18"/>
<text text-anchor="middle" x="644.096" y="-14.3" font-family="Times New Roman,serif" font-size="14.00">core.memory</text>
</g>
<!-- app&#45;&gt;core.memory -->
<g id="edge5" class="edge"><title>app&#45;&gt;core.memory</title>
<path fill="none" stroke="black" d="M2421.14,-88.9691C2228.81,-88.6301 1062.48,-84.5724 712.096,-36 706.672,-35.2481 701.053,-34.2352 695.477,-33.0764"/>
<polygon fill="black" stroke="black" points="696.057,-29.6198 685.535,-30.8577 694.532,-36.4518 696.057,-29.6198"/>
</g>
<!-- core.stdc.string -->
<g id="node7" class="node"><title>core.stdc.string</title>
<ellipse fill="none" stroke="black" cx="789.096" cy="-18" rx="67.6881" ry="18"/>
<text text-anchor="middle" x="789.096" y="-14.3" font-family="Times New Roman,serif" font-size="14.00">core.stdc.string</text>
</g>
<!-- app&#45;&gt;core.stdc.string -->
<g id="edge6" class="edge"><title>app&#45;&gt;core.stdc.string</title>
<path fill="none" stroke="black" d="M2420.94,-88.7843C2238.04,-87.2276 1183.56,-76.5877 865.096,-36 858.935,-35.2148 852.537,-34.164 846.187,-32.9681"/>
<polygon fill="black" stroke="black" points="846.78,-29.5175 836.288,-30.987 845.407,-36.3814 846.78,-29.5175"/>
</g>
<!-- std.algorithm -->
<g id="node8" class="node"><title>std.algorithm</title>
<ellipse fill="none" stroke="black" cx="932.096" cy="-18" rx="57.6901" ry="18"/>
<text text-anchor="middle" x="932.096" y="-14.3" font-family="Times New Roman,serif" font-size="14.00">std.algorithm</text>
</g>
<!-- app&#45;&gt;std.algorithm -->
<g id="edge7" class="edge"><title>app&#45;&gt;std.algorithm</title>
<path fill="none" stroke="black" d="M2421.03,-88.793C2247.46,-87.3475 1288.77,-77.5667 999.096,-36 993.75,-35.2329 988.214,-34.2103 982.719,-33.0455"/>
<polygon fill="black" stroke="black" points="983.449,-29.6224 972.922,-30.8202 981.899,-36.4485 983.449,-29.6224"/>
</g>
<!-- std.algorithm.comparison -->
<g id="node9" class="node"><title>std.algorithm.comparison</title>
<ellipse fill="none" stroke="black" cx="1111.1" cy="-18" rx="103.182" ry="18"/>
<text text-anchor="middle" x="1111.1" y="-14.3" font-family="Times New Roman,serif" font-size="14.00">std.algorithm.comparison</text>
</g>
<!-- app&#45;&gt;std.algorithm.comparison -->
<g id="edge8" class="edge"><title>app&#45;&gt;std.algorithm.comparison</title>
<path fill="none" stroke="black" d="M2420.86,-88.9031C2288.73,-88.2065 1701.4,-82.5112 1223.1,-36 1213.26,-35.0435 1202.97,-33.8075 1192.78,-32.4386"/>
<polygon fill="black" stroke="black" points="1193.04,-28.9404 1182.65,-31.0308 1192.07,-35.8738 1193.04,-28.9404"/>
</g>
<!-- std.algorithm.iteration -->
<g id="node10" class="node"><title>std.algorithm.iteration</title>
<ellipse fill="none" stroke="black" cx="1321.1" cy="-18" rx="89.0842" ry="18"/>
<text text-anchor="middle" x="1321.1" y="-14.3" font-family="Times New Roman,serif" font-size="14.00">std.algorithm.iteration</text>
</g>
<!-- app&#45;&gt;std.algorithm.iteration -->
<g id="edge9" class="edge"><title>app&#45;&gt;std.algorithm.iteration</title>
<path fill="none" stroke="black" d="M2420.97,-88.7998C2302.11,-87.6712 1815.52,-80.43 1419.1,-36 1410.71,-35.06 1401.95,-33.8593 1393.27,-32.5316"/>
<polygon fill="black" stroke="black" points="1393.57,-29.0353 1383.15,-30.9229 1392.47,-35.9486 1393.57,-29.0353"/>
</g>
<!-- std.algorithm.mutation -->
<g id="node11" class="node"><title>std.algorithm.mutation</title>
<ellipse fill="none" stroke="black" cx="1520.1" cy="-18" rx="91.784" ry="18"/>
<text text-anchor="middle" x="1520.1" y="-14.3" font-family="Times New Roman,serif" font-size="14.00">std.algorithm.mutation</text>
</g>
<!-- app&#45;&gt;std.algorithm.mutation -->
<g id="edge10" class="edge"><title>app&#45;&gt;std.algorithm.mutation</title>
<path fill="none" stroke="black" d="M2420.88,-88.2717C2316.79,-85.2717 1934.08,-72.272 1621.1,-36 1612.5,-35.0035 1603.52,-33.7713 1594.61,-32.4291"/>
<polygon fill="black" stroke="black" points="1595.03,-28.9523 1584.61,-30.8735 1593.95,-35.8691 1595.03,-28.9523"/>
</g>
<!-- std.algorithm.searching -->
<g id="node12" class="node"><title>std.algorithm.searching</title>
<ellipse fill="none" stroke="black" cx="1725.1" cy="-18" rx="94.7833" ry="18"/>
<text text-anchor="middle" x="1725.1" y="-14.3" font-family="Times New Roman,serif" font-size="14.00">std.algorithm.searching</text>
</g>
<!-- app&#45;&gt;std.algorithm.searching -->
<g id="edge11" class="edge"><title>app&#45;&gt;std.algorithm.searching</title>
<path fill="none" stroke="black" d="M2421.17,-87.4343C2334.85,-82.2567 2057.35,-64.3843 1829.1,-36 1820.46,-34.9255 1811.43,-33.6631 1802.47,-32.3197"/>
<polygon fill="black" stroke="black" points="1802.82,-28.8316 1792.4,-30.7742 1801.75,-35.7506 1802.82,-28.8316"/>
</g>
<!-- std.array -->
<g id="node13" class="node"><title>std.array</title>
<ellipse fill="none" stroke="black" cx="1880.1" cy="-18" rx="42.4939" ry="18"/>
<text text-anchor="middle" x="1880.1" y="-14.3" font-family="Times New Roman,serif" font-size="14.00">std.array</text>
</g>
<!-- app&#45;&gt;std.array -->
<g id="edge12" class="edge"><title>app&#45;&gt;std.array</title>
<path fill="none" stroke="black" d="M2421.2,-88.2577C2344.17,-85.7008 2116.43,-75.1276 1932.1,-36 1928.44,-35.2247 1924.69,-34.2866 1920.94,-33.254"/>
<polygon fill="black" stroke="black" points="1921.73,-29.8369 1911.15,-30.3469 1919.74,-36.5475 1921.73,-29.8369"/>
</g>
<!-- std.ascii -->
<g id="node14" class="node"><title>std.ascii</title>
<ellipse fill="none" stroke="black" cx="1981.1" cy="-18" rx="40.0939" ry="18"/>
<text text-anchor="middle" x="1981.1" y="-14.3" font-family="Times New Roman,serif" font-size="14.00">std.ascii</text>
</g>
<!-- app&#45;&gt;std.ascii -->
<g id="edge13" class="edge"><title>app&#45;&gt;std.ascii</title>
<path fill="none" stroke="black" d="M2420.93,-87.4457C2353.95,-83.2042 2175.79,-69.4347 2031.1,-36 2027.69,-35.2124 2024.18,-34.2819 2020.69,-33.2686"/>
<polygon fill="black" stroke="black" points="2021.54,-29.8684 2010.95,-30.2437 2019.47,-36.5532 2021.54,-29.8684"/>
</g>
<!-- std.container.rbtree -->
<g id="node15" class="node"><title>std.container.rbtree</title>
<ellipse fill="none" stroke="black" cx="2121.1" cy="-18" rx="81.4863" ry="18"/>
<text text-anchor="middle" x="2121.1" y="-14.3" font-family="Times New Roman,serif" font-size="14.00">std.container.rbtree</text>
</g>
<!-- app&#45;&gt;std.container.rbtree -->
<g id="edge14" class="edge"><title>app&#45;&gt;std.container.rbtree</title>
<path fill="none" stroke="black" d="M2422.71,-83.5655C2372.69,-72.8583 2259.97,-48.7277 2187.38,-33.1895"/>
<polygon fill="black" stroke="black" points="2187.93,-29.7272 2177.42,-31.0563 2186.46,-36.5721 2187.93,-29.7272"/>
</g>
<!-- std.conv -->
<g id="node16" class="node"><title>std.conv</title>
<ellipse fill="none" stroke="black" cx="2262.1" cy="-18" rx="42.4939" ry="18"/>
<text text-anchor="middle" x="2262.1" y="-14.3" font-family="Times New Roman,serif" font-size="14.00">std.conv</text>
</g>
<!-- app&#45;&gt;std.conv -->
<g id="edge15" class="edge"><title>app&#45;&gt;std.conv</title>
<path fill="none" stroke="black" d="M2424.91,-80.276C2394.25,-68.7363 2339.73,-48.216 2302.28,-34.1248"/>
<polygon fill="black" stroke="black" points="2303.28,-30.7588 2292.69,-30.5122 2300.81,-37.3102 2303.28,-30.7588"/>
</g>
<!-- std.encoding -->
<g id="node17" class="node"><title>std.encoding</title>
<ellipse fill="none" stroke="black" cx="2380.1" cy="-18" rx="57.6901" ry="18"/>
<text text-anchor="middle" x="2380.1" y="-14.3" font-family="Times New Roman,serif" font-size="14.00">std.encoding</text>
</g>
<!-- app&#45;&gt;std.encoding -->
<g id="edge16" class="edge"><title>app&#45;&gt;std.encoding</title>
<path fill="none" stroke="black" d="M2434.01,-74.496C2425.12,-65.3442 2413.42,-53.3059 2403.2,-42.7811"/>
<polygon fill="black" stroke="black" points="2405.55,-40.1819 2396.07,-35.4478 2400.53,-45.0594 2405.55,-40.1819"/>
</g>
<!-- std.exception -->
<g id="node18" class="node"><title>std.exception</title>
<ellipse fill="none" stroke="black" cx="2516.1" cy="-18" rx="59.5901" ry="18"/>
<text text-anchor="middle" x="2516.1" y="-14.3" font-family="Times New Roman,serif" font-size="14.00">std.exception</text>
</g>
<!-- app&#45;&gt;std.exception -->
<g id="edge17" class="edge"><title>app&#45;&gt;std.exception</title>
<path fill="none" stroke="black" d="M2462.19,-74.496C2471.08,-65.3442 2482.77,-53.3059 2492.99,-42.7811"/>
<polygon fill="black" stroke="black" points="2495.66,-45.0594 2500.12,-35.4478 2490.64,-40.1819 2495.66,-45.0594"/>
</g>
<!-- std.file -->
<g id="node19" class="node"><title>std.file</title>
<ellipse fill="none" stroke="black" cx="2629.1" cy="-18" rx="35.194" ry="18"/>
<text text-anchor="middle" x="2629.1" y="-14.3" font-family="Times New Roman,serif" font-size="14.00">std.file</text>
</g>
<!-- app&#45;&gt;std.file -->
<g id="edge18" class="edge"><title>app&#45;&gt;std.file</title>
<path fill="none" stroke="black" d="M2471.02,-80.1345C2501.54,-68.3312 2555.88,-47.315 2592.21,-33.2668"/>
<polygon fill="black" stroke="black" points="2593.87,-36.3743 2601.94,-29.5028 2591.35,-29.8455 2593.87,-36.3743"/>
</g>
<!-- std.format -->
<g id="node20" class="node"><title>std.format</title>
<ellipse fill="none" stroke="black" cx="2730.1" cy="-18" rx="48.1917" ry="18"/>
<text text-anchor="middle" x="2730.1" y="-14.3" font-family="Times New Roman,serif" font-size="14.00">std.format</text>
</g>
<!-- app&#45;&gt;std.format -->
<g id="edge19" class="edge"><title>app&#45;&gt;std.format</title>
<path fill="none" stroke="black" d="M2473.52,-83.5193C2515.34,-74.3925 2601.17,-55.1807 2673.1,-36 2676.7,-35.0388 2680.42,-34.0104 2684.16,-32.9529"/>
<polygon fill="black" stroke="black" points="2685.36,-36.2474 2694,-30.1116 2683.42,-29.5219 2685.36,-36.2474"/>
</g>
<!-- std.functional -->
<g id="node21" class="node"><title>std.functional</title>
<ellipse fill="none" stroke="black" cx="2856.1" cy="-18" rx="59.5901" ry="18"/>
<text text-anchor="middle" x="2856.1" y="-14.3" font-family="Times New Roman,serif" font-size="14.00">std.functional</text>
</g>
<!-- app&#45;&gt;std.functional -->
<g id="edge20" class="edge"><title>app&#45;&gt;std.functional</title>
<path fill="none" stroke="black" d="M2474.61,-85.6498C2531.91,-78.235 2671.46,-59.2389 2787.1,-36 2792.11,-34.9927 2797.31,-33.8661 2802.5,-32.6852"/>
<polygon fill="black" stroke="black" points="2803.48,-36.0494 2812.42,-30.3645 2801.89,-29.2333 2803.48,-36.0494"/>
</g>
<!-- std.getopt -->
<g id="node22" class="node"><title>std.getopt</title>
<ellipse fill="none" stroke="black" cx="2981.1" cy="-18" rx="47.3916" ry="18"/>
<text text-anchor="middle" x="2981.1" y="-14.3" font-family="Times New Roman,serif" font-size="14.00">std.getopt</text>
</g>
<!-- app&#45;&gt;std.getopt -->
<g id="edge21" class="edge"><title>app&#45;&gt;std.getopt</title>
<path fill="none" stroke="black" d="M2475,-87.748C2548.05,-83.9762 2755.95,-70.763 2925.1,-36 2928.96,-35.2058 2932.94,-34.2615 2936.91,-33.2308"/>
<polygon fill="black" stroke="black" points="2937.99,-36.5637 2946.7,-30.5273 2936.13,-29.8164 2937.99,-36.5637"/>
</g>
<!-- std.internal.memory -->
<g id="node23" class="node"><title>std.internal.memory</title>
<ellipse fill="none" stroke="black" cx="3129.1" cy="-18" rx="82.5854" ry="18"/>
<text text-anchor="middle" x="3129.1" y="-14.3" font-family="Times New Roman,serif" font-size="14.00">std.internal.memory</text>
</g>
<!-- app&#45;&gt;std.internal.memory -->
<g id="edge22" class="edge"><title>app&#45;&gt;std.internal.memory</title>
<path fill="none" stroke="black" d="M2474.91,-87.4784C2558.42,-82.5483 2821.2,-65.5954 3037.1,-36 3044.68,-34.9608 3052.58,-33.7284 3060.44,-32.4091"/>
<polygon fill="black" stroke="black" points="3061.07,-35.8511 3070.33,-30.6994 3059.88,-28.9533 3061.07,-35.8511"/>
</g>
<!-- std.internal.unicode_tables -->
<g id="node24" class="node"><title>std.internal.unicode_tables</title>
<ellipse fill="none" stroke="black" cx="3337.1" cy="-18" rx="107.482" ry="18"/>
<text text-anchor="middle" x="3337.1" y="-14.3" font-family="Times New Roman,serif" font-size="14.00">std.internal.unicode_tables</text>
</g>
<!-- app&#45;&gt;std.internal.unicode_tables -->
<g id="edge23" class="edge"><title>app&#45;&gt;std.internal.unicode_tables</title>
<path fill="none" stroke="black" d="M2475.2,-87.8987C2574.8,-83.6919 2929.86,-67.2776 3221.1,-36 3231.14,-34.9212 3241.65,-33.6216 3252.07,-32.2274"/>
<polygon fill="black" stroke="black" points="3252.58,-35.6904 3262.01,-30.8659 3251.63,-28.7551 3252.58,-35.6904"/>
</g>
<!-- std.meta -->
<g id="node25" class="node"><title>std.meta</title>
<ellipse fill="none" stroke="black" cx="3504.1" cy="-18" rx="41.6928" ry="18"/>
<text text-anchor="middle" x="3504.1" y="-14.3" font-family="Times New Roman,serif" font-size="14.00">std.meta</text>
</g>
<!-- app&#45;&gt;std.meta -->
<g id="edge24" class="edge"><title>app&#45;&gt;std.meta</title>
<path fill="none" stroke="black" d="M2475.43,-88.5511C2615.93,-86.0926 3257.82,-72.992 3453.1,-36 3456.75,-35.3079 3460.5,-34.4194 3464.23,-33.4124"/>
<polygon fill="black" stroke="black" points="3465.38,-36.7215 3473.98,-30.5237 3463.39,-30.0101 3465.38,-36.7215"/>
</g>
<!-- std.range -->
<g id="node26" class="node"><title>std.range</title>
<ellipse fill="none" stroke="black" cx="3608.1" cy="-18" rx="44.393" ry="18"/>
<text text-anchor="middle" x="3608.1" y="-14.3" font-family="Times New Roman,serif" font-size="14.00">std.range</text>
</g>
<!-- app&#45;&gt;std.range -->
<g id="edge25" class="edge"><title>app&#45;&gt;std.range</title>
<path fill="none" stroke="black" d="M2475.21,-88.6655C2623.56,-86.689 3338.31,-75.2494 3555.1,-36 3558.94,-35.3033 3562.9,-34.4021 3566.83,-33.3783"/>
<polygon fill="black" stroke="black" points="3567.83,-36.7333 3576.49,-30.6281 3565.91,-30.001 3567.83,-36.7333"/>
</g>
<!-- std.range.primitives -->
<g id="node27" class="node"><title>std.range.primitives</title>
<ellipse fill="none" stroke="black" cx="3751.1" cy="-18" rx="81.4863" ry="18"/>
<text text-anchor="middle" x="3751.1" y="-14.3" font-family="Times New Roman,serif" font-size="14.00">std.range.primitives</text>
</g>
<!-- app&#45;&gt;std.range.primitives -->
<g id="edge26" class="edge"><title>app&#45;&gt;std.range.primitives</title>
<path fill="none" stroke="black" d="M2475.1,-89.2456C2606.11,-90.1388 3188.39,-90.6874 3661.1,-36 3668.56,-35.136 3676.34,-34.0112 3684.07,-32.7515"/>
<polygon fill="black" stroke="black" points="3684.88,-36.1625 3694.15,-31.0283 3683.7,-29.2625 3684.88,-36.1625"/>
</g>
<!-- std.stdio -->
<g id="node28" class="node"><title>std.stdio</title>
<ellipse fill="none" stroke="black" cx="3892.1" cy="-18" rx="42.4939" ry="18"/>
<text text-anchor="middle" x="3892.1" y="-14.3" font-family="Times New Roman,serif" font-size="14.00">std.stdio</text>
</g>
<!-- app&#45;&gt;std.stdio -->
<g id="edge27" class="edge"><title>app&#45;&gt;std.stdio</title>
<path fill="none" stroke="black" d="M2475.25,-89.0143C2645.25,-88.9464 3564.89,-86.2299 3841.1,-36 3844.71,-35.3435 3848.41,-34.4878 3852.09,-33.5094"/>
<polygon fill="black" stroke="black" points="3853.11,-36.8591 3861.72,-30.6861 3851.14,-30.142 3853.11,-36.8591"/>
</g>
<!-- std.system -->
<g id="node29" class="node"><title>std.system</title>
<ellipse fill="none" stroke="black" cx="4002.1" cy="-18" rx="50.0912" ry="18"/>
<text text-anchor="middle" x="4002.1" y="-14.3" font-family="Times New Roman,serif" font-size="14.00">std.system</text>
</g>
<!-- app&#45;&gt;std.system -->
<g id="edge28" class="edge"><title>app&#45;&gt;std.system</title>
<path fill="none" stroke="black" d="M2475.18,-88.9454C2652.04,-88.4527 3644.46,-83.577 3943.1,-36 3947.54,-35.2922 3952.12,-34.3558 3956.67,-33.2853"/>
<polygon fill="black" stroke="black" points="3957.71,-36.6325 3966.53,-30.7645 3955.98,-29.8507 3957.71,-36.6325"/>
</g>
<!-- std.traits -->
<g id="node30" class="node"><title>std.traits</title>
<ellipse fill="none" stroke="black" cx="4112.1" cy="-18" rx="42.4939" ry="18"/>
<text text-anchor="middle" x="4112.1" y="-14.3" font-family="Times New Roman,serif" font-size="14.00">std.traits</text>
</g>
<!-- app&#45;&gt;std.traits -->
<g id="edge29" class="edge"><title>app&#45;&gt;std.traits</title>
<path fill="none" stroke="black" d="M2475.23,-89.1774C2660.27,-90.227 3738.76,-93.7557 4061.1,-36 4064.71,-35.3529 4068.41,-34.5036 4072.1,-33.5296"/>
<polygon fill="black" stroke="black" points="4073.11,-36.8801 4081.72,-30.7128 4071.14,-30.1617 4073.11,-36.8801"/>
</g>
<!-- std.typecons -->
<g id="node31" class="node"><title>std.typecons</title>
<ellipse fill="none" stroke="black" cx="4230.1" cy="-18" rx="57.6901" ry="18"/>
<text text-anchor="middle" x="4230.1" y="-14.3" font-family="Times New Roman,serif" font-size="14.00">std.typecons</text>
</g>
<!-- app&#45;&gt;std.typecons -->
<g id="edge30" class="edge"><title>app&#45;&gt;std.typecons</title>
<path fill="none" stroke="black" d="M2475.34,-88.9698C2667.2,-88.6357 3817.41,-84.6054 4163.1,-36 4168.44,-35.2481 4173.98,-34.2352 4179.48,-33.0764"/>
<polygon fill="black" stroke="black" points="4180.29,-36.48 4189.27,-30.8577 4178.75,-29.6529 4180.29,-36.48"/>
</g>
<!-- std.uni -->
<g id="node32" class="node"><title>std.uni</title>
<ellipse fill="none" stroke="black" cx="4341.1" cy="-18" rx="35.194" ry="18"/>
<text text-anchor="middle" x="4341.1" y="-14.3" font-family="Times New Roman,serif" font-size="14.00">std.uni</text>
</g>
<!-- app&#45;&gt;std.uni -->
<g id="edge31" class="edge"><title>app&#45;&gt;std.uni</title>
<path fill="none" stroke="black" d="M2475.07,-88.7795C2689.19,-86.9567 4110.86,-73.4954 4297.1,-36 4299.96,-35.4242 4302.87,-34.6794 4305.77,-33.8239"/>
<polygon fill="black" stroke="black" points="4307.11,-37.0685 4315.48,-30.5728 4304.88,-30.4311 4307.11,-37.0685"/>
</g>
<!-- std.utf -->
<g id="node33" class="node"><title>std.utf</title>
<ellipse fill="none" stroke="black" cx="4429.1" cy="-18" rx="34.394" ry="18"/>
<text text-anchor="middle" x="4429.1" y="-14.3" font-family="Times New Roman,serif" font-size="14.00">std.utf</text>
</g>
<!-- app&#45;&gt;std.utf -->
<g id="edge32" class="edge"><title>app&#45;&gt;std.utf</title>
<path fill="none" stroke="black" d="M2475.29,-88.8155C2695.94,-87.2455 4189.67,-75.2136 4385.1,-36 4388.13,-35.3913 4391.23,-34.592 4394.3,-33.6716"/>
<polygon fill="black" stroke="black" points="4395.6,-36.9282 4403.94,-30.4045 4393.35,-30.2984 4395.6,-36.9282"/>
</g>
</g>
</svg>
