<?xml version="1.0" encoding="UTF-8" standalone="no"?>
<!DOCTYPE svg PUBLIC "-//W3C//DTD SVG 1.1//EN"
 "http://www.w3.org/Graphics/SVG/1.1/DTD/svg11.dtd">
<!-- Generated by graphviz version 2.38.0 (20140413.2041)
 -->
<!-- Title: %3 Pages: 1 -->
<svg width="4257pt" height="548pt"
 viewBox="0.00 0.00 4257.10 548.00" xmlns="http://www.w3.org/2000/svg" xmlns:xlink="http://www.w3.org/1999/xlink">
<g id="graph0" class="graph" transform="scale(1 1) rotate(0) translate(4 544)">
<title>%3</title>
<polygon fill="white" stroke="none" points="-4,4 -4,-544 4253.1,-544 4253.1,4 -4,4"/>
<!-- core.atomic -->
<g id="node1" class="node"><title>core.atomic</title>
<ellipse fill="none" stroke="black" cx="1573" cy="-18" rx="53.8905" ry="18"/>
<text text-anchor="middle" x="1573" y="-14.3" font-family="Times New Roman,serif" font-size="14.00">core.atomic</text>
</g>
<!-- core.internal.traits -->
<g id="node2" class="node"><title>core.internal.traits</title>
<ellipse fill="none" stroke="black" cx="2786" cy="-90" rx="75.2868" ry="18"/>
<text text-anchor="middle" x="2786" y="-86.3" font-family="Times New Roman,serif" font-size="14.00">core.internal.traits</text>
</g>
<!-- core.stdc.string -->
<g id="node3" class="node"><title>core.stdc.string</title>
<ellipse fill="none" stroke="black" cx="1496" cy="-90" rx="67.6881" ry="18"/>
<text text-anchor="middle" x="1496" y="-86.3" font-family="Times New Roman,serif" font-size="14.00">core.stdc.string</text>
</g>
<!-- core.sync.condition -->
<g id="node4" class="node"><title>core.sync.condition</title>
<ellipse fill="none" stroke="black" cx="1324" cy="-18" rx="83.3857" ry="18"/>
<text text-anchor="middle" x="1324" y="-14.3" font-family="Times New Roman,serif" font-size="14.00">core.sync.condition</text>
</g>
<!-- core.sync.mutex -->
<g id="node5" class="node"><title>core.sync.mutex</title>
<ellipse fill="none" stroke="black" cx="1763" cy="-18" rx="70.6878" ry="18"/>
<text text-anchor="middle" x="1763" y="-14.3" font-family="Times New Roman,serif" font-size="14.00">core.sync.mutex</text>
</g>
<!-- core.thread -->
<g id="node6" class="node"><title>core.thread</title>
<ellipse fill="none" stroke="black" cx="3456" cy="-234" rx="51.9908" ry="18"/>
<text text-anchor="middle" x="3456" y="-230.3" font-family="Times New Roman,serif" font-size="14.00">core.thread</text>
</g>
<!-- core.time -->
<g id="node7" class="node"><title>core.time</title>
<ellipse fill="none" stroke="black" cx="3570" cy="-234" rx="44.393" ry="18"/>
<text text-anchor="middle" x="3570" y="-230.3" font-family="Times New Roman,serif" font-size="14.00">core.time</text>
</g>
<!-- rx -->
<g id="node8" class="node"><title>rx</title>
<ellipse fill="none" stroke="black" cx="1901" cy="-522" rx="27" ry="18"/>
<text text-anchor="middle" x="1901" y="-518.3" font-family="Times New Roman,serif" font-size="14.00">rx</text>
</g>
<!-- rx.algorithm -->
<g id="node9" class="node"><title>rx.algorithm</title>
<ellipse fill="none" stroke="black" cx="2016" cy="-450" rx="53.8905" ry="18"/>
<text text-anchor="middle" x="2016" y="-446.3" font-family="Times New Roman,serif" font-size="14.00">rx.algorithm</text>
</g>
<!-- rx&#45;&gt;rx.algorithm -->
<g id="edge1" class="edge"><title>rx&#45;&gt;rx.algorithm</title>
<path fill="none" stroke="black" d="M1920.25,-509.284C1937.18,-498.977 1962.21,-483.74 1982.44,-471.431"/>
<polygon fill="black" stroke="black" points="1984.33,-474.373 1991.06,-466.184 1980.69,-468.393 1984.33,-474.373"/>
</g>
<!-- rx.disposable -->
<g id="node22" class="node"><title>rx.disposable</title>
<ellipse fill="none" stroke="black" cx="1768" cy="-162" rx="59.5901" ry="18"/>
<text text-anchor="middle" x="1768" y="-158.3" font-family="Times New Roman,serif" font-size="14.00">rx.disposable</text>
</g>
<!-- rx&#45;&gt;rx.disposable -->
<g id="edge2" class="edge"><title>rx&#45;&gt;rx.disposable</title>
<path fill="none" stroke="black" d="M1874,-520.741C1698.79,-518.758 721.757,-502.981 447,-396 395.629,-375.998 371.248,-373.006 346,-324 321.601,-276.642 351.045,-241.166 398,-216 455.738,-185.056 1427.5,-168.136 1698.39,-164.006"/>
<polygon fill="black" stroke="black" points="1698.54,-167.504 1708.49,-163.853 1698.44,-160.505 1698.54,-167.504"/>
</g>
<!-- rx.observable -->
<g id="node23" class="node"><title>rx.observable</title>
<ellipse fill="none" stroke="black" cx="1768" cy="-234" rx="59.5901" ry="18"/>
<text text-anchor="middle" x="1768" y="-230.3" font-family="Times New Roman,serif" font-size="14.00">rx.observable</text>
</g>
<!-- rx&#45;&gt;rx.observable -->
<g id="edge3" class="edge"><title>rx&#45;&gt;rx.observable</title>
<path fill="none" stroke="black" d="M1892.22,-504.921C1874.22,-471.656 1832.27,-392.646 1802,-324 1792.86,-303.282 1783.78,-279.272 1777.3,-261.415"/>
<polygon fill="black" stroke="black" points="1780.57,-260.165 1773.89,-251.936 1773.98,-262.53 1780.57,-260.165"/>
</g>
<!-- rx.observer -->
<g id="node24" class="node"><title>rx.observer</title>
<ellipse fill="none" stroke="black" cx="1974" cy="-162" rx="51.9908" ry="18"/>
<text text-anchor="middle" x="1974" y="-158.3" font-family="Times New Roman,serif" font-size="14.00">rx.observer</text>
</g>
<!-- rx&#45;&gt;rx.observer -->
<g id="edge4" class="edge"><title>rx&#45;&gt;rx.observer</title>
<path fill="none" stroke="black" d="M1928.29,-520.791C2186.43,-518.644 4189,-498.147 4189,-379 4189,-379 4189,-379 4189,-305 4189,-264.553 4201.2,-241.739 4170,-216 4129.52,-182.603 2333.45,-181.951 2281,-180 2195.35,-176.814 2096.37,-170.937 2034.48,-166.998"/>
<polygon fill="black" stroke="black" points="2034.7,-163.505 2024.5,-166.359 2034.25,-170.491 2034.7,-163.505"/>
</g>
<!-- rx.range -->
<g id="node25" class="node"><title>rx.range</title>
<ellipse fill="none" stroke="black" cx="496" cy="-378" rx="40.0939" ry="18"/>
<text text-anchor="middle" x="496" y="-374.3" font-family="Times New Roman,serif" font-size="14.00">rx.range</text>
</g>
<!-- rx&#45;&gt;rx.range -->
<g id="edge5" class="edge"><title>rx&#45;&gt;rx.range</title>
<path fill="none" stroke="black" d="M1874.5,-518.321C1704.85,-501.176 771.128,-406.807 545.223,-383.975"/>
<polygon fill="black" stroke="black" points="545.308,-380.466 535.006,-382.942 544.604,-387.43 545.308,-380.466"/>
</g>
<!-- rx.scheduler -->
<g id="node26" class="node"><title>rx.scheduler</title>
<ellipse fill="none" stroke="black" cx="3667" cy="-306" rx="55.4913" ry="18"/>
<text text-anchor="middle" x="3667" y="-302.3" font-family="Times New Roman,serif" font-size="14.00">rx.scheduler</text>
</g>
<!-- rx&#45;&gt;rx.scheduler -->
<g id="edge6" class="edge"><title>rx&#45;&gt;rx.scheduler</title>
<path fill="none" stroke="black" d="M1928.34,-521.13C2077.86,-521.345 2811.22,-515.966 3394,-396 3477.43,-378.826 3571.11,-344.93 3624.18,-324.284"/>
<polygon fill="black" stroke="black" points="3625.58,-327.497 3633.61,-320.59 3623.02,-320.98 3625.58,-327.497"/>
</g>
<!-- rx.subject -->
<g id="node27" class="node"><title>rx.subject</title>
<ellipse fill="none" stroke="black" cx="3222" cy="-306" rx="46.2923" ry="18"/>
<text text-anchor="middle" x="3222" y="-302.3" font-family="Times New Roman,serif" font-size="14.00">rx.subject</text>
</g>
<!-- rx&#45;&gt;rx.subject -->
<g id="edge7" class="edge"><title>rx&#45;&gt;rx.subject</title>
<path fill="none" stroke="black" d="M1927.89,-519.268C2045.68,-511.351 2527.53,-475.517 2915,-396 3010.84,-376.332 3120.28,-341.543 3179.13,-321.789"/>
<polygon fill="black" stroke="black" points="3180.47,-325.031 3188.82,-318.517 3178.23,-318.399 3180.47,-325.031"/>
</g>
<!-- rx.util -->
<g id="node28" class="node"><title>rx.util</title>
<ellipse fill="none" stroke="black" cx="1324" cy="-90" rx="31.3957" ry="18"/>
<text text-anchor="middle" x="1324" y="-86.3" font-family="Times New Roman,serif" font-size="14.00">rx.util</text>
</g>
<!-- rx&#45;&gt;rx.util -->
<g id="edge8" class="edge"><title>rx&#45;&gt;rx.util</title>
<path fill="none" stroke="black" d="M1873.76,-520.445C1641.34,-515.539 0,-477.407 0,-379 0,-379 0,-379 0,-305 0,-216.806 38.3982,-185.906 116,-144 220.399,-87.6227 1082.53,-89.4866 1282.63,-90.6924"/>
<polygon fill="black" stroke="black" points="1282.71,-94.1928 1292.73,-90.7561 1282.75,-87.193 1282.71,-94.1928"/>
</g>
<!-- rx.algorithm.all -->
<g id="node10" class="node"><title>rx.algorithm.all</title>
<ellipse fill="none" stroke="black" cx="1955" cy="-306" rx="64.189" ry="18"/>
<text text-anchor="middle" x="1955" y="-302.3" font-family="Times New Roman,serif" font-size="14.00">rx.algorithm.all</text>
</g>
<!-- rx.algorithm&#45;&gt;rx.algorithm.all -->
<g id="edge9" class="edge"><title>rx.algorithm&#45;&gt;rx.algorithm.all</title>
<path fill="none" stroke="black" d="M2008.76,-432.153C1998.32,-407.838 1978.91,-362.66 1966.49,-333.753"/>
<polygon fill="black" stroke="black" points="1969.58,-332.074 1962.42,-324.268 1963.15,-334.837 1969.58,-332.074"/>
</g>
<!-- rx.algorithm.any -->
<g id="node11" class="node"><title>rx.algorithm.any</title>
<ellipse fill="none" stroke="black" cx="2107" cy="-306" rx="69.5877" ry="18"/>
<text text-anchor="middle" x="2107" y="-302.3" font-family="Times New Roman,serif" font-size="14.00">rx.algorithm.any</text>
</g>
<!-- rx.algorithm&#45;&gt;rx.algorithm.any -->
<g id="edge10" class="edge"><title>rx.algorithm&#45;&gt;rx.algorithm.any</title>
<path fill="none" stroke="black" d="M2026.8,-432.153C2042.6,-407.493 2072.15,-361.374 2090.64,-332.533"/>
<polygon fill="black" stroke="black" points="2093.77,-334.133 2096.22,-323.825 2087.88,-330.356 2093.77,-334.133"/>
</g>
<!-- rx.algorithm.buffer -->
<g id="node12" class="node"><title>rx.algorithm.buffer</title>
<ellipse fill="none" stroke="black" cx="2664" cy="-306" rx="78.7863" ry="18"/>
<text text-anchor="middle" x="2664" y="-302.3" font-family="Times New Roman,serif" font-size="14.00">rx.algorithm.buffer</text>
</g>
<!-- rx.algorithm&#45;&gt;rx.algorithm.buffer -->
<g id="edge11" class="edge"><title>rx.algorithm&#45;&gt;rx.algorithm.buffer</title>
<path fill="none" stroke="black" d="M2061.01,-439.841C2111.82,-429.448 2196.93,-411.876 2270,-396 2386.9,-370.602 2522.96,-339.533 2600.73,-321.628"/>
<polygon fill="black" stroke="black" points="2601.89,-324.953 2610.85,-319.298 2600.32,-318.132 2601.89,-324.953"/>
</g>
<!-- rx.algorithm.debounce -->
<g id="node13" class="node"><title>rx.algorithm.debounce</title>
<ellipse fill="none" stroke="black" cx="3293" cy="-378" rx="92.0841" ry="18"/>
<text text-anchor="middle" x="3293" y="-374.3" font-family="Times New Roman,serif" font-size="14.00">rx.algorithm.debounce</text>
</g>
<!-- rx.algorithm&#45;&gt;rx.algorithm.debounce -->
<g id="edge12" class="edge"><title>rx.algorithm&#45;&gt;rx.algorithm.debounce</title>
<path fill="none" stroke="black" d="M2068.84,-446.103C2263.25,-435.447 2940.62,-398.316 3195.24,-384.359"/>
<polygon fill="black" stroke="black" points="3195.79,-387.834 3205.59,-383.792 3195.41,-380.844 3195.79,-387.834"/>
</g>
<!-- rx.algorithm.filter -->
<g id="node14" class="node"><title>rx.algorithm.filter</title>
<ellipse fill="none" stroke="black" cx="1148" cy="-306" rx="72.5877" ry="18"/>
<text text-anchor="middle" x="1148" y="-302.3" font-family="Times New Roman,serif" font-size="14.00">rx.algorithm.filter</text>
</g>
<!-- rx.algorithm&#45;&gt;rx.algorithm.filter -->
<g id="edge13" class="edge"><title>rx.algorithm&#45;&gt;rx.algorithm.filter</title>
<path fill="none" stroke="black" d="M1963.01,-446.079C1869.27,-440.349 1668.29,-425.538 1501,-396 1393.63,-377.042 1270.66,-343.218 1201.88,-323.173"/>
<polygon fill="black" stroke="black" points="1202.71,-319.77 1192.13,-320.319 1200.75,-326.488 1202.71,-319.77"/>
</g>
<!-- rx.algorithm.fold -->
<g id="node15" class="node"><title>rx.algorithm.fold</title>
<ellipse fill="none" stroke="black" cx="1650" cy="-306" rx="71.4873" ry="18"/>
<text text-anchor="middle" x="1650" y="-302.3" font-family="Times New Roman,serif" font-size="14.00">rx.algorithm.fold</text>
</g>
<!-- rx.algorithm&#45;&gt;rx.algorithm.fold -->
<g id="edge14" class="edge"><title>rx.algorithm&#45;&gt;rx.algorithm.fold</title>
<path fill="none" stroke="black" d="M1982.22,-435.896C1916.6,-410.433 1771.74,-354.234 1696.86,-325.182"/>
<polygon fill="black" stroke="black" points="1697.8,-321.792 1687.21,-321.438 1695.27,-328.319 1697.8,-321.792"/>
</g>
<!-- rx.algorithm.groupby -->
<g id="node16" class="node"><title>rx.algorithm.groupby</title>
<ellipse fill="none" stroke="black" cx="2786" cy="-378" rx="87.1846" ry="18"/>
<text text-anchor="middle" x="2786" y="-374.3" font-family="Times New Roman,serif" font-size="14.00">rx.algorithm.groupby</text>
</g>
<!-- rx.algorithm&#45;&gt;rx.algorithm.groupby -->
<g id="edge15" class="edge"><title>rx.algorithm&#45;&gt;rx.algorithm.groupby</title>
<path fill="none" stroke="black" d="M2067.68,-444.804C2172.59,-436.218 2418.07,-415.779 2624,-396 2648.86,-393.612 2675.86,-390.848 2700.55,-388.252"/>
<polygon fill="black" stroke="black" points="2701.04,-391.72 2710.61,-387.189 2700.3,-384.758 2701.04,-391.72"/>
</g>
<!-- rx.algorithm.map -->
<g id="node17" class="node"><title>rx.algorithm.map</title>
<ellipse fill="none" stroke="black" cx="2947" cy="-306" rx="72.2875" ry="18"/>
<text text-anchor="middle" x="2947" y="-302.3" font-family="Times New Roman,serif" font-size="14.00">rx.algorithm.map</text>
</g>
<!-- rx.algorithm&#45;&gt;rx.algorithm.map -->
<g id="edge16" class="edge"><title>rx.algorithm&#45;&gt;rx.algorithm.map</title>
<path fill="none" stroke="black" d="M2069.75,-448.351C2247.77,-445.842 2810.93,-434.878 2882,-396 2907.18,-382.224 2925.17,-354.029 2935.75,-333.046"/>
<polygon fill="black" stroke="black" points="2938.93,-334.521 2940.09,-323.99 2932.61,-331.497 2938.93,-334.521"/>
</g>
<!-- rx.algorithm.merge -->
<g id="node18" class="node"><title>rx.algorithm.merge</title>
<ellipse fill="none" stroke="black" cx="1482" cy="-306" rx="78.7863" ry="18"/>
<text text-anchor="middle" x="1482" y="-302.3" font-family="Times New Roman,serif" font-size="14.00">rx.algorithm.merge</text>
</g>
<!-- rx.algorithm&#45;&gt;rx.algorithm.merge -->
<g id="edge17" class="edge"><title>rx.algorithm&#45;&gt;rx.algorithm.merge</title>
<path fill="none" stroke="black" d="M1971.72,-439.6C1925.27,-429.551 1850.23,-412.786 1786,-396 1698.05,-373.014 1596.93,-342.606 1536.32,-323.944"/>
<polygon fill="black" stroke="black" points="1537.17,-320.543 1526.59,-320.939 1535.11,-327.232 1537.17,-320.543"/>
</g>
<!-- rx.algorithm.scan -->
<g id="node19" class="node"><title>rx.algorithm.scan</title>
<ellipse fill="none" stroke="black" cx="1312" cy="-306" rx="73.387" ry="18"/>
<text text-anchor="middle" x="1312" y="-302.3" font-family="Times New Roman,serif" font-size="14.00">rx.algorithm.scan</text>
</g>
<!-- rx.algorithm&#45;&gt;rx.algorithm.scan -->
<g id="edge18" class="edge"><title>rx.algorithm&#45;&gt;rx.algorithm.scan</title>
<path fill="none" stroke="black" d="M1965.76,-443.288C1896.08,-434.977 1766.3,-418.102 1657,-396 1553.63,-375.097 1434.92,-342.56 1367.15,-323.157"/>
<polygon fill="black" stroke="black" points="1367.71,-319.675 1357.13,-320.276 1365.77,-326.402 1367.71,-319.675"/>
</g>
<!-- rx.algorithm.tee -->
<g id="node20" class="node"><title>rx.algorithm.tee</title>
<ellipse fill="none" stroke="black" cx="2338" cy="-306" rx="66.8882" ry="18"/>
<text text-anchor="middle" x="2338" y="-302.3" font-family="Times New Roman,serif" font-size="14.00">rx.algorithm.tee</text>
</g>
<!-- rx.algorithm&#45;&gt;rx.algorithm.tee -->
<g id="edge19" class="edge"><title>rx.algorithm&#45;&gt;rx.algorithm.tee</title>
<path fill="none" stroke="black" d="M2047.17,-435.255C2105.08,-409.715 2229.37,-354.904 2295.15,-325.898"/>
<polygon fill="black" stroke="black" points="2296.67,-329.05 2304.41,-321.813 2293.85,-322.645 2296.67,-329.05"/>
</g>
<!-- rx.algorithm.uniq -->
<g id="node21" class="node"><title>rx.algorithm.uniq</title>
<ellipse fill="none" stroke="black" cx="2495" cy="-306" rx="72.2875" ry="18"/>
<text text-anchor="middle" x="2495" y="-302.3" font-family="Times New Roman,serif" font-size="14.00">rx.algorithm.uniq</text>
</g>
<!-- rx.algorithm&#45;&gt;rx.algorithm.uniq -->
<g id="edge20" class="edge"><title>rx.algorithm&#45;&gt;rx.algorithm.uniq</title>
<path fill="none" stroke="black" d="M2055.2,-437.38C2140.53,-412.084 2343.24,-351.99 2440.76,-323.08"/>
<polygon fill="black" stroke="black" points="2441.83,-326.413 2450.42,-320.215 2439.84,-319.701 2441.83,-326.413"/>
</g>
<!-- rx.algorithm.combineLatest -->
<g id="node37" class="node"><title>rx.algorithm.combineLatest</title>
<ellipse fill="#e6ffed" stroke="#bef5cb" cx="947" cy="-306" rx="109.681" ry="18"/>
<text text-anchor="middle" x="947" y="-302.3" font-family="Times New Roman,serif" font-size="14.00">rx.algorithm.combineLatest</text>
</g>
<!-- rx.algorithm&#45;&gt;rx.algorithm.combineLatest -->
<g id="edge127" class="edge"><title>rx.algorithm&#45;&gt;rx.algorithm.combineLatest</title>
<path fill="none" stroke="#2cbe4e" d="M1962.32,-447.406C1847.66,-443.428 1570.54,-430.753 1341,-396 1223.22,-378.168 1088.26,-344.813 1010.79,-324.388"/>
<polygon fill="#2cbe4e" stroke="#2cbe4e" points="1011.27,-320.895 1000.7,-321.717 1009.48,-327.661 1011.27,-320.895"/>
</g>
<!-- rx.algorithm.all&#45;&gt;rx.disposable -->
<g id="edge21" class="edge"><title>rx.algorithm.all&#45;&gt;rx.disposable</title>
<path fill="none" stroke="black" d="M1941.95,-288.318C1926.34,-269.142 1898.71,-237.546 1870,-216 1851.98,-202.474 1830.01,-190.568 1811.08,-181.485"/>
<polygon fill="black" stroke="black" points="1812.32,-178.202 1801.78,-177.129 1809.35,-184.541 1812.32,-178.202"/>
</g>
<!-- rx.algorithm.all&#45;&gt;rx.observable -->
<g id="edge22" class="edge"><title>rx.algorithm.all&#45;&gt;rx.observable</title>
<path fill="none" stroke="black" d="M1918.05,-291.17C1888.06,-279.94 1845.61,-264.053 1813.52,-252.039"/>
<polygon fill="black" stroke="black" points="1814.51,-248.672 1803.92,-248.444 1812.05,-255.228 1814.51,-248.672"/>
</g>
<!-- rx.algorithm.all&#45;&gt;rx.observer -->
<g id="edge23" class="edge"><title>rx.algorithm.all&#45;&gt;rx.observer</title>
<path fill="none" stroke="black" d="M1957.29,-287.871C1960.53,-263.67 1966.48,-219.211 1970.33,-190.393"/>
<polygon fill="black" stroke="black" points="1973.84,-190.565 1971.7,-180.189 1966.9,-189.637 1973.84,-190.565"/>
</g>
<!-- rx.algorithm.all&#45;&gt;rx.util -->
<g id="edge24" class="edge"><title>rx.algorithm.all&#45;&gt;rx.util</title>
<path fill="none" stroke="black" d="M1931.33,-289.011C1916.39,-278.736 1896.8,-264.936 1880,-252 1860.25,-236.795 1859.42,-226.892 1837,-216 1767.14,-182.06 1740.9,-200.525 1666,-180 1618.01,-166.851 1607.9,-157.47 1560,-144 1491.6,-124.764 1410.52,-107.802 1363.4,-98.5125"/>
<polygon fill="black" stroke="black" points="1363.8,-95.0241 1353.32,-96.5386 1362.46,-101.894 1363.8,-95.0241"/>
</g>
<!-- std.functional -->
<g id="node32" class="node"><title>std.functional</title>
<ellipse fill="none" stroke="black" cx="2350" cy="-162" rx="59.5901" ry="18"/>
<text text-anchor="middle" x="2350" y="-158.3" font-family="Times New Roman,serif" font-size="14.00">std.functional</text>
</g>
<!-- rx.algorithm.all&#45;&gt;std.functional -->
<g id="edge25" class="edge"><title>rx.algorithm.all&#45;&gt;std.functional</title>
<path fill="none" stroke="black" d="M1992.87,-291.384C2065.56,-265.256 2224.38,-208.158 2303.41,-179.747"/>
<polygon fill="black" stroke="black" points="2304.88,-182.941 2313.1,-176.264 2302.51,-176.353 2304.88,-182.941"/>
</g>
<!-- std.range -->
<g id="node34" class="node"><title>std.range</title>
<ellipse fill="none" stroke="black" cx="2084" cy="-90" rx="44.393" ry="18"/>
<text text-anchor="middle" x="2084" y="-86.3" font-family="Times New Roman,serif" font-size="14.00">std.range</text>
</g>
<!-- rx.algorithm.all&#45;&gt;std.range -->
<g id="edge26" class="edge"><title>rx.algorithm.all&#45;&gt;std.range</title>
<path fill="none" stroke="black" d="M1966.23,-288.238C1982.04,-264.456 2011.57,-219.424 2035,-180 2047.39,-159.147 2060.61,-135.013 2070.19,-117.142"/>
<polygon fill="black" stroke="black" points="2073.5,-118.389 2075.11,-107.918 2067.32,-115.094 2073.5,-118.389"/>
</g>
<!-- rx.algorithm.any&#45;&gt;rx.disposable -->
<g id="edge27" class="edge"><title>rx.algorithm.any&#45;&gt;rx.disposable</title>
<path fill="none" stroke="black" d="M2073.95,-290.128C2033.73,-272.139 1963.69,-241.141 1903,-216 1873.17,-203.641 1839.34,-190.363 1813.01,-180.189"/>
<polygon fill="black" stroke="black" points="1814.26,-176.92 1803.67,-176.589 1811.75,-183.452 1814.26,-176.92"/>
</g>
<!-- rx.algorithm.any&#45;&gt;rx.observable -->
<g id="edge28" class="edge"><title>rx.algorithm.any&#45;&gt;rx.observable</title>
<path fill="none" stroke="black" d="M2055.6,-293.854C2046.41,-291.886 2036.93,-289.87 2028,-288 1958.74,-273.49 1878.99,-257.312 1826.28,-246.691"/>
<polygon fill="black" stroke="black" points="1826.92,-243.251 1816.43,-244.709 1825.54,-250.114 1826.92,-243.251"/>
</g>
<!-- rx.algorithm.any&#45;&gt;rx.observer -->
<g id="edge29" class="edge"><title>rx.algorithm.any&#45;&gt;rx.observer</title>
<path fill="none" stroke="black" d="M2091.48,-288.433C2068.06,-263.422 2023.54,-215.891 1996.54,-187.062"/>
<polygon fill="black" stroke="black" points="1998.81,-184.368 1989.42,-179.462 1993.7,-189.153 1998.81,-184.368"/>
</g>
<!-- rx.algorithm.any&#45;&gt;rx.util -->
<g id="edge30" class="edge"><title>rx.algorithm.any&#45;&gt;rx.util</title>
<path fill="none" stroke="black" d="M2057.22,-293.208C2002.61,-280.043 1920.96,-259.59 1908,-252 1888.74,-240.721 1892.56,-226.733 1873,-216 1803.76,-178.018 1773.61,-205.876 1699,-180 1665.2,-168.277 1660.99,-155.17 1627,-144 1537.87,-114.709 1511.4,-124.263 1419,-108 1400.83,-104.801 1380.7,-101.208 1363.68,-98.152"/>
<polygon fill="black" stroke="black" points="1363.98,-94.6506 1353.52,-96.327 1362.74,-101.54 1363.98,-94.6506"/>
</g>
<!-- rx.algorithm.any&#45;&gt;std.functional -->
<g id="edge31" class="edge"><title>rx.algorithm.any&#45;&gt;std.functional</title>
<path fill="none" stroke="black" d="M2168.56,-297.507C2205.89,-290.541 2252.91,-277.239 2288,-252 2310.33,-235.935 2327.37,-209.221 2337.88,-189.244"/>
<polygon fill="black" stroke="black" points="2341.13,-190.56 2342.51,-180.055 2334.88,-187.41 2341.13,-190.56"/>
</g>
<!-- rx.algorithm.any&#45;&gt;std.range -->
<g id="edge32" class="edge"><title>rx.algorithm.any&#45;&gt;std.range</title>
<path fill="none" stroke="black" d="M2167.41,-296.933C2278.15,-279.772 2495.61,-233.679 2419,-144 2383.53,-102.483 2223.64,-93.3041 2138.21,-91.3979"/>
<polygon fill="black" stroke="black" points="2138.24,-87.898 2128.17,-91.1998 2138.1,-94.8966 2138.24,-87.898"/>
</g>
<!-- rx.algorithm.buffer&#45;&gt;rx.disposable -->
<g id="edge33" class="edge"><title>rx.algorithm.buffer&#45;&gt;rx.disposable</title>
<path fill="none" stroke="black" d="M2614.93,-291.889C2540.77,-272.537 2395.45,-236.417 2270,-216 2112.6,-190.384 2071.53,-197.285 1913,-180 1886.65,-177.127 1857.62,-173.764 1832.51,-170.79"/>
<polygon fill="black" stroke="black" points="1832.72,-167.29 1822.37,-169.586 1831.89,-174.241 1832.72,-167.29"/>
</g>
<!-- rx.algorithm.buffer&#45;&gt;rx.observable -->
<g id="edge34" class="edge"><title>rx.algorithm.buffer&#45;&gt;rx.observable</title>
<path fill="none" stroke="black" d="M2608.31,-293.149C2597.62,-291.186 2586.49,-289.352 2576,-288 2304.13,-252.963 1977.63,-240.551 1837.47,-236.626"/>
<polygon fill="black" stroke="black" points="1837.39,-233.122 1827.3,-236.347 1837.2,-240.12 1837.39,-233.122"/>
</g>
<!-- rx.algorithm.buffer&#45;&gt;rx.observer -->
<g id="edge35" class="edge"><title>rx.algorithm.buffer&#45;&gt;rx.observer</title>
<path fill="none" stroke="black" d="M2624.76,-290.247C2570.66,-270.467 2469.77,-235.58 2381,-216 2259.63,-189.23 2114.72,-174.335 2034.68,-167.561"/>
<polygon fill="black" stroke="black" points="2034.55,-164.039 2024.3,-166.697 2033.97,-171.014 2034.55,-164.039"/>
</g>
<!-- rx.algorithm.buffer&#45;&gt;std.range -->
<g id="edge36" class="edge"><title>rx.algorithm.buffer&#45;&gt;std.range</title>
<path fill="none" stroke="black" d="M2740.61,-301.657C2816.65,-296.542 2925.57,-283.742 2952,-252 2962.24,-239.705 2960.7,-229.426 2952,-216 2909.36,-150.226 2866.99,-163.216 2791,-144 2667.6,-112.795 2282.12,-97.4178 2138.58,-92.6614"/>
<polygon fill="black" stroke="black" points="2138.38,-89.1529 2128.27,-92.3242 2138.15,-96.1492 2138.38,-89.1529"/>
</g>
<!-- rx.algorithm.debounce&#45;&gt;core.thread -->
<g id="edge37" class="edge"><title>rx.algorithm.debounce&#45;&gt;core.thread</title>
<path fill="none" stroke="black" d="M3329.93,-361.499C3349.11,-352.34 3372.2,-339.5 3390,-324 3411.04,-305.68 3429.42,-279.553 3441.41,-260.344"/>
<polygon fill="black" stroke="black" points="3444.4,-262.16 3446.61,-251.797 3438.42,-258.523 3444.4,-262.16"/>
</g>
<!-- rx.algorithm.debounce&#45;&gt;core.time -->
<g id="edge38" class="edge"><title>rx.algorithm.debounce&#45;&gt;core.time</title>
<path fill="none" stroke="black" d="M3334.03,-361.773C3359.49,-351.897 3392.63,-338.251 3421,-324 3463.21,-302.795 3509.61,-274.182 3539.23,-255.188"/>
<polygon fill="black" stroke="black" points="3541.35,-257.983 3547.86,-249.621 3537.56,-252.1 3541.35,-257.983"/>
</g>
<!-- rx.algorithm.debounce&#45;&gt;rx.disposable -->
<g id="edge39" class="edge"><title>rx.algorithm.debounce&#45;&gt;rx.disposable</title>
<path fill="none" stroke="black" d="M3203.69,-373.201C2957.13,-362.61 2283.64,-332.946 2262,-324 2239.9,-314.861 2242.24,-300.736 2222,-288 2217.55,-285.201 2052.04,-217.498 2047,-216 1974.55,-194.458 1888.83,-179.711 1831.7,-171.345"/>
<polygon fill="black" stroke="black" points="1832.13,-167.871 1821.73,-169.907 1831.13,-174.799 1832.13,-167.871"/>
</g>
<!-- rx.algorithm.debounce&#45;&gt;rx.observable -->
<g id="edge40" class="edge"><title>rx.algorithm.debounce&#45;&gt;rx.observable</title>
<path fill="none" stroke="black" d="M3204.01,-373.182C3120.77,-369.642 2992.97,-364.292 2882,-360 2770.9,-355.703 1985.07,-365.694 1882,-324 1859.83,-315.031 1860.64,-302.987 1842,-288 1828.46,-277.116 1812.91,-265.807 1799.56,-256.445"/>
<polygon fill="black" stroke="black" points="1801.36,-253.435 1791.16,-250.598 1797.37,-259.181 1801.36,-253.435"/>
</g>
<!-- rx.algorithm.debounce&#45;&gt;rx.observer -->
<g id="edge41" class="edge"><title>rx.algorithm.debounce&#45;&gt;rx.observer</title>
<path fill="none" stroke="black" d="M3204.21,-372.834C3116.94,-367.145 2980.55,-353.97 2866,-324 2825.12,-313.304 2818.31,-300.682 2778,-288 2509.44,-203.504 2171.72,-174.809 2035.31,-166.244"/>
<polygon fill="black" stroke="black" points="2035.26,-162.734 2025.07,-165.615 2034.83,-169.721 2035.26,-162.734"/>
</g>
<!-- rx.algorithm.debounce&#45;&gt;rx.scheduler -->
<g id="edge42" class="edge"><title>rx.algorithm.debounce&#45;&gt;rx.scheduler</title>
<path fill="none" stroke="black" d="M3357.29,-364.967C3428.51,-351.637 3542.24,-330.351 3610.27,-317.619"/>
<polygon fill="black" stroke="black" points="3611.18,-321.008 3620.37,-315.728 3609.9,-314.127 3611.18,-321.008"/>
</g>
<!-- rx.algorithm.debounce&#45;&gt;std.range -->
<g id="edge43" class="edge"><title>rx.algorithm.debounce&#45;&gt;std.range</title>
<path fill="none" stroke="black" d="M3296.86,-359.825C3302.95,-328.148 3311.11,-259.772 3280,-216 3243.97,-165.303 3219.51,-162.072 3160,-144 3061.93,-114.22 2342.99,-96.582 2138.26,-92.1252"/>
<polygon fill="black" stroke="black" points="2138.13,-88.6216 2128.06,-91.9047 2137.98,-95.62 2138.13,-88.6216"/>
</g>
<!-- rx.algorithm.filter&#45;&gt;rx.disposable -->
<g id="edge44" class="edge"><title>rx.algorithm.filter&#45;&gt;rx.disposable</title>
<path fill="none" stroke="black" d="M1172.77,-288.938C1205.81,-268.358 1266.81,-233.285 1324,-216 1452.13,-177.276 1609.08,-166.673 1697.9,-163.876"/>
<polygon fill="black" stroke="black" points="1698.23,-167.368 1708.12,-163.58 1698.03,-160.371 1698.23,-167.368"/>
</g>
<!-- rx.algorithm.filter&#45;&gt;rx.observable -->
<g id="edge45" class="edge"><title>rx.algorithm.filter&#45;&gt;rx.observable</title>
<path fill="none" stroke="black" d="M1199.9,-293.372C1209.86,-291.388 1220.23,-289.49 1230,-288 1397.97,-262.389 1597.41,-246.496 1699.82,-239.384"/>
<polygon fill="black" stroke="black" points="1700.29,-242.861 1710.03,-238.683 1699.81,-235.877 1700.29,-242.861"/>
</g>
<!-- rx.algorithm.filter&#45;&gt;rx.observer -->
<g id="edge46" class="edge"><title>rx.algorithm.filter&#45;&gt;rx.observer</title>
<path fill="none" stroke="black" d="M1191.44,-291.423C1221.31,-281.61 1261.63,-267.413 1296,-252 1326.49,-238.326 1329.96,-225.474 1362,-216 1565.03,-155.967 1626.33,-201.042 1837,-180 1863.08,-177.395 1891.89,-173.912 1916.33,-170.778"/>
<polygon fill="black" stroke="black" points="1917.04,-174.215 1926.51,-169.46 1916.14,-167.272 1917.04,-174.215"/>
</g>
<!-- rx.algorithm.filter&#45;&gt;rx.util -->
<g id="edge47" class="edge"><title>rx.algorithm.filter&#45;&gt;rx.util</title>
<path fill="none" stroke="black" d="M1096.25,-293.177C1058.31,-283.341 1011.51,-268.346 1000,-252 990.789,-238.917 990.949,-229.194 1000,-216 1064.61,-121.821 1211.01,-98.5767 1282.78,-92.8564"/>
<polygon fill="black" stroke="black" points="1283.08,-96.3435 1292.81,-92.1332 1282.58,-89.3616 1283.08,-96.3435"/>
</g>
<!-- rx.algorithm.filter&#45;&gt;std.functional -->
<g id="edge48" class="edge"><title>rx.algorithm.filter&#45;&gt;std.functional</title>
<path fill="none" stroke="black" d="M1195.53,-292.342C1279.82,-270.076 1452.42,-225.365 1514,-216 1588.83,-204.619 2094.85,-176.697 2281.24,-166.665"/>
<polygon fill="black" stroke="black" points="2281.67,-170.147 2291.47,-166.115 2281.29,-163.157 2281.67,-170.147"/>
</g>
<!-- rx.algorithm.filter&#45;&gt;std.range -->
<g id="edge49" class="edge"><title>rx.algorithm.filter&#45;&gt;std.range</title>
<path fill="none" stroke="black" d="M1094.18,-293.854C1071.22,-286.149 1046.63,-273.291 1033,-252 1024.37,-238.525 1022.75,-228.284 1033,-216 1111.31,-122.171 1943.3,-124.417 2031,-108 2034.68,-107.31 2038.47,-106.44 2042.24,-105.458"/>
<polygon fill="black" stroke="black" points="2043.44,-108.755 2052.1,-102.652 2041.52,-102.022 2043.44,-108.755"/>
</g>
<!-- rx.algorithm.fold&#45;&gt;rx.disposable -->
<g id="edge50" class="edge"><title>rx.algorithm.fold&#45;&gt;rx.disposable</title>
<path fill="none" stroke="black" d="M1648.82,-287.863C1648.38,-268.553 1650.45,-237.111 1666,-216 1678.5,-199.023 1698.06,-187.031 1716.71,-178.802"/>
<polygon fill="black" stroke="black" points="1718.15,-181.998 1726.06,-174.948 1715.48,-175.527 1718.15,-181.998"/>
</g>
<!-- rx.algorithm.fold&#45;&gt;rx.observable -->
<g id="edge51" class="edge"><title>rx.algorithm.fold&#45;&gt;rx.observable</title>
<path fill="none" stroke="black" d="M1676.78,-289.116C1693.45,-279.223 1715.08,-266.391 1733.1,-255.705"/>
<polygon fill="black" stroke="black" points="1735.33,-258.452 1742.14,-250.34 1731.75,-252.432 1735.33,-258.452"/>
</g>
<!-- rx.algorithm.fold&#45;&gt;rx.observer -->
<g id="edge52" class="edge"><title>rx.algorithm.fold&#45;&gt;rx.observer</title>
<path fill="none" stroke="black" d="M1654.55,-287.949C1660.94,-267.493 1674.61,-233.744 1699,-216 1707.85,-209.558 1840.45,-185.934 1918.23,-172.502"/>
<polygon fill="black" stroke="black" points="1919.1,-175.904 1928.36,-170.757 1917.91,-169.006 1919.1,-175.904"/>
</g>
<!-- rx.algorithm.groupby&#45;&gt;rx.disposable -->
<g id="edge53" class="edge"><title>rx.algorithm.groupby&#45;&gt;rx.disposable</title>
<path fill="none" stroke="black" d="M2700.09,-375.02C2565.52,-370.884 2311.85,-358.631 2229,-324 2206,-314.387 2207.84,-300.009 2186,-288 2093.62,-237.208 2061.05,-246.031 1960,-216 1913.45,-202.164 1860.18,-187.557 1821.58,-177.19"/>
<polygon fill="black" stroke="black" points="1822.17,-173.723 1811.6,-174.515 1820.36,-180.484 1822.17,-173.723"/>
</g>
<!-- rx.algorithm.groupby&#45;&gt;rx.observable -->
<g id="edge54" class="edge"><title>rx.algorithm.groupby&#45;&gt;rx.observable</title>
<path fill="none" stroke="black" d="M2699.42,-375.822C2481.92,-372.337 1924.53,-359.97 1849,-324 1820.45,-310.402 1797.34,-281.766 1783.22,-260.632"/>
<polygon fill="black" stroke="black" points="1786.09,-258.615 1777.73,-252.099 1780.2,-262.403 1786.09,-258.615"/>
</g>
<!-- rx.algorithm.groupby&#45;&gt;rx.observer -->
<g id="edge55" class="edge"><title>rx.algorithm.groupby&#45;&gt;rx.observer</title>
<path fill="none" stroke="black" d="M2784.36,-359.74C2781.46,-339.4 2773.53,-306.089 2752,-288 2643.43,-196.775 2200.45,-171.325 2035.91,-164.945"/>
<polygon fill="black" stroke="black" points="2035.61,-161.431 2025.48,-164.552 2035.34,-168.426 2035.61,-161.431"/>
</g>
<!-- rx.algorithm.groupby&#45;&gt;rx.subject -->
<g id="edge56" class="edge"><title>rx.algorithm.groupby&#45;&gt;rx.subject</title>
<path fill="none" stroke="black" d="M2862.51,-369.304C2938.86,-360.901 3059.28,-345.686 3162,-324 3166.97,-322.951 3172.13,-321.715 3177.25,-320.396"/>
<polygon fill="black" stroke="black" points="3178.23,-323.758 3186.98,-317.785 3176.42,-316.997 3178.23,-323.758"/>
</g>
<!-- rx.algorithm.groupby&#45;&gt;rx.util -->
<g id="edge57" class="edge"><title>rx.algorithm.groupby&#45;&gt;rx.util</title>
<path fill="none" stroke="black" d="M2853.64,-366.606C2921.32,-355.517 3016.98,-337.696 3028,-324 3046.49,-301.022 3017.83,-224.744 3009,-216 2916.48,-124.372 2853.98,-161.903 2725,-144 2149.85,-64.166 1996.63,-167.307 1419,-108 1400.5,-106.101 1380.19,-102.654 1363.12,-99.358"/>
<polygon fill="black" stroke="black" points="1363.44,-95.8533 1352.95,-97.3404 1362.07,-102.719 1363.44,-95.8533"/>
</g>
<!-- rx.algorithm.groupby&#45;&gt;std.functional -->
<g id="edge58" class="edge"><title>rx.algorithm.groupby&#45;&gt;std.functional</title>
<path fill="none" stroke="black" d="M2791.3,-360C2796.25,-340.525 2800.73,-308.649 2785,-288 2739.8,-228.679 2522.46,-188.603 2413.11,-171.848"/>
<polygon fill="black" stroke="black" points="2413.61,-168.383 2403.2,-170.347 2412.56,-175.304 2413.61,-168.383"/>
</g>
<!-- rx.algorithm.groupby&#45;&gt;std.range -->
<g id="edge59" class="edge"><title>rx.algorithm.groupby&#45;&gt;std.range</title>
<path fill="none" stroke="black" d="M2870.89,-373.898C3004.23,-368.143 3250.42,-353.606 3277,-324 3296.82,-301.924 3267.19,-227.334 3257,-216 3198.83,-151.324 3159.98,-162.565 3075,-144 2894.09,-104.48 2318.31,-93.9604 2138.31,-91.6028"/>
<polygon fill="black" stroke="black" points="2138.33,-88.1028 2128.28,-91.4745 2138.24,-95.1022 2138.33,-88.1028"/>
</g>
<!-- rx.algorithm.map&#45;&gt;rx.disposable -->
<g id="edge60" class="edge"><title>rx.algorithm.map&#45;&gt;rx.disposable</title>
<path fill="none" stroke="black" d="M2890.37,-294.808C2787.34,-276.586 2562.22,-238.256 2371,-216 2168.19,-192.394 2116.21,-199.892 1913,-180 1886.51,-177.407 1857.34,-174.08 1832.16,-171.058"/>
<polygon fill="black" stroke="black" points="1832.35,-167.555 1822,-169.829 1831.51,-174.504 1832.35,-167.555"/>
</g>
<!-- rx.algorithm.map&#45;&gt;rx.observable -->
<g id="edge61" class="edge"><title>rx.algorithm.map&#45;&gt;rx.observable</title>
<path fill="none" stroke="black" d="M2880.71,-298.671C2843,-295.21 2794.88,-291.023 2752,-288 2408.83,-263.806 1997.65,-244.92 1837.04,-237.93"/>
<polygon fill="black" stroke="black" points="1836.97,-234.424 1826.83,-237.487 1836.66,-241.417 1836.97,-234.424"/>
</g>
<!-- rx.algorithm.map&#45;&gt;rx.observer -->
<g id="edge62" class="edge"><title>rx.algorithm.map&#45;&gt;rx.observer</title>
<path fill="none" stroke="black" d="M2913.5,-289.954C2858.14,-265.145 2752.78,-218.158 2744,-216 2709.75,-207.584 2210.95,-177.159 2034.94,-166.622"/>
<polygon fill="black" stroke="black" points="2035,-163.119 2024.81,-166.016 2034.59,-170.107 2035,-163.119"/>
</g>
<!-- rx.algorithm.map&#45;&gt;rx.util -->
<g id="edge63" class="edge"><title>rx.algorithm.map&#45;&gt;rx.util</title>
<path fill="none" stroke="black" d="M2965.77,-288.419C2985.13,-269.337 3010.03,-237.83 2991,-216 2837.13,-39.4465 2702.34,-164.039 2469,-144 2003.77,-104.046 1883.34,-157.251 1419,-108 1400.51,-106.039 1380.2,-102.584 1363.12,-99.2982"/>
<polygon fill="black" stroke="black" points="1363.44,-95.7934 1352.95,-97.2893 1362.08,-102.661 1363.44,-95.7934"/>
</g>
<!-- rx.algorithm.map&#45;&gt;std.functional -->
<g id="edge64" class="edge"><title>rx.algorithm.map&#45;&gt;std.functional</title>
<path fill="none" stroke="black" d="M2960.06,-288.071C2973.58,-268.365 2990.35,-235.977 2972,-216 2935.27,-176.01 2574.9,-166.151 2420.09,-163.755"/>
<polygon fill="black" stroke="black" points="2419.8,-160.251 2409.75,-163.602 2419.7,-167.25 2419.8,-160.251"/>
</g>
<!-- rx.algorithm.map&#45;&gt;std.range -->
<g id="edge65" class="edge"><title>rx.algorithm.map&#45;&gt;std.range</title>
<path fill="none" stroke="black" d="M2958.22,-288.131C2969.02,-269.614 2982.06,-239.408 2970,-216 2944.75,-166.994 2920.91,-162.559 2869,-144 2734.15,-95.7883 2293.57,-90.9977 2138.55,-90.8424"/>
<polygon fill="black" stroke="black" points="2138.33,-87.3424 2128.32,-90.8386 2138.32,-94.3424 2138.33,-87.3424"/>
</g>
<!-- rx.algorithm.merge&#45;&gt;rx.disposable -->
<g id="edge66" class="edge"><title>rx.algorithm.merge&#45;&gt;rx.disposable</title>
<path fill="none" stroke="black" d="M1490.68,-288.103C1502,-267.803 1523.74,-234.21 1552,-216 1596.51,-187.317 1655.31,-174.155 1700.32,-168.117"/>
<polygon fill="black" stroke="black" points="1700.8,-171.584 1710.29,-166.865 1699.93,-164.639 1700.8,-171.584"/>
</g>
<!-- rx.algorithm.merge&#45;&gt;rx.observable -->
<g id="edge67" class="edge"><title>rx.algorithm.merge&#45;&gt;rx.observable</title>
<path fill="none" stroke="black" d="M1533.79,-292.324C1584.5,-279.913 1661.46,-261.075 1713.18,-248.417"/>
<polygon fill="black" stroke="black" points="1714.29,-251.748 1723.17,-245.971 1712.63,-244.949 1714.29,-251.748"/>
</g>
<!-- rx.algorithm.merge&#45;&gt;rx.observer -->
<g id="edge68" class="edge"><title>rx.algorithm.merge&#45;&gt;rx.observer</title>
<path fill="none" stroke="black" d="M1511.89,-289.274C1555.66,-266.463 1635.34,-225.838 1666,-216 1677.92,-212.177 1832.63,-186.336 1918.13,-172.199"/>
<polygon fill="black" stroke="black" points="1918.9,-175.619 1928.2,-170.535 1917.76,-168.712 1918.9,-175.619"/>
</g>
<!-- rx.algorithm.merge&#45;&gt;rx.util -->
<g id="edge69" class="edge"><title>rx.algorithm.merge&#45;&gt;rx.util</title>
<path fill="none" stroke="black" d="M1469.6,-288.208C1441.71,-250.427 1373.93,-158.63 1341.65,-114.911"/>
<polygon fill="black" stroke="black" points="1344.45,-112.805 1335.69,-106.839 1338.82,-116.963 1344.45,-112.805"/>
</g>
<!-- rx.algorithm.merge&#45;&gt;std.range -->
<g id="edge135" class="edge"><title>rx.algorithm.merge&#45;&gt;std.range</title>
<path fill="none" stroke="#2cbe4e" d="M1503.59,-288.624C1516.72,-278.429 1533.67,-264.852 1548,-252 1564.85,-236.894 1563.76,-226.114 1584,-216 1685.6,-165.235 1736.53,-232.96 1837,-180 1856.2,-169.879 1851.21,-154.868 1870,-144 1933.47,-107.287 1960.24,-127.217 2031,-108 2034.37,-107.086 2037.84,-106.092 2041.31,-105.058"/>
<polygon fill="#2cbe4e" stroke="#2cbe4e" points="2042.52,-108.349 2051.06,-102.074 2040.47,-101.655 2042.52,-108.349"/>
</g>
<!-- rx.algorithm.scan&#45;&gt;rx.disposable -->
<g id="edge70" class="edge"><title>rx.algorithm.scan&#45;&gt;rx.disposable</title>
<path fill="none" stroke="black" d="M1329.62,-288.516C1352.64,-267.986 1395.1,-233.491 1438,-216 1523.35,-181.204 1629.84,-169.184 1698.37,-165.072"/>
<polygon fill="black" stroke="black" points="1698.82,-168.552 1708.61,-164.499 1698.43,-161.563 1698.82,-168.552"/>
</g>
<!-- rx.algorithm.scan&#45;&gt;rx.observable -->
<g id="edge71" class="edge"><title>rx.algorithm.scan&#45;&gt;rx.observable</title>
<path fill="none" stroke="black" d="M1365.28,-293.442C1374.82,-291.518 1384.69,-289.623 1394,-288 1502.13,-269.149 1628.74,-252.292 1703.45,-242.88"/>
<polygon fill="black" stroke="black" points="1704.15,-246.319 1713.64,-241.602 1703.28,-239.374 1704.15,-246.319"/>
</g>
<!-- rx.algorithm.scan&#45;&gt;rx.observer -->
<g id="edge72" class="edge"><title>rx.algorithm.scan&#45;&gt;rx.observer</title>
<path fill="none" stroke="black" d="M1343.65,-289.64C1391.47,-266.678 1480.14,-225.116 1514,-216 1653.48,-178.447 1693.55,-196.894 1837,-180 1862.93,-176.946 1891.6,-173.413 1915.98,-170.362"/>
<polygon fill="black" stroke="black" points="1916.66,-173.804 1926.15,-169.086 1915.79,-166.858 1916.66,-173.804"/>
</g>
<!-- rx.algorithm.scan&#45;&gt;rx.util -->
<g id="edge73" class="edge"><title>rx.algorithm.scan&#45;&gt;rx.util</title>
<path fill="none" stroke="black" d="M1264.1,-292.328C1243.71,-284.303 1221.91,-271.615 1210,-252 1185.08,-210.974 1184.19,-184.468 1210,-144 1226.27,-118.496 1258.34,-105.072 1284.33,-98.1244"/>
<polygon fill="black" stroke="black" points="1285.42,-101.46 1294.31,-95.6867 1283.76,-94.66 1285.42,-101.46"/>
</g>
<!-- rx.algorithm.scan&#45;&gt;std.functional -->
<g id="edge74" class="edge"><title>rx.algorithm.scan&#45;&gt;std.functional</title>
<path fill="none" stroke="black" d="M1358.64,-291.965C1430.93,-272.287 1574.66,-235.255 1699,-216 1809.94,-198.82 2138.69,-176.511 2281.97,-167.284"/>
<polygon fill="black" stroke="black" points="2282.21,-170.776 2291.96,-166.642 2281.76,-163.79 2282.21,-170.776"/>
</g>
<!-- rx.algorithm.scan&#45;&gt;std.range -->
<g id="edge75" class="edge"><title>rx.algorithm.scan&#45;&gt;std.range</title>
<path fill="none" stroke="black" d="M1318.74,-288.006C1327.73,-267.609 1345.65,-233.918 1372,-216 1617.43,-49.1089 1740.67,-169.638 2031,-108 2034.62,-107.232 2038.33,-106.315 2042.04,-105.309"/>
<polygon fill="black" stroke="black" points="2043.14,-108.635 2051.77,-102.483 2041.19,-101.913 2043.14,-108.635"/>
</g>
<!-- std.typecons -->
<g id="node35" class="node"><title>std.typecons</title>
<ellipse fill="none" stroke="black" cx="1100" cy="-234" rx="57.6901" ry="18"/>
<text text-anchor="middle" x="1100" y="-230.3" font-family="Times New Roman,serif" font-size="14.00">std.typecons</text>
</g>
<!-- rx.algorithm.scan&#45;&gt;std.typecons -->
<g id="edge76" class="edge"><title>rx.algorithm.scan&#45;&gt;std.typecons</title>
<path fill="none" stroke="black" d="M1270.12,-291.17C1234.89,-279.539 1184.53,-262.912 1147.75,-250.766"/>
<polygon fill="black" stroke="black" points="1148.83,-247.436 1138.23,-247.625 1146.63,-254.084 1148.83,-247.436"/>
</g>
<!-- rx.algorithm.tee&#45;&gt;rx.disposable -->
<g id="edge77" class="edge"><title>rx.algorithm.tee&#45;&gt;rx.disposable</title>
<path fill="none" stroke="black" d="M2302.79,-290.677C2277.42,-280.24 2242.44,-265.604 2212,-252 2177.88,-236.75 2171.79,-226.785 2136,-216 2107.57,-207.433 1929.92,-183.804 1832.23,-171.188"/>
<polygon fill="black" stroke="black" points="1832.53,-167.698 1822.16,-169.891 1831.63,-174.641 1832.53,-167.698"/>
</g>
<!-- rx.algorithm.tee&#45;&gt;rx.observable -->
<g id="edge78" class="edge"><title>rx.algorithm.tee&#45;&gt;rx.observable</title>
<path fill="none" stroke="black" d="M2278.35,-297.674C2170.38,-284.415 1943.46,-256.548 1832.23,-242.888"/>
<polygon fill="black" stroke="black" points="1832.51,-239.396 1822.16,-241.651 1831.65,-246.344 1832.51,-239.396"/>
</g>
<!-- rx.algorithm.tee&#45;&gt;rx.observer -->
<g id="edge79" class="edge"><title>rx.algorithm.tee&#45;&gt;rx.observer</title>
<path fill="none" stroke="black" d="M2319.81,-288.568C2296.52,-268.421 2254.12,-234.659 2212,-216 2154.19,-190.387 2082.81,-176.619 2033.38,-169.594"/>
<polygon fill="black" stroke="black" points="2033.56,-166.086 2023.18,-168.195 2032.61,-173.021 2033.56,-166.086"/>
</g>
<!-- rx.algorithm.tee&#45;&gt;rx.util -->
<g id="edge80" class="edge"><title>rx.algorithm.tee&#45;&gt;rx.util</title>
<path fill="none" stroke="black" d="M2357.64,-288.689C2393.25,-257.26 2461.03,-187.575 2419,-144 2380.4,-103.99 1474.28,-113.911 1419,-108 1400.51,-106.023 1380.2,-102.566 1363.12,-99.2829"/>
<polygon fill="black" stroke="black" points="1363.44,-95.7781 1352.95,-97.2763 1362.09,-102.646 1363.44,-95.7781"/>
</g>
<!-- rx.algorithm.tee&#45;&gt;std.functional -->
<g id="edge81" class="edge"><title>rx.algorithm.tee&#45;&gt;std.functional</title>
<path fill="none" stroke="black" d="M2348.78,-288.084C2354.53,-278.029 2361.03,-264.779 2364,-252 2368.79,-231.366 2364.59,-207.658 2359.58,-189.901"/>
<polygon fill="black" stroke="black" points="2362.88,-188.731 2356.59,-180.203 2356.19,-190.79 2362.88,-188.731"/>
</g>
<!-- rx.algorithm.tee&#45;&gt;std.range -->
<g id="edge82" class="edge"><title>rx.algorithm.tee&#45;&gt;std.range</title>
<path fill="none" stroke="black" d="M2386.98,-293.63C2395.95,-291.665 2405.24,-289.708 2414,-288 2461.76,-278.685 2598.55,-289.13 2630,-252 2661.03,-215.375 2662.26,-179.543 2630,-144 2597.36,-108.038 2270.1,-95.7363 2138.44,-92.2214"/>
<polygon fill="black" stroke="black" points="2138.27,-88.7159 2128.18,-91.9548 2138.09,-95.7135 2138.27,-88.7159"/>
</g>
<!-- rx.algorithm.uniq&#45;&gt;rx.disposable -->
<g id="edge83" class="edge"><title>rx.algorithm.uniq&#45;&gt;rx.disposable</title>
<path fill="none" stroke="black" d="M2454.3,-290.982C2395.99,-271.411 2285,-236.053 2188,-216 2154.05,-208.983 1942.03,-183.523 1832.84,-170.615"/>
<polygon fill="black" stroke="black" points="1832.95,-167.103 1822.61,-169.406 1832.13,-174.055 1832.95,-167.103"/>
</g>
<!-- rx.algorithm.uniq&#45;&gt;rx.observable -->
<g id="edge84" class="edge"><title>rx.algorithm.uniq&#45;&gt;rx.observable</title>
<path fill="none" stroke="black" d="M2443.75,-293.235C2433.92,-291.264 2423.67,-289.406 2414,-288 2205.16,-257.64 1955.63,-243.319 1837.09,-237.83"/>
<polygon fill="black" stroke="black" points="1837.21,-234.332 1827.06,-237.373 1836.89,-241.325 1837.21,-234.332"/>
</g>
<!-- rx.algorithm.uniq&#45;&gt;rx.observer -->
<g id="edge85" class="edge"><title>rx.algorithm.uniq&#45;&gt;rx.observer</title>
<path fill="none" stroke="black" d="M2470.96,-288.993C2439.19,-268.641 2380.82,-233.99 2326,-216 2227.5,-183.676 2106.95,-170.957 2035.53,-166.029"/>
<polygon fill="black" stroke="black" points="2035.57,-162.524 2025.36,-165.357 2035.11,-169.509 2035.57,-162.524"/>
</g>
<!-- rx.algorithm.uniq&#45;&gt;rx.util -->
<g id="edge86" class="edge"><title>rx.algorithm.uniq&#45;&gt;rx.util</title>
<path fill="none" stroke="black" d="M2495,-287.779C2493.95,-253.772 2486.25,-178.325 2440,-144 2394.42,-110.176 1475.44,-114.014 1419,-108 1400.51,-106.03 1380.2,-102.574 1363.12,-99.2895"/>
<polygon fill="black" stroke="black" points="1363.44,-95.7847 1352.95,-97.2819 1362.08,-102.652 1363.44,-95.7847"/>
</g>
<!-- rx.algorithm.uniq&#45;&gt;std.functional -->
<g id="edge87" class="edge"><title>rx.algorithm.uniq&#45;&gt;std.functional</title>
<path fill="none" stroke="black" d="M2478.08,-288.433C2452.43,-263.315 2403.59,-215.484 2374.19,-186.694"/>
<polygon fill="black" stroke="black" points="2376.4,-183.958 2366.81,-179.462 2371.51,-188.959 2376.4,-183.958"/>
</g>
<!-- rx.algorithm.uniq&#45;&gt;std.range -->
<g id="edge88" class="edge"><title>rx.algorithm.uniq&#45;&gt;std.range</title>
<path fill="none" stroke="black" d="M2546.7,-293.291C2556.4,-291.339 2566.49,-289.472 2576,-288 2655.02,-275.771 2880.36,-311.299 2934,-252 2944.73,-240.134 2943.8,-228.648 2934,-216 2855.57,-114.763 2781.16,-165.988 2655,-144 2466.78,-111.195 2239.87,-97.7899 2138.05,-93.134"/>
<polygon fill="black" stroke="black" points="2138.16,-89.6353 2128.01,-92.6848 2137.85,-96.6283 2138.16,-89.6353"/>
</g>
<!-- rx.disposable&#45;&gt;core.atomic -->
<g id="edge89" class="edge"><title>rx.disposable&#45;&gt;core.atomic</title>
<path fill="none" stroke="black" d="M1765.04,-143.83C1760.73,-123.891 1750.84,-91.2795 1730,-72 1703.51,-47.4995 1665.29,-34.2843 1633.19,-27.1774"/>
<polygon fill="black" stroke="black" points="1633.51,-23.6693 1623.01,-25.078 1632.1,-30.5251 1633.51,-23.6693"/>
</g>
<!-- rx.disposable&#45;&gt;core.internal.traits -->
<g id="edge90" class="edge"><title>rx.disposable&#45;&gt;core.internal.traits</title>
<path fill="none" stroke="black" d="M1821.64,-153.985C1848.95,-150.597 1882.7,-146.693 1913,-144 2202.04,-118.303 2546.05,-101.436 2701.87,-94.5364"/>
<polygon fill="black" stroke="black" points="2702.48,-98.0133 2712.31,-94.0766 2702.17,-91.02 2702.48,-98.0133"/>
</g>
<!-- rx.disposable&#45;&gt;core.stdc.string -->
<g id="edge91" class="edge"><title>rx.disposable&#45;&gt;core.stdc.string</title>
<path fill="none" stroke="black" d="M1724,-149.675C1677.48,-137.704 1603.93,-118.777 1553.01,-105.671"/>
<polygon fill="black" stroke="black" points="1553.69,-102.234 1543.14,-103.131 1551.95,-109.013 1553.69,-102.234"/>
</g>
<!-- rx.disposable&#45;&gt;core.sync.mutex -->
<g id="edge92" class="edge"><title>rx.disposable&#45;&gt;core.sync.mutex</title>
<path fill="none" stroke="black" d="M1767.4,-143.871C1766.54,-119.67 1764.98,-75.2108 1763.96,-46.3932"/>
<polygon fill="black" stroke="black" points="1767.46,-46.0599 1763.61,-36.1893 1760.46,-46.3063 1767.46,-46.0599"/>
</g>
<!-- rx.disposable&#45;&gt;rx.util -->
<g id="edge93" class="edge"><title>rx.disposable&#45;&gt;rx.util</title>
<path fill="none" stroke="black" d="M1723.14,-149.97C1713.56,-147.818 1703.47,-145.704 1694,-144 1572.68,-122.176 1540.81,-126.862 1419,-108 1400.76,-105.176 1380.63,-101.635 1363.62,-98.5173"/>
<polygon fill="black" stroke="black" points="1363.94,-95.0174 1353.47,-96.6407 1362.66,-101.901 1363.94,-95.0174"/>
</g>
<!-- std.concurrency -->
<g id="node30" class="node"><title>std.concurrency</title>
<ellipse fill="none" stroke="black" cx="1651" cy="-90" rx="69.5877" ry="18"/>
<text text-anchor="middle" x="1651" y="-86.3" font-family="Times New Roman,serif" font-size="14.00">std.concurrency</text>
</g>
<!-- rx.disposable&#45;&gt;std.concurrency -->
<g id="edge94" class="edge"><title>rx.disposable&#45;&gt;std.concurrency</title>
<path fill="none" stroke="black" d="M1742.32,-145.638C1725.94,-135.837 1704.48,-122.997 1686.48,-112.227"/>
<polygon fill="black" stroke="black" points="1687.81,-108.942 1677.43,-106.811 1684.21,-114.949 1687.81,-108.942"/>
</g>
<!-- rx.observable&#45;&gt;rx.disposable -->
<g id="edge95" class="edge"><title>rx.observable&#45;&gt;rx.disposable</title>
<path fill="none" stroke="black" d="M1768,-215.697C1768,-207.983 1768,-198.712 1768,-190.112"/>
<polygon fill="black" stroke="black" points="1771.5,-190.104 1768,-180.104 1764.5,-190.104 1771.5,-190.104"/>
</g>
<!-- rx.observable&#45;&gt;rx.observer -->
<g id="edge96" class="edge"><title>rx.observable&#45;&gt;rx.observer</title>
<path fill="none" stroke="black" d="M1806.26,-219.998C1840.83,-208.252 1891.75,-190.948 1928.41,-178.49"/>
<polygon fill="black" stroke="black" points="1930.01,-181.645 1938.35,-175.113 1927.76,-175.017 1930.01,-181.645"/>
</g>
<!-- rx.observable&#45;&gt;rx.util -->
<g id="edge97" class="edge"><title>rx.observable&#45;&gt;rx.util</title>
<path fill="none" stroke="black" d="M1728.6,-220.398C1643.33,-193.13 1442.77,-128.985 1360.34,-102.624"/>
<polygon fill="black" stroke="black" points="1361.26,-99.2405 1350.66,-99.5279 1359.12,-105.908 1361.26,-99.2405"/>
</g>
<!-- rx.observable&#45;&gt;std.functional -->
<g id="edge98" class="edge"><title>rx.observable&#45;&gt;std.functional</title>
<path fill="none" stroke="black" d="M1822.49,-226.446C1930.16,-213.497 2169.69,-184.687 2285.22,-170.792"/>
<polygon fill="black" stroke="black" points="2285.82,-174.244 2295.33,-169.575 2284.99,-167.294 2285.82,-174.244"/>
</g>
<!-- rx.observable&#45;&gt;std.range -->
<g id="edge99" class="edge"><title>rx.observable&#45;&gt;std.range</title>
<path fill="none" stroke="black" d="M1799.8,-218.689C1820.45,-208.868 1847.59,-194.947 1870,-180 1890.74,-166.172 1891.09,-155.874 1913,-144 1961.21,-117.878 1978.67,-124.374 2031,-108 2034.14,-107.019 2037.37,-105.999 2040.63,-104.967"/>
<polygon fill="black" stroke="black" points="2041.91,-108.232 2050.38,-101.864 2039.79,-101.562 2041.91,-108.232"/>
</g>
<!-- rx.observer&#45;&gt;std.range -->
<g id="edge100" class="edge"><title>rx.observer&#45;&gt;std.range</title>
<path fill="none" stroke="black" d="M1997.87,-145.811C2013.8,-135.676 2034.92,-122.235 2052.26,-111.201"/>
<polygon fill="black" stroke="black" points="2054.37,-114.001 2060.93,-105.68 2050.62,-108.096 2054.37,-114.001"/>
</g>
<!-- std.typetuple -->
<g id="node36" class="node"><title>std.typetuple</title>
<ellipse fill="none" stroke="black" cx="1964" cy="-90" rx="57.6901" ry="18"/>
<text text-anchor="middle" x="1964" y="-86.3" font-family="Times New Roman,serif" font-size="14.00">std.typetuple</text>
</g>
<!-- rx.observer&#45;&gt;std.typetuple -->
<g id="edge101" class="edge"><title>rx.observer&#45;&gt;std.typetuple</title>
<path fill="none" stroke="black" d="M1971.53,-143.697C1970.43,-135.983 1969.1,-126.712 1967.87,-118.112"/>
<polygon fill="black" stroke="black" points="1971.32,-117.509 1966.44,-108.104 1964.39,-118.499 1971.32,-117.509"/>
</g>
<!-- rx.range&#45;&gt;core.atomic -->
<g id="edge121" class="edge"><title>rx.range&#45;&gt;core.atomic</title>
<path fill="none" stroke="#cb2431" d="M455.484,-377.222C365.771,-376.841 154.316,-370.865 104,-324 45.3292,-269.354 52.0487,-192.36 116,-144 231.609,-56.5769 1271.72,-49.8027 1416,-36 1447.98,-32.9405 1483.58,-29.1199 1512.78,-25.8761"/>
<polygon fill="#cb2431" stroke="#cb2431" points="1513.28,-29.3425 1522.83,-24.7549 1512.5,-22.3857 1513.28,-29.3425"/>
</g>
<!-- rx.range&#45;&gt;rx.disposable -->
<g id="edge122" class="edge"><title>rx.range&#45;&gt;rx.disposable</title>
<path fill="none" stroke="#cb2431" d="M456.572,-373.959C423.596,-369.094 378.45,-356.504 356,-324 346.907,-310.835 348.042,-301.88 356,-288 371.754,-260.524 448.609,-224.915 479,-216 595.986,-181.683 1446.41,-167.401 1698.04,-163.898"/>
<polygon fill="#cb2431" stroke="#cb2431" points="1698.21,-167.397 1708.16,-163.759 1698.11,-160.397 1698.21,-167.397"/>
</g>
<!-- rx.range&#45;&gt;rx.observable -->
<g id="edge123" class="edge"><title>rx.range&#45;&gt;rx.observable</title>
<path fill="none" stroke="#cb2431" d="M536.271,-376.47C743.269,-373.596 1679.82,-358.707 1730,-324 1750.24,-310.002 1759.76,-282.888 1764.2,-262.248"/>
<polygon fill="#cb2431" stroke="#cb2431" points="1767.69,-262.622 1766.09,-252.149 1760.81,-261.335 1767.69,-262.622"/>
</g>
<!-- rx.range&#45;&gt;rx.observer -->
<g id="edge124" class="edge"><title>rx.range&#45;&gt;rx.observer</title>
<path fill="none" stroke="#cb2431" d="M536.235,-375.87C609.048,-372.886 758.11,-362.153 790,-324 820.943,-286.98 745.468,-250.692 779,-216 819.873,-173.713 1778.37,-184.626 1837,-180 1863.34,-177.922 1892.4,-174.48 1916.96,-171.236"/>
<polygon fill="#cb2431" stroke="#cb2431" points="1917.74,-174.662 1927.18,-169.862 1916.81,-167.725 1917.74,-174.662"/>
</g>
<!-- rx.range&#45;&gt;rx.util -->
<g id="edge125" class="edge"><title>rx.range&#45;&gt;rx.util</title>
<path fill="none" stroke="#cb2431" d="M455.455,-377.323C370.57,-377.044 178.635,-371.094 138,-324 107.289,-288.407 46.4269,-243.982 151,-144 192.707,-104.124 1078.45,-93.3237 1282.38,-91.3616"/>
<polygon fill="#cb2431" stroke="#cb2431" points="1282.7,-94.8589 1292.67,-91.2646 1282.63,-87.8592 1282.7,-94.8589"/>
</g>
<!-- rx.range&#45;&gt;std.range -->
<g id="edge126" class="edge"><title>rx.range&#45;&gt;std.range</title>
<path fill="none" stroke="#cb2431" d="M455.922,-375.082C420.494,-371.009 370.72,-358.952 346,-324 336.761,-310.937 337.833,-301.758 346,-288 414.225,-173.072 480.92,-178.661 610,-144 915.072,-62.0802 1719.56,-160.774 2031,-108 2034.86,-107.347 2038.82,-106.475 2042.75,-105.471"/>
<polygon fill="#cb2431" stroke="#cb2431" points="2043.74,-108.829 2052.42,-102.748 2041.84,-102.091 2043.74,-108.829"/>
</g>
<!-- rx.range.drop -->
<g id="node38" class="node"><title>rx.range.drop</title>
<ellipse fill="#e6ffed" stroke="#bef5cb" cx="721" cy="-306" rx="59.5901" ry="18"/>
<text text-anchor="middle" x="721" y="-302.3" font-family="Times New Roman,serif" font-size="14.00">rx.range.drop</text>
</g>
<!-- rx.range&#45;&gt;rx.range.drop -->
<g id="edge136" class="edge"><title>rx.range&#45;&gt;rx.range.drop</title>
<path fill="none" stroke="#2cbe4e" d="M528.237,-366.971C565.63,-355.337 627.707,-336.024 671.289,-322.466"/>
<polygon fill="#2cbe4e" stroke="#2cbe4e" points="672.333,-325.807 680.841,-319.494 670.253,-319.123 672.333,-325.807"/>
</g>
<!-- rx.range.take -->
<g id="node39" class="node"><title>rx.range.take</title>
<ellipse fill="#e6ffed" stroke="#bef5cb" cx="422" cy="-306" rx="57.3905" ry="18"/>
<text text-anchor="middle" x="422" y="-302.3" font-family="Times New Roman,serif" font-size="14.00">rx.range.take</text>
</g>
<!-- rx.range&#45;&gt;rx.range.take -->
<g id="edge137" class="edge"><title>rx.range&#45;&gt;rx.range.take</title>
<path fill="none" stroke="#2cbe4e" d="M479.577,-361.465C469.915,-352.325 457.507,-340.588 446.686,-330.351"/>
<polygon fill="#2cbe4e" stroke="#2cbe4e" points="448.818,-327.551 439.149,-323.222 444.008,-332.636 448.818,-327.551"/>
</g>
<!-- rx.range.takeLast -->
<g id="node40" class="node"><title>rx.range.takeLast</title>
<ellipse fill="#e6ffed" stroke="#bef5cb" cx="570" cy="-306" rx="72.5877" ry="18"/>
<text text-anchor="middle" x="570" y="-302.3" font-family="Times New Roman,serif" font-size="14.00">rx.range.takeLast</text>
</g>
<!-- rx.range&#45;&gt;rx.range.takeLast -->
<g id="edge138" class="edge"><title>rx.range&#45;&gt;rx.range.takeLast</title>
<path fill="none" stroke="#2cbe4e" d="M512.423,-361.465C521.948,-352.454 534.141,-340.92 544.853,-330.788"/>
<polygon fill="#2cbe4e" stroke="#2cbe4e" points="547.471,-333.129 552.331,-323.714 542.661,-328.043 547.471,-333.129"/>
</g>
<!-- rx.scheduler&#45;&gt;core.internal.traits -->
<g id="edge102" class="edge"><title>rx.scheduler&#45;&gt;core.internal.traits</title>
<path fill="none" stroke="black" d="M3722.15,-304.04C3859.15,-301.086 4206.44,-289.898 4241,-252 4251.78,-240.178 4251.8,-227.802 4241,-216 4148.27,-114.693 3170.14,-95.3293 2871.87,-91.7709"/>
<polygon fill="black" stroke="black" points="2871.58,-88.2675 2861.54,-91.6509 2871.5,-95.2671 2871.58,-88.2675"/>
</g>
<!-- rx.scheduler&#45;&gt;core.thread -->
<g id="edge103" class="edge"><title>rx.scheduler&#45;&gt;core.thread</title>
<path fill="none" stroke="black" d="M3629.76,-292.647C3594.14,-280.829 3540.32,-262.975 3502.03,-250.271"/>
<polygon fill="black" stroke="black" points="3502.75,-246.823 3492.16,-246.996 3500.55,-253.467 3502.75,-246.823"/>
</g>
<!-- rx.scheduler&#45;&gt;core.time -->
<g id="edge104" class="edge"><title>rx.scheduler&#45;&gt;core.time</title>
<path fill="none" stroke="black" d="M3644.99,-289.116C3631.44,-279.337 3613.91,-266.687 3599.21,-256.076"/>
<polygon fill="black" stroke="black" points="3601.08,-253.115 3590.93,-250.101 3596.99,-258.791 3601.08,-253.115"/>
</g>
<!-- rx.scheduler&#45;&gt;rx.disposable -->
<g id="edge105" class="edge"><title>rx.scheduler&#45;&gt;rx.disposable</title>
<path fill="none" stroke="black" d="M3663.98,-287.68C3659.28,-266.615 3648.02,-231.907 3623,-216 3542.82,-165.016 2007.8,-186.54 1913,-180 1886.11,-178.145 1856.54,-174.897 1831.15,-171.734"/>
<polygon fill="black" stroke="black" points="1831.28,-168.222 1820.92,-170.436 1830.4,-175.167 1831.28,-168.222"/>
</g>
<!-- rx.scheduler&#45;&gt;rx.observable -->
<g id="edge106" class="edge"><title>rx.scheduler&#45;&gt;rx.observable</title>
<path fill="none" stroke="black" d="M3612.75,-302.49C3537.42,-299.038 3396.86,-292.717 3277,-288 2721.94,-266.155 2051.86,-244.16 1837.48,-237.231"/>
<polygon fill="black" stroke="black" points="1837.43,-233.728 1827.32,-236.903 1837.2,-240.724 1837.43,-233.728"/>
</g>
<!-- rx.scheduler&#45;&gt;rx.observer -->
<g id="edge107" class="edge"><title>rx.scheduler&#45;&gt;rx.observer</title>
<path fill="none" stroke="black" d="M3670.69,-287.998C3674,-267.592 3675.71,-233.892 3656,-216 3627.71,-190.322 2319.18,-181.556 2281,-180 2195.49,-176.514 2096.67,-170.727 2034.76,-166.888"/>
<polygon fill="black" stroke="black" points="2034.97,-163.394 2024.77,-166.266 2034.53,-170.381 2034.97,-163.394"/>
</g>
<!-- std.algorithm.internal -->
<g id="node29" class="node"><title>std.algorithm.internal</title>
<ellipse fill="none" stroke="black" cx="3937" cy="-234" rx="86.3847" ry="18"/>
<text text-anchor="middle" x="3937" y="-230.3" font-family="Times New Roman,serif" font-size="14.00">std.algorithm.internal</text>
</g>
<!-- rx.scheduler&#45;&gt;std.algorithm.internal -->
<g id="edge108" class="edge"><title>rx.scheduler&#45;&gt;std.algorithm.internal</title>
<path fill="none" stroke="black" d="M3708.89,-294.139C3753.33,-282.619 3824.01,-264.295 3874.92,-251.096"/>
<polygon fill="black" stroke="black" points="3876.02,-254.425 3884.82,-248.528 3874.26,-247.65 3876.02,-254.425"/>
</g>
<!-- std.exception -->
<g id="node31" class="node"><title>std.exception</title>
<ellipse fill="none" stroke="black" cx="4101" cy="-234" rx="59.5901" ry="18"/>
<text text-anchor="middle" x="4101" y="-230.3" font-family="Times New Roman,serif" font-size="14.00">std.exception</text>
</g>
<!-- rx.scheduler&#45;&gt;std.exception -->
<g id="edge109" class="edge"><title>rx.scheduler&#45;&gt;std.exception</title>
<path fill="none" stroke="black" d="M3718.35,-299.144C3789.23,-290.697 3920.92,-273.695 4032,-252 4037.02,-251.02 4042.22,-249.912 4047.41,-248.743"/>
<polygon fill="black" stroke="black" points="4048.39,-252.109 4057.34,-246.437 4046.81,-245.29 4048.39,-252.109"/>
</g>
<!-- std.parallelism -->
<g id="node33" class="node"><title>std.parallelism</title>
<ellipse fill="none" stroke="black" cx="3770" cy="-234" rx="62.2891" ry="18"/>
<text text-anchor="middle" x="3770" y="-230.3" font-family="Times New Roman,serif" font-size="14.00">std.parallelism</text>
</g>
<!-- rx.scheduler&#45;&gt;std.parallelism -->
<g id="edge110" class="edge"><title>rx.scheduler&#45;&gt;std.parallelism</title>
<path fill="none" stroke="black" d="M3689.86,-289.465C3704.16,-279.745 3722.78,-267.089 3738.48,-256.423"/>
<polygon fill="black" stroke="black" points="3740.55,-259.25 3746.85,-250.734 3736.61,-253.46 3740.55,-259.25"/>
</g>
<!-- rx.scheduler&#45;&gt;std.range -->
<g id="edge111" class="edge"><title>rx.scheduler&#45;&gt;std.range</title>
<path fill="none" stroke="black" d="M3721.66,-303.287C3845.77,-298.834 4140.41,-284.876 4170,-252 4180.7,-240.108 4180.78,-227.822 4170,-216 4140.68,-183.845 3433.42,-146.883 3390,-144 2904.93,-111.791 2317.11,-96.3734 2138.21,-92.2"/>
<polygon fill="black" stroke="black" points="2138.09,-88.6963 2128.01,-91.9639 2137.93,-95.6944 2138.09,-88.6963"/>
</g>
<!-- rx.subject&#45;&gt;core.atomic -->
<g id="edge112" class="edge"><title>rx.subject&#45;&gt;core.atomic</title>
<path fill="none" stroke="black" d="M3237.12,-288.858C3252.71,-270.188 3272.68,-239.068 3257,-216 3153.82,-64.2277 3050.42,-105.585 2870,-72 2610.56,-23.7057 1945.79,-60.1987 1683,-36 1665.39,-34.378 1646.31,-31.7426 1629.06,-29.0257"/>
<polygon fill="black" stroke="black" points="1629.57,-25.5631 1619.14,-27.4237 1628.45,-32.4736 1629.57,-25.5631"/>
</g>
<!-- rx.subject&#45;&gt;rx.disposable -->
<g id="edge113" class="edge"><title>rx.subject&#45;&gt;rx.disposable</title>
<path fill="none" stroke="black" d="M3178.76,-299.654C3101.79,-290.13 2935.95,-269.575 2796,-252 2669.76,-236.146 2638.68,-227.823 2512,-216 2246.45,-191.217 2178.66,-203.537 1913,-180 1886.37,-177.641 1857.07,-174.34 1831.82,-171.274"/>
<polygon fill="black" stroke="black" points="1831.99,-167.768 1821.64,-170.023 1831.14,-174.716 1831.99,-167.768"/>
</g>
<!-- rx.subject&#45;&gt;rx.observable -->
<g id="edge114" class="edge"><title>rx.subject&#45;&gt;rx.observable</title>
<path fill="none" stroke="black" d="M3177.74,-300.546C3138.45,-296.729 3079.45,-291.335 3028,-288 2574.52,-258.609 2028.12,-242.037 1837.57,-236.818"/>
<polygon fill="black" stroke="black" points="1837.5,-233.315 1827.41,-236.541 1837.31,-240.312 1837.5,-233.315"/>
</g>
<!-- rx.subject&#45;&gt;rx.observer -->
<g id="edge115" class="edge"><title>rx.subject&#45;&gt;rx.observer</title>
<path fill="none" stroke="black" d="M3184.77,-295.26C3111.62,-276.542 2943.73,-235.664 2800,-216 2724.93,-205.73 2212.92,-176.409 2034.87,-166.398"/>
<polygon fill="black" stroke="black" points="2035.07,-162.904 2024.89,-165.837 2034.67,-169.893 2035.07,-162.904"/>
</g>
<!-- rx.subject&#45;&gt;rx.util -->
<g id="edge116" class="edge"><title>rx.subject&#45;&gt;rx.util</title>
<path fill="none" stroke="black" d="M3213.38,-288.067C3203.06,-268.945 3184.33,-237.674 3162,-216 3119,-174.263 3105.38,-161.291 3048,-144 2874.66,-91.7607 1599.15,-125.999 1419,-108 1400.36,-106.138 1379.88,-102.66 1362.73,-99.3326"/>
<polygon fill="black" stroke="black" points="1363.01,-95.8207 1352.52,-97.2962 1361.64,-102.685 1363.01,-95.8207"/>
</g>
<!-- rx.subject&#45;&gt;std.range -->
<g id="edge117" class="edge"><title>rx.subject&#45;&gt;std.range</title>
<path fill="none" stroke="black" d="M3232.02,-288.334C3242.28,-268.88 3254.55,-236.734 3238,-216 3147.86,-103.091 3064,-164.631 2921,-144 2628.1,-101.741 2272.7,-93.1762 2138.67,-91.4408"/>
<polygon fill="black" stroke="black" points="2138.31,-87.9363 2128.27,-91.3143 2138.23,-94.9358 2138.31,-87.9363"/>
</g>
<!-- rx.util&#45;&gt;core.atomic -->
<g id="edge118" class="edge"><title>rx.util&#45;&gt;core.atomic</title>
<path fill="none" stroke="black" d="M1351.6,-81.2413C1392.91,-69.628 1471.47,-47.5428 1523.03,-33.0467"/>
<polygon fill="black" stroke="black" points="1524.29,-36.3298 1532.97,-30.254 1522.39,-29.591 1524.29,-36.3298"/>
</g>
<!-- rx.util&#45;&gt;core.sync.condition -->
<g id="edge119" class="edge"><title>rx.util&#45;&gt;core.sync.condition</title>
<path fill="none" stroke="black" d="M1324,-71.6966C1324,-63.9827 1324,-54.7125 1324,-46.1124"/>
<polygon fill="black" stroke="black" points="1327.5,-46.1043 1324,-36.1043 1320.5,-46.1044 1327.5,-46.1043"/>
</g>
<!-- rx.util&#45;&gt;core.sync.mutex -->
<g id="edge120" class="edge"><title>rx.util&#45;&gt;core.sync.mutex</title>
<path fill="none" stroke="black" d="M1353.49,-83.5322C1372.24,-80.1051 1397.02,-75.6596 1419,-72 1513.88,-56.2046 1623.76,-39.5619 1693.31,-29.2319"/>
<polygon fill="black" stroke="black" points="1693.89,-32.6837 1703.27,-27.7544 1692.87,-25.7594 1693.89,-32.6837"/>
</g>
<!-- rx.algorithm.combineLatest&#45;&gt;rx.disposable -->
<g id="edge128" class="edge"><title>rx.algorithm.combineLatest&#45;&gt;rx.disposable</title>
<path fill="none" stroke="#2cbe4e" d="M875.353,-292.304C814.842,-278.643 743.295,-253.67 779,-216 810.584,-182.678 1478.04,-168.064 1698.23,-164.137"/>
<polygon fill="#2cbe4e" stroke="#2cbe4e" points="1698.43,-167.634 1708.37,-163.958 1698.31,-160.636 1698.43,-167.634"/>
</g>
<!-- rx.algorithm.combineLatest&#45;&gt;rx.observable -->
<g id="edge129" class="edge"><title>rx.algorithm.combineLatest&#45;&gt;rx.observable</title>
<path fill="none" stroke="#2cbe4e" d="M1024.36,-293.187C1038.21,-291.29 1052.51,-289.471 1066,-288 1297.63,-262.739 1573.58,-245.71 1699.38,-238.66"/>
<polygon fill="#2cbe4e" stroke="#2cbe4e" points="1699.84,-242.14 1709.63,-238.09 1699.46,-235.151 1699.84,-242.14"/>
</g>
<!-- rx.algorithm.combineLatest&#45;&gt;rx.observer -->
<g id="edge130" class="edge"><title>rx.algorithm.combineLatest&#45;&gt;rx.observer</title>
<path fill="none" stroke="#2cbe4e" d="M957.573,-287.819C971.753,-266.553 999.115,-231.281 1033,-216 1114.52,-179.24 1747.89,-187.512 1837,-180 1863.23,-177.789 1892.16,-174.347 1916.65,-171.137"/>
<polygon fill="#2cbe4e" stroke="#2cbe4e" points="1917.41,-174.567 1926.86,-169.779 1916.49,-167.628 1917.41,-174.567"/>
</g>
<!-- rx.algorithm.combineLatest&#45;&gt;rx.util -->
<g id="edge131" class="edge"><title>rx.algorithm.combineLatest&#45;&gt;rx.util</title>
<path fill="none" stroke="#2cbe4e" d="M865.639,-293.797C803.527,-281.719 733.652,-258.268 766,-216 829.399,-133.158 1164.75,-102.09 1282.83,-93.6201"/>
<polygon fill="#2cbe4e" stroke="#2cbe4e" points="1283.18,-97.1041 1292.91,-92.9141 1282.69,-90.1212 1283.18,-97.1041"/>
</g>
<!-- rx.algorithm.combineLatest&#45;&gt;std.range -->
<g id="edge133" class="edge"><title>rx.algorithm.combineLatest&#45;&gt;std.range</title>
<path fill="none" stroke="#2cbe4e" d="M950.529,-287.741C955.258,-268.318 965.308,-236.773 984,-216 1028.7,-166.324 1051.58,-161.782 1116,-144 1312.15,-89.853 1830.61,-143.4 2031,-108 2034.85,-107.32 2038.81,-106.43 2042.74,-105.413"/>
<polygon fill="#2cbe4e" stroke="#2cbe4e" points="2043.74,-108.769 2052.4,-102.674 2041.83,-102.035 2043.74,-108.769"/>
</g>
<!-- rx.algorithm.combineLatest&#45;&gt;std.typecons -->
<g id="edge134" class="edge"><title>rx.algorithm.combineLatest&#45;&gt;std.typecons</title>
<path fill="none" stroke="#2cbe4e" d="M982.101,-288.941C1005.23,-278.357 1035.59,-264.468 1059.71,-253.434"/>
<polygon fill="#2cbe4e" stroke="#2cbe4e" points="1061.32,-256.548 1068.95,-249.205 1058.4,-250.182 1061.32,-256.548"/>
</g>
<!-- std.meta -->
<g id="node41" class="node"><title>std.meta</title>
<ellipse fill="#e6ffed" stroke="#bef5cb" cx="830" cy="-234" rx="41.6928" ry="18"/>
<text text-anchor="middle" x="830" y="-230.3" font-family="Times New Roman,serif" font-size="14.00">std.meta</text>
</g>
<!-- rx.algorithm.combineLatest&#45;&gt;std.meta -->
<g id="edge132" class="edge"><title>rx.algorithm.combineLatest&#45;&gt;std.meta</title>
<path fill="none" stroke="#2cbe4e" d="M919.273,-288.411C902.239,-278.22 880.341,-265.118 862.495,-254.442"/>
<polygon fill="#2cbe4e" stroke="#2cbe4e" points="863.958,-251.238 853.58,-249.108 860.364,-257.245 863.958,-251.238"/>
</g>
<!-- rx.range.drop&#45;&gt;rx.disposable -->
<g id="edge139" class="edge"><title>rx.range.drop&#45;&gt;rx.disposable</title>
<path fill="none" stroke="#2cbe4e" d="M724.298,-287.795C729.315,-266.85 741.053,-232.264 766,-216 843.531,-165.453 1482.87,-162.304 1697.81,-162.693"/>
<polygon fill="#2cbe4e" stroke="#2cbe4e" points="1698.02,-166.193 1708.03,-162.715 1698.04,-159.193 1698.02,-166.193"/>
</g>
<!-- rx.range.drop&#45;&gt;rx.observable -->
<g id="edge140" class="edge"><title>rx.range.drop&#45;&gt;rx.observable</title>
<path fill="none" stroke="#2cbe4e" d="M770.94,-295.992C788.88,-293.041 809.298,-290.008 828,-288 1152.09,-253.208 1541.66,-240.46 1698.04,-236.524"/>
<polygon fill="#2cbe4e" stroke="#2cbe4e" points="1698.53,-240.013 1708.44,-236.266 1698.36,-233.015 1698.53,-240.013"/>
</g>
<!-- rx.range.drop&#45;&gt;rx.observer -->
<g id="edge141" class="edge"><title>rx.range.drop&#45;&gt;rx.observer</title>
<path fill="none" stroke="#2cbe4e" d="M720.295,-287.681C720.504,-266.956 724.403,-232.934 746,-216 793.723,-178.58 1776.54,-184.739 1837,-180 1863.34,-177.935 1892.41,-174.496 1916.96,-171.249"/>
<polygon fill="#2cbe4e" stroke="#2cbe4e" points="1917.74,-174.675 1927.19,-169.874 1916.81,-167.738 1917.74,-174.675"/>
</g>
<!-- rx.range.drop&#45;&gt;rx.util -->
<g id="edge142" class="edge"><title>rx.range.drop&#45;&gt;rx.util</title>
<path fill="none" stroke="#2cbe4e" d="M677.752,-293.427C669.257,-291.414 660.381,-289.491 652,-288 580.677,-275.308 376.314,-305.979 328,-252 295.988,-216.234 294.973,-178.831 328,-144 361.365,-108.813 1099.07,-94.6228 1282.83,-91.6271"/>
<polygon fill="#2cbe4e" stroke="#2cbe4e" points="1282.95,-95.1256 1292.9,-91.4652 1282.84,-88.1265 1282.95,-95.1256"/>
</g>
<!-- rx.range.drop&#45;&gt;std.range -->
<g id="edge143" class="edge"><title>rx.range.drop&#45;&gt;std.range</title>
<path fill="none" stroke="#2cbe4e" d="M718.355,-287.935C716.311,-268.098 716.311,-235.584 734,-216 821.861,-118.728 890.226,-162.435 1020,-144 1465.15,-80.7655 1588.09,-185.392 2031,-108 2034.85,-107.327 2038.81,-106.442 2042.75,-105.428"/>
<polygon fill="#2cbe4e" stroke="#2cbe4e" points="2043.74,-108.785 2052.41,-102.693 2041.83,-102.05 2043.74,-108.785"/>
</g>
<!-- rx.range.take&#45;&gt;rx.disposable -->
<g id="edge144" class="edge"><title>rx.range.take&#45;&gt;rx.disposable</title>
<path fill="none" stroke="#2cbe4e" d="M437.748,-288.462C459.219,-267.185 499.957,-231.163 543,-216 651.802,-177.67 1454.61,-166.252 1698.15,-163.652"/>
<polygon fill="#2cbe4e" stroke="#2cbe4e" points="1698.33,-167.151 1708.3,-163.546 1698.26,-160.151 1698.33,-167.151"/>
</g>
<!-- rx.range.take&#45;&gt;rx.observable -->
<g id="edge145" class="edge"><title>rx.range.take&#45;&gt;rx.observable</title>
<path fill="none" stroke="#2cbe4e" d="M462.566,-293.122C470.912,-291.083 479.689,-289.228 488,-288 607.765,-270.299 1449.73,-244.369 1698.77,-237.012"/>
<polygon fill="#2cbe4e" stroke="#2cbe4e" points="1698.89,-240.51 1708.78,-236.717 1698.68,-233.513 1698.89,-240.51"/>
</g>
<!-- rx.range.take&#45;&gt;rx.observer -->
<g id="edge146" class="edge"><title>rx.range.take&#45;&gt;rx.observer</title>
<path fill="none" stroke="#2cbe4e" d="M449.199,-290.159C489.483,-269.058 568.015,-231.255 640,-216 900.338,-160.828 1571.66,-200.408 1837,-180 1863.35,-177.974 1892.41,-174.54 1916.96,-171.286"/>
<polygon fill="#2cbe4e" stroke="#2cbe4e" points="1917.75,-174.712 1927.19,-169.908 1916.81,-167.775 1917.75,-174.712"/>
</g>
<!-- rx.range.take&#45;&gt;rx.util -->
<g id="edge147" class="edge"><title>rx.range.take&#45;&gt;rx.util</title>
<path fill="none" stroke="#2cbe4e" d="M366.98,-301.015C301.941,-295.027 199.536,-281.147 176,-252 145.844,-214.655 142.851,-178.715 176,-144 214.96,-103.2 1081.38,-93.1219 1282.54,-91.3287"/>
<polygon fill="#2cbe4e" stroke="#2cbe4e" points="1282.73,-94.8273 1292.7,-91.2403 1282.67,-87.8276 1282.73,-94.8273"/>
</g>
<!-- rx.range.take&#45;&gt;std.range -->
<g id="edge148" class="edge"><title>rx.range.take&#45;&gt;std.range</title>
<path fill="none" stroke="#2cbe4e" d="M441.735,-288.847C485.266,-254.35 594.169,-174.168 701,-144 985.537,-63.6504 1739.53,-157.649 2031,-108 2034.86,-107.343 2038.82,-106.469 2042.75,-105.463"/>
<polygon fill="#2cbe4e" stroke="#2cbe4e" points="2043.74,-108.822 2052.41,-102.739 2041.84,-102.084 2043.74,-108.822"/>
</g>
<!-- rx.range.takeLast&#45;&gt;rx.disposable -->
<g id="edge149" class="edge"><title>rx.range.takeLast&#45;&gt;rx.disposable</title>
<path fill="none" stroke="#2cbe4e" d="M560.097,-288.12C549.82,-268.153 537.613,-235.209 556,-216 595.66,-174.567 1445.54,-165.27 1697.93,-163.42"/>
<polygon fill="#2cbe4e" stroke="#2cbe4e" points="1698.11,-166.919 1708.08,-163.347 1698.06,-159.919 1698.11,-166.919"/>
</g>
<!-- rx.range.takeLast&#45;&gt;rx.observable -->
<g id="edge150" class="edge"><title>rx.range.takeLast&#45;&gt;rx.observable</title>
<path fill="none" stroke="#2cbe4e" d="M620.97,-293.142C631.197,-291.129 641.903,-289.278 652,-288 856.005,-262.171 1487.62,-242.771 1698.59,-236.868"/>
<polygon fill="#2cbe4e" stroke="#2cbe4e" points="1698.71,-240.366 1708.61,-236.589 1698.52,-233.369 1698.71,-240.366"/>
</g>
<!-- rx.range.takeLast&#45;&gt;rx.observer -->
<g id="edge151" class="edge"><title>rx.range.takeLast&#45;&gt;rx.observer</title>
<path fill="none" stroke="#2cbe4e" d="M590.425,-288.365C618.074,-266.981 669.857,-230.84 721,-216 840.15,-181.426 1713.31,-189.649 1837,-180 1863.34,-177.945 1892.41,-174.507 1916.96,-171.258"/>
<polygon fill="#2cbe4e" stroke="#2cbe4e" points="1917.74,-174.685 1927.19,-169.882 1916.81,-167.747 1917.74,-174.685"/>
</g>
<!-- rx.range.takeLast&#45;&gt;rx.util -->
<g id="edge152" class="edge"><title>rx.range.takeLast&#45;&gt;rx.util</title>
<path fill="none" stroke="#2cbe4e" d="M516.207,-293.75C506.809,-291.812 497.122,-289.833 488,-288 446.939,-279.749 329.637,-284.32 303,-252 272.472,-214.959 269.95,-178.81 303,-144 337.261,-107.915 1095.09,-94.3787 1282.42,-91.5777"/>
<polygon fill="#2cbe4e" stroke="#2cbe4e" points="1282.72,-95.0736 1292.67,-91.4266 1282.62,-88.0744 1282.72,-95.0736"/>
</g>
<!-- rx.range.takeLast&#45;&gt;std.range -->
<g id="edge153" class="edge"><title>rx.range.takeLast&#45;&gt;std.range</title>
<path fill="none" stroke="#2cbe4e" d="M583.933,-288.125C613.862,-253.337 688.32,-174.364 771,-144 902.472,-95.7175 1892.95,-131.623 2031,-108 2034.85,-107.34 2038.81,-106.465 2042.75,-105.457"/>
<polygon fill="#2cbe4e" stroke="#2cbe4e" points="2043.74,-108.815 2052.41,-102.731 2041.84,-102.078 2043.74,-108.815"/>
</g>
</g>
</svg>
