<?xml version="1.0" encoding="UTF-8" standalone="no"?>
<!DOCTYPE svg PUBLIC "-//W3C//DTD SVG 1.1//EN"
 "http://www.w3.org/Graphics/SVG/1.1/DTD/svg11.dtd">
<!-- Generated by graphviz version 2.38.0 (20140413.2041)
 -->
<!-- Title: %3 Pages: 1 -->
<svg width="3071pt" height="476pt"
 viewBox="0.00 0.00 3071.00 476.00" xmlns="http://www.w3.org/2000/svg" xmlns:xlink="http://www.w3.org/1999/xlink">
<g id="graph0" class="graph" transform="scale(1 1) rotate(0) translate(4 472)">
<title>%3</title>
<polygon fill="white" stroke="none" points="-4,4 -4,-472 3067,-472 3067,4 -4,4"/>
<!-- rx -->
<g id="node1" class="node"><title>rx</title>
<ellipse fill="none" stroke="black" cx="1964" cy="-450" rx="27" ry="18"/>
<text text-anchor="middle" x="1964" y="-446.3" font-family="Times New Roman,serif" font-size="14.00">rx</text>
</g>
<!-- rx.algorithm -->
<g id="node2" class="node"><title>rx.algorithm</title>
<ellipse fill="none" stroke="black" cx="1349" cy="-378" rx="53.8905" ry="18"/>
<text text-anchor="middle" x="1349" y="-374.3" font-family="Times New Roman,serif" font-size="14.00">rx.algorithm</text>
</g>
<!-- rx&#45;&gt;rx.algorithm -->
<g id="edge1" class="edge"><title>rx&#45;&gt;rx.algorithm</title>
<path fill="none" stroke="black" d="M1937.57,-445.992C1846.02,-435.571 1540.84,-400.836 1409.72,-385.911"/>
<polygon fill="black" stroke="black" points="1409.79,-382.397 1399.46,-384.743 1409,-389.352 1409.79,-382.397"/>
</g>
<!-- rx.disposable -->
<g id="node15" class="node"><title>rx.disposable</title>
<ellipse fill="none" stroke="black" cx="1314" cy="-90" rx="59.5901" ry="18"/>
<text text-anchor="middle" x="1314" y="-86.3" font-family="Times New Roman,serif" font-size="14.00">rx.disposable</text>
</g>
<!-- rx&#45;&gt;rx.disposable -->
<g id="edge2" class="edge"><title>rx&#45;&gt;rx.disposable</title>
<path fill="none" stroke="black" d="M1936.98,-448.515C1701.09,-444.11 0,-408.811 0,-307 0,-307 0,-307 0,-233 0,-106.704 971.913,-92.6142 1243.98,-91.1442"/>
<polygon fill="black" stroke="black" points="1244.14,-94.6435 1254.13,-91.0936 1244.11,-87.6436 1244.14,-94.6435"/>
</g>
<!-- rx.observable -->
<g id="node16" class="node"><title>rx.observable</title>
<ellipse fill="none" stroke="black" cx="1801" cy="-162" rx="59.5901" ry="18"/>
<text text-anchor="middle" x="1801" y="-158.3" font-family="Times New Roman,serif" font-size="14.00">rx.observable</text>
</g>
<!-- rx&#45;&gt;rx.observable -->
<g id="edge3" class="edge"><title>rx&#45;&gt;rx.observable</title>
<path fill="none" stroke="black" d="M1951.42,-433.554C1925.78,-401.459 1866.87,-324.493 1831,-252 1821.15,-232.087 1813.28,-208.158 1808.08,-190.13"/>
<polygon fill="black" stroke="black" points="1811.39,-188.964 1805.33,-180.272 1804.65,-190.844 1811.39,-188.964"/>
</g>
<!-- rx.observer -->
<g id="node17" class="node"><title>rx.observer</title>
<ellipse fill="none" stroke="black" cx="1889" cy="-90" rx="51.9908" ry="18"/>
<text text-anchor="middle" x="1889" y="-86.3" font-family="Times New Roman,serif" font-size="14.00">rx.observer</text>
</g>
<!-- rx&#45;&gt;rx.observer -->
<g id="edge4" class="edge"><title>rx&#45;&gt;rx.observer</title>
<path fill="none" stroke="black" d="M1991.02,-448.31C2156.43,-443.739 3025,-414.615 3025,-307 3025,-307 3025,-307 3025,-233 3025,-144.153 2931.9,-166.701 2846,-144 2676.17,-99.1175 2135.52,-92.2174 1951.23,-91.1774"/>
<polygon fill="black" stroke="black" points="1951.19,-87.6772 1941.17,-91.1245 1951.15,-94.6771 1951.19,-87.6772"/>
</g>
<!-- rx.range -->
<g id="node18" class="node"><title>rx.range</title>
<ellipse fill="none" stroke="black" cx="2408" cy="-306" rx="40.0939" ry="18"/>
<text text-anchor="middle" x="2408" y="-302.3" font-family="Times New Roman,serif" font-size="14.00">rx.range</text>
</g>
<!-- rx&#45;&gt;rx.range -->
<g id="edge5" class="edge"><title>rx&#45;&gt;rx.range</title>
<path fill="none" stroke="black" d="M1987.87,-441.365C2059.83,-418.35 2275.3,-349.439 2366.5,-320.272"/>
<polygon fill="black" stroke="black" points="2367.76,-323.544 2376.22,-317.164 2365.63,-316.877 2367.76,-323.544"/>
</g>
<!-- rx.scheduler -->
<g id="node19" class="node"><title>rx.scheduler</title>
<ellipse fill="none" stroke="black" cx="1730" cy="-234" rx="55.4913" ry="18"/>
<text text-anchor="middle" x="1730" y="-230.3" font-family="Times New Roman,serif" font-size="14.00">rx.scheduler</text>
</g>
<!-- rx&#45;&gt;rx.scheduler -->
<g id="edge6" class="edge"><title>rx&#45;&gt;rx.scheduler</title>
<path fill="none" stroke="black" d="M1937.2,-447.149C1901.47,-443.327 1838.16,-431.642 1799,-396 1759.56,-360.107 1741.78,-297.843 1734.49,-262.177"/>
<polygon fill="black" stroke="black" points="1737.86,-261.188 1732.55,-252.021 1730.98,-262.5 1737.86,-261.188"/>
</g>
<!-- rx.subject -->
<g id="node20" class="node"><title>rx.subject</title>
<ellipse fill="none" stroke="black" cx="2875" cy="-234" rx="46.2923" ry="18"/>
<text text-anchor="middle" x="2875" y="-230.3" font-family="Times New Roman,serif" font-size="14.00">rx.subject</text>
</g>
<!-- rx&#45;&gt;rx.subject -->
<g id="edge7" class="edge"><title>rx&#45;&gt;rx.subject</title>
<path fill="none" stroke="black" d="M1990.92,-446.733C2113.9,-436.088 2622.51,-388.844 2767,-324 2801.2,-308.652 2833.41,-279.476 2853.6,-258.715"/>
<polygon fill="black" stroke="black" points="2856.37,-260.875 2860.73,-251.217 2851.3,-256.052 2856.37,-260.875"/>
</g>
<!-- rx.util -->
<g id="node21" class="node"><title>rx.util</title>
<ellipse fill="none" stroke="black" cx="2018" cy="-18" rx="31.3957" ry="18"/>
<text text-anchor="middle" x="2018" y="-14.3" font-family="Times New Roman,serif" font-size="14.00">rx.util</text>
</g>
<!-- rx&#45;&gt;rx.util -->
<g id="edge8" class="edge"><title>rx&#45;&gt;rx.util</title>
<path fill="none" stroke="black" d="M1991.12,-448.64C2122.38,-446.712 2692.54,-436.132 2865,-396 2958.97,-374.132 3063,-403.481 3063,-307 3063,-307 3063,-307 3063,-161 3063,-58.4017 2949.9,-95.3605 2850,-72 2697.21,-36.2728 2206.4,-23.0454 2059.75,-19.8336"/>
<polygon fill="black" stroke="black" points="2059.48,-16.3269 2049.4,-19.6111 2059.33,-23.3253 2059.48,-16.3269"/>
</g>
<!-- rx.algorithm.all -->
<g id="node3" class="node"><title>rx.algorithm.all</title>
<ellipse fill="none" stroke="black" cx="905" cy="-234" rx="64.189" ry="18"/>
<text text-anchor="middle" x="905" y="-230.3" font-family="Times New Roman,serif" font-size="14.00">rx.algorithm.all</text>
</g>
<!-- rx.algorithm&#45;&gt;rx.algorithm.all -->
<g id="edge9" class="edge"><title>rx.algorithm&#45;&gt;rx.algorithm.all</title>
<path fill="none" stroke="black" d="M1330.18,-360.883C1305.18,-340.413 1258.82,-305.634 1213,-288 1116.44,-250.839 1084.7,-271.025 983,-252 976.501,-250.784 969.716,-249.431 962.977,-248.035"/>
<polygon fill="black" stroke="black" points="963.682,-244.606 953.175,-245.968 962.238,-251.456 963.682,-244.606"/>
</g>
<!-- rx.algorithm.any -->
<g id="node4" class="node"><title>rx.algorithm.any</title>
<ellipse fill="none" stroke="black" cx="425" cy="-234" rx="69.5877" ry="18"/>
<text text-anchor="middle" x="425" y="-230.3" font-family="Times New Roman,serif" font-size="14.00">rx.algorithm.any</text>
</g>
<!-- rx.algorithm&#45;&gt;rx.algorithm.any -->
<g id="edge10" class="edge"><title>rx.algorithm&#45;&gt;rx.algorithm.any</title>
<path fill="none" stroke="black" d="M1299.25,-371.023C1168.43,-355.009 804.224,-308.496 504,-252 498.171,-250.903 492.112,-249.705 486.058,-248.468"/>
<polygon fill="black" stroke="black" points="486.42,-244.969 475.917,-246.363 484.997,-251.823 486.42,-244.969"/>
</g>
<!-- rx.algorithm.buffer -->
<g id="node5" class="node"><title>rx.algorithm.buffer</title>
<ellipse fill="none" stroke="black" cx="1540" cy="-234" rx="78.7863" ry="18"/>
<text text-anchor="middle" x="1540" y="-230.3" font-family="Times New Roman,serif" font-size="14.00">rx.algorithm.buffer</text>
</g>
<!-- rx.algorithm&#45;&gt;rx.algorithm.buffer -->
<g id="edge11" class="edge"><title>rx.algorithm&#45;&gt;rx.algorithm.buffer</title>
<path fill="none" stroke="black" d="M1370.17,-361.261C1404.03,-336.086 1470.52,-286.654 1509.51,-257.672"/>
<polygon fill="black" stroke="black" points="1511.92,-260.241 1517.85,-251.466 1507.74,-254.624 1511.92,-260.241"/>
</g>
<!-- rx.algorithm.debounce -->
<g id="node6" class="node"><title>rx.algorithm.debounce</title>
<ellipse fill="none" stroke="black" cx="1579" cy="-306" rx="92.0841" ry="18"/>
<text text-anchor="middle" x="1579" y="-302.3" font-family="Times New Roman,serif" font-size="14.00">rx.algorithm.debounce</text>
</g>
<!-- rx.algorithm&#45;&gt;rx.algorithm.debounce -->
<g id="edge12" class="edge"><title>rx.algorithm&#45;&gt;rx.algorithm.debounce</title>
<path fill="none" stroke="black" d="M1387.5,-365.284C1424.08,-354.15 1479.56,-337.263 1521.41,-324.527"/>
<polygon fill="black" stroke="black" points="1522.65,-327.81 1531.19,-321.55 1520.61,-321.113 1522.65,-327.81"/>
</g>
<!-- rx.algorithm.filter -->
<g id="node7" class="node"><title>rx.algorithm.filter</title>
<ellipse fill="none" stroke="black" cx="2028" cy="-234" rx="72.5877" ry="18"/>
<text text-anchor="middle" x="2028" y="-230.3" font-family="Times New Roman,serif" font-size="14.00">rx.algorithm.filter</text>
</g>
<!-- rx.algorithm&#45;&gt;rx.algorithm.filter -->
<g id="edge13" class="edge"><title>rx.algorithm&#45;&gt;rx.algorithm.filter</title>
<path fill="none" stroke="black" d="M1403.11,-377.042C1470.81,-375.184 1588.93,-365.537 1680,-324 1702.68,-313.657 1700.39,-298.493 1723,-288 1793.77,-255.154 1882.35,-242.517 1945.79,-237.731"/>
<polygon fill="black" stroke="black" points="1946.42,-241.196 1956.15,-237.003 1945.92,-234.213 1946.42,-241.196"/>
</g>
<!-- rx.algorithm.fold -->
<g id="node8" class="node"><title>rx.algorithm.fold</title>
<ellipse fill="none" stroke="black" cx="1372" cy="-234" rx="71.4873" ry="18"/>
<text text-anchor="middle" x="1372" y="-230.3" font-family="Times New Roman,serif" font-size="14.00">rx.algorithm.fold</text>
</g>
<!-- rx.algorithm&#45;&gt;rx.algorithm.fold -->
<g id="edge14" class="edge"><title>rx.algorithm&#45;&gt;rx.algorithm.fold</title>
<path fill="none" stroke="black" d="M1351.77,-359.871C1355.69,-335.67 1362.9,-291.211 1367.56,-262.393"/>
<polygon fill="black" stroke="black" points="1371.07,-262.62 1369.22,-252.189 1364.16,-261.501 1371.07,-262.62"/>
</g>
<!-- rx.algorithm.groupby -->
<g id="node9" class="node"><title>rx.algorithm.groupby</title>
<ellipse fill="none" stroke="black" cx="2671" cy="-306" rx="87.1846" ry="18"/>
<text text-anchor="middle" x="2671" y="-302.3" font-family="Times New Roman,serif" font-size="14.00">rx.algorithm.groupby</text>
</g>
<!-- rx.algorithm&#45;&gt;rx.algorithm.groupby -->
<g id="edge15" class="edge"><title>rx.algorithm&#45;&gt;rx.algorithm.groupby</title>
<path fill="none" stroke="black" d="M1402.37,-375.044C1562.31,-369.052 2051.71,-349.785 2457,-324 2498.23,-321.377 2543.87,-317.838 2582.38,-314.669"/>
<polygon fill="black" stroke="black" points="2582.85,-318.142 2592.53,-313.829 2582.27,-311.166 2582.85,-318.142"/>
</g>
<!-- rx.algorithm.map -->
<g id="node10" class="node"><title>rx.algorithm.map</title>
<ellipse fill="none" stroke="black" cx="2191" cy="-234" rx="72.2875" ry="18"/>
<text text-anchor="middle" x="2191" y="-230.3" font-family="Times New Roman,serif" font-size="14.00">rx.algorithm.map</text>
</g>
<!-- rx.algorithm&#45;&gt;rx.algorithm.map -->
<g id="edge16" class="edge"><title>rx.algorithm&#45;&gt;rx.algorithm.map</title>
<path fill="none" stroke="black" d="M1398.06,-370.507C1468.53,-361.047 1602.44,-342.57 1716,-324 1891.68,-295.273 1935.32,-286.285 2110,-252 2115.78,-250.865 2121.79,-249.658 2127.8,-248.431"/>
<polygon fill="black" stroke="black" points="2128.8,-251.799 2137.88,-246.355 2127.38,-244.943 2128.8,-251.799"/>
</g>
<!-- rx.algorithm.merge -->
<g id="node11" class="node"><title>rx.algorithm.merge</title>
<ellipse fill="none" stroke="black" cx="107" cy="-234" rx="78.7863" ry="18"/>
<text text-anchor="middle" x="107" y="-230.3" font-family="Times New Roman,serif" font-size="14.00">rx.algorithm.merge</text>
</g>
<!-- rx.algorithm&#45;&gt;rx.algorithm.merge -->
<g id="edge17" class="edge"><title>rx.algorithm&#45;&gt;rx.algorithm.merge</title>
<path fill="none" stroke="black" d="M1294.89,-376.545C1160.53,-374.777 801.155,-366.144 505,-324 382.569,-306.577 241.937,-271.501 164.929,-250.969"/>
<polygon fill="black" stroke="black" points="165.514,-247.502 154.949,-248.295 163.702,-254.264 165.514,-247.502"/>
</g>
<!-- rx.algorithm.scan -->
<g id="node12" class="node"><title>rx.algorithm.scan</title>
<ellipse fill="none" stroke="black" cx="749" cy="-234" rx="73.387" ry="18"/>
<text text-anchor="middle" x="749" y="-230.3" font-family="Times New Roman,serif" font-size="14.00">rx.algorithm.scan</text>
</g>
<!-- rx.algorithm&#45;&gt;rx.algorithm.scan -->
<g id="edge18" class="edge"><title>rx.algorithm&#45;&gt;rx.algorithm.scan</title>
<path fill="none" stroke="black" d="M1315.48,-363.862C1255.31,-340.354 1133.34,-293.065 1113,-288 990.821,-257.579 956.205,-272.646 832,-252 825.468,-250.914 818.667,-249.685 811.894,-248.395"/>
<polygon fill="black" stroke="black" points="812.508,-244.949 802.024,-246.474 811.17,-251.82 812.508,-244.949"/>
</g>
<!-- rx.algorithm.tee -->
<g id="node13" class="node"><title>rx.algorithm.tee</title>
<ellipse fill="none" stroke="black" cx="271" cy="-234" rx="66.8882" ry="18"/>
<text text-anchor="middle" x="271" y="-230.3" font-family="Times New Roman,serif" font-size="14.00">rx.algorithm.tee</text>
</g>
<!-- rx.algorithm&#45;&gt;rx.algorithm.tee -->
<g id="edge19" class="edge"><title>rx.algorithm&#45;&gt;rx.algorithm.tee</title>
<path fill="none" stroke="black" d="M1295.59,-374.643C1185.34,-369.324 924.739,-354.414 708,-324 545.551,-301.204 506.45,-286.134 346,-252 340.907,-250.917 335.625,-249.769 330.33,-248.601"/>
<polygon fill="black" stroke="black" points="330.699,-245.098 320.178,-246.343 329.179,-251.931 330.699,-245.098"/>
</g>
<!-- rx.algorithm.uniq -->
<g id="node14" class="node"><title>rx.algorithm.uniq</title>
<ellipse fill="none" stroke="black" cx="585" cy="-234" rx="72.2875" ry="18"/>
<text text-anchor="middle" x="585" y="-230.3" font-family="Times New Roman,serif" font-size="14.00">rx.algorithm.uniq</text>
</g>
<!-- rx.algorithm&#45;&gt;rx.algorithm.uniq -->
<g id="edge20" class="edge"><title>rx.algorithm&#45;&gt;rx.algorithm.uniq</title>
<path fill="none" stroke="black" d="M1305.54,-367.251C1203.96,-344.469 958.859,-289.548 950,-288 825.101,-266.175 792.059,-272.885 667,-252 660.695,-250.947 654.137,-249.754 647.598,-248.501"/>
<polygon fill="black" stroke="black" points="647.866,-244.987 637.379,-246.492 646.516,-251.855 647.866,-244.987"/>
</g>
<!-- rx.algorithm.combineLatest -->
<g id="node22" class="node"><title>rx.algorithm.combineLatest</title>
<ellipse fill="#e6ffed" stroke="#bef5cb" cx="1135" cy="-234" rx="109.681" ry="18"/>
<text text-anchor="middle" x="1135" y="-230.3" font-family="Times New Roman,serif" font-size="14.00">rx.algorithm.combineLatest</text>
</g>
<!-- rx.algorithm&#45;&gt;rx.algorithm.combineLatest -->
<g id="edge83" class="edge"><title>rx.algorithm&#45;&gt;rx.algorithm.combineLatest</title>
<path fill="none" stroke="#2cbe4e" d="M1340.35,-360.226C1329.32,-340.364 1308.45,-307.523 1282,-288 1259.93,-271.716 1232.37,-260.028 1207.1,-251.846"/>
<polygon fill="#2cbe4e" stroke="#2cbe4e" points="1208.13,-248.501 1197.54,-248.879 1206.05,-255.186 1208.13,-248.501"/>
</g>
<!-- rx.algorithm.all&#45;&gt;rx.disposable -->
<g id="edge21" class="edge"><title>rx.algorithm.all&#45;&gt;rx.disposable</title>
<path fill="none" stroke="black" d="M920.507,-216.515C942.644,-193.366 982.651,-153.038 1001,-144 1078.32,-105.917 1177.98,-94.5844 1243.83,-91.5307"/>
<polygon fill="black" stroke="black" points="1244.25,-95.0165 1254.09,-91.1089 1243.96,-88.0224 1244.25,-95.0165"/>
</g>
<!-- rx.algorithm.all&#45;&gt;rx.observable -->
<g id="edge22" class="edge"><title>rx.algorithm.all&#45;&gt;rx.observable</title>
<path fill="none" stroke="black" d="M958.23,-223.879C976.499,-221.006 997.103,-218.052 1016,-216 1263.5,-189.129 1326.65,-197.337 1575,-180 1628.35,-176.276 1688.75,-171.714 1733.68,-168.254"/>
<polygon fill="black" stroke="black" points="1734.19,-171.726 1743.89,-167.467 1733.65,-164.747 1734.19,-171.726"/>
</g>
<!-- rx.algorithm.all&#45;&gt;rx.observer -->
<g id="edge23" class="edge"><title>rx.algorithm.all&#45;&gt;rx.observer</title>
<path fill="none" stroke="black" d="M958.517,-223.885C976.716,-221.031 997.205,-218.085 1016,-216 1131.35,-203.204 1430.74,-226.652 1537,-180 1558.3,-170.648 1554.18,-154.386 1575,-144 1655.65,-103.761 1760.92,-93.2787 1826.75,-90.972"/>
<polygon fill="black" stroke="black" points="1827.07,-94.464 1836.97,-90.6687 1826.87,-87.4671 1827.07,-94.464"/>
</g>
<!-- rx.algorithm.all&#45;&gt;rx.util -->
<g id="edge24" class="edge"><title>rx.algorithm.all&#45;&gt;rx.util</title>
<path fill="none" stroke="black" d="M910.153,-215.965C917.107,-195.847 931.419,-162.753 955,-144 1044.16,-73.0935 1088.82,-91.807 1201,-72 1494.49,-20.1833 1855.28,-17.6925 1976.25,-18.488"/>
<polygon fill="black" stroke="black" points="1976.51,-21.9901 1986.54,-18.5678 1976.57,-14.9903 1976.51,-21.9901"/>
</g>
<!-- rx.algorithm.any&#45;&gt;rx.disposable -->
<g id="edge25" class="edge"><title>rx.algorithm.any&#45;&gt;rx.disposable</title>
<path fill="none" stroke="black" d="M475,-221.413C484.592,-219.425 494.581,-217.515 504,-216 651.845,-192.216 703.056,-242.794 839,-180 860.12,-170.244 855.947,-153.899 877,-144 940.668,-114.062 1138.8,-99.7726 1245.05,-94.1082"/>
<polygon fill="black" stroke="black" points="1245.54,-97.5872 1255.35,-93.5708 1245.18,-90.5967 1245.54,-97.5872"/>
</g>
<!-- rx.algorithm.any&#45;&gt;rx.observable -->
<g id="edge26" class="edge"><title>rx.algorithm.any&#45;&gt;rx.observable</title>
<path fill="none" stroke="black" d="M474.079,-221.054C483.934,-219.047 494.256,-217.222 504,-216 926.325,-163.028 1035.77,-198.628 1461,-180 1555.07,-175.879 1663.74,-170.303 1732.4,-166.679"/>
<polygon fill="black" stroke="black" points="1732.85,-170.16 1742.65,-166.137 1732.48,-163.17 1732.85,-170.16"/>
</g>
<!-- rx.algorithm.any&#45;&gt;rx.observer -->
<g id="edge27" class="edge"><title>rx.algorithm.any&#45;&gt;rx.observer</title>
<path fill="none" stroke="black" d="M474.08,-221.066C483.935,-219.058 494.257,-217.23 504,-216 605.385,-203.203 1328.83,-219.678 1423,-180 1444.44,-170.967 1439.96,-153.926 1461,-144 1524.59,-114.004 1725.21,-99.4951 1827.6,-93.8936"/>
<polygon fill="black" stroke="black" points="1827.99,-97.3777 1837.79,-93.3478 1827.61,-90.3877 1827.99,-97.3777"/>
</g>
<!-- rx.algorithm.any&#45;&gt;rx.util -->
<g id="edge28" class="edge"><title>rx.algorithm.any&#45;&gt;rx.util</title>
<path fill="none" stroke="black" d="M453.226,-217.293C515.958,-183.311 672.673,-103.494 815,-72 1043.39,-21.4624 1791.73,-18.7803 1976.48,-18.9057"/>
<polygon fill="black" stroke="black" points="1976.59,-22.4057 1986.6,-18.9158 1976.6,-15.4057 1976.59,-22.4057"/>
</g>
<!-- rx.algorithm.buffer&#45;&gt;rx.disposable -->
<g id="edge29" class="edge"><title>rx.algorithm.buffer&#45;&gt;rx.disposable</title>
<path fill="none" stroke="black" d="M1514.07,-216.711C1472.88,-190.827 1392.51,-140.327 1347.17,-111.842"/>
<polygon fill="black" stroke="black" points="1348.92,-108.809 1338.59,-106.452 1345.2,-114.736 1348.92,-108.809"/>
</g>
<!-- rx.algorithm.buffer&#45;&gt;rx.observable -->
<g id="edge30" class="edge"><title>rx.algorithm.buffer&#45;&gt;rx.observable</title>
<path fill="none" stroke="black" d="M1589.09,-219.834C1634.35,-207.694 1701.37,-189.721 1747.87,-177.25"/>
<polygon fill="black" stroke="black" points="1749.01,-180.569 1757.76,-174.598 1747.19,-173.808 1749.01,-180.569"/>
</g>
<!-- rx.algorithm.buffer&#45;&gt;rx.observer -->
<g id="edge31" class="edge"><title>rx.algorithm.buffer&#45;&gt;rx.observer</title>
<path fill="none" stroke="black" d="M1572.21,-217.55C1618.39,-195.496 1701.2,-156.293 1732,-144 1768.16,-129.564 1809.97,-115.577 1841.35,-105.6"/>
<polygon fill="black" stroke="black" points="1842.67,-108.855 1851.15,-102.507 1840.56,-102.179 1842.67,-108.855"/>
</g>
<!-- rx.algorithm.debounce&#45;&gt;rx.disposable -->
<g id="edge32" class="edge"><title>rx.algorithm.debounce&#45;&gt;rx.disposable</title>
<path fill="none" stroke="black" d="M1492.2,-299.874C1338.21,-290.36 1031.8,-269.356 1016,-252 940.36,-168.905 1143.67,-120.157 1251.64,-100.778"/>
<polygon fill="black" stroke="black" points="1252.54,-104.174 1261.78,-98.9936 1251.33,-97.2795 1252.54,-104.174"/>
</g>
<!-- rx.algorithm.debounce&#45;&gt;rx.observable -->
<g id="edge33" class="edge"><title>rx.algorithm.debounce&#45;&gt;rx.observable</title>
<path fill="none" stroke="black" d="M1594.93,-287.95C1617.73,-263.656 1657.85,-221.403 1666,-216 1691.21,-199.284 1722.5,-186.584 1748.6,-177.812"/>
<polygon fill="black" stroke="black" points="1749.9,-181.069 1758.33,-174.643 1747.73,-174.413 1749.9,-181.069"/>
</g>
<!-- rx.algorithm.debounce&#45;&gt;rx.observer -->
<g id="edge34" class="edge"><title>rx.algorithm.debounce&#45;&gt;rx.observer</title>
<path fill="none" stroke="black" d="M1671.14,-304.759C1850.37,-303.326 2232,-295.179 2272,-252 2282.87,-240.263 2281.36,-228.98 2272,-216 2268.3,-210.869 2062.01,-145.957 2056,-144 2015.63,-130.867 1969.64,-116.301 1936.16,-105.768"/>
<polygon fill="black" stroke="black" points="1936.78,-102.294 1926.19,-102.635 1934.68,-108.972 1936.78,-102.294"/>
</g>
<!-- rx.algorithm.debounce&#45;&gt;rx.scheduler -->
<g id="edge35" class="edge"><title>rx.algorithm.debounce&#45;&gt;rx.scheduler</title>
<path fill="none" stroke="black" d="M1613.26,-289.116C1636.16,-278.504 1666.34,-264.51 1690.28,-253.411"/>
<polygon fill="black" stroke="black" points="1691.86,-256.54 1699.46,-249.159 1688.91,-250.189 1691.86,-256.54"/>
</g>
<!-- rx.algorithm.filter&#45;&gt;rx.disposable -->
<g id="edge36" class="edge"><title>rx.algorithm.filter&#45;&gt;rx.disposable</title>
<path fill="none" stroke="black" d="M2017.16,-216.027C2002.66,-194.981 1974.81,-159.94 1941,-144 1843.94,-98.2404 1526.59,-91.5009 1384.22,-90.8414"/>
<polygon fill="black" stroke="black" points="1383.88,-87.3402 1373.87,-90.8027 1383.86,-94.3401 1383.88,-87.3402"/>
</g>
<!-- rx.algorithm.filter&#45;&gt;rx.observable -->
<g id="edge37" class="edge"><title>rx.algorithm.filter&#45;&gt;rx.observable</title>
<path fill="none" stroke="black" d="M1984.23,-219.503C1946.11,-207.747 1890.84,-190.705 1850.99,-178.415"/>
<polygon fill="black" stroke="black" points="1851.79,-175.001 1841.21,-175.399 1849.73,-181.69 1851.79,-175.001"/>
</g>
<!-- rx.algorithm.filter&#45;&gt;rx.observer -->
<g id="edge38" class="edge"><title>rx.algorithm.filter&#45;&gt;rx.observer</title>
<path fill="none" stroke="black" d="M2021.79,-215.869C2014.12,-196.565 1999.53,-165.128 1979,-144 1965.03,-129.624 1946.35,-117.782 1929.63,-108.966"/>
<polygon fill="black" stroke="black" points="1931.08,-105.779 1920.58,-104.382 1927.92,-112.024 1931.08,-105.779"/>
</g>
<!-- rx.algorithm.filter&#45;&gt;rx.util -->
<g id="edge39" class="edge"><title>rx.algorithm.filter&#45;&gt;rx.util</title>
<path fill="none" stroke="black" d="M2027.2,-215.849C2025.47,-178.832 2021.37,-91.1809 2019.28,-46.3863"/>
<polygon fill="black" stroke="black" points="2022.77,-46.0581 2018.81,-36.2325 2015.78,-46.385 2022.77,-46.0581"/>
</g>
<!-- rx.algorithm.fold&#45;&gt;rx.disposable -->
<g id="edge40" class="edge"><title>rx.algorithm.fold&#45;&gt;rx.disposable</title>
<path fill="none" stroke="black" d="M1349.24,-216.778C1338.03,-207.415 1325.54,-194.61 1319,-180 1310.33,-160.634 1309.52,-136.486 1310.63,-118.232"/>
<polygon fill="black" stroke="black" points="1314.11,-118.502 1311.46,-108.246 1307.14,-117.921 1314.11,-118.502"/>
</g>
<!-- rx.algorithm.fold&#45;&gt;rx.observable -->
<g id="edge41" class="edge"><title>rx.algorithm.fold&#45;&gt;rx.observable</title>
<path fill="none" stroke="black" d="M1423.98,-221.491C1433.29,-219.562 1442.92,-217.653 1452,-216 1551.42,-197.904 1667.56,-181.131 1737.63,-171.485"/>
<polygon fill="black" stroke="black" points="1738.19,-174.94 1747.62,-170.114 1737.24,-168.005 1738.19,-174.94"/>
</g>
<!-- rx.algorithm.fold&#45;&gt;rx.observer -->
<g id="edge42" class="edge"><title>rx.algorithm.fold&#45;&gt;rx.observer</title>
<path fill="none" stroke="black" d="M1424.6,-221.789C1494.23,-206.897 1608.78,-182.202 1613,-180 1633.91,-169.087 1631.11,-154.95 1652,-144 1707.55,-114.888 1778.56,-101.713 1828.31,-95.7836"/>
<polygon fill="black" stroke="black" points="1828.74,-99.2582 1838.28,-94.6585 1827.95,-92.3023 1828.74,-99.2582"/>
</g>
<!-- rx.algorithm.groupby&#45;&gt;rx.disposable -->
<g id="edge43" class="edge"><title>rx.algorithm.groupby&#45;&gt;rx.disposable</title>
<path fill="none" stroke="black" d="M2593.05,-297.896C2552.51,-294.433 2502.12,-290.488 2457,-288 2392.35,-284.435 1337.07,-298.489 1292,-252 1257.18,-216.084 1281.15,-152.675 1299.18,-117.094"/>
<polygon fill="black" stroke="black" points="1302.49,-118.321 1304.05,-107.842 1296.29,-115.059 1302.49,-118.321"/>
</g>
<!-- rx.algorithm.groupby&#45;&gt;rx.observable -->
<g id="edge44" class="edge"><title>rx.algorithm.groupby&#45;&gt;rx.observable</title>
<path fill="none" stroke="black" d="M2591.74,-298.534C2551.41,-295.287 2501.6,-291.342 2457,-288 2343.48,-279.493 2054.4,-286.772 1946,-252 1901.39,-237.691 1856.41,-206.954 1828.63,-185.635"/>
<polygon fill="black" stroke="black" points="1830.62,-182.746 1820.58,-179.35 1826.31,-188.263 1830.62,-182.746"/>
</g>
<!-- rx.algorithm.groupby&#45;&gt;rx.observer -->
<g id="edge45" class="edge"><title>rx.algorithm.groupby&#45;&gt;rx.observer</title>
<path fill="none" stroke="black" d="M2714.83,-290.293C2732.43,-281.98 2750.92,-269.632 2761,-252 2768.94,-238.109 2769.29,-229.682 2761,-216 2725.14,-156.841 2689.55,-162.884 2623,-144 2497.37,-108.352 2104.33,-95.8403 1951.07,-92.246"/>
<polygon fill="black" stroke="black" points="1950.97,-88.7428 1940.89,-92.0122 1950.81,-95.741 1950.97,-88.7428"/>
</g>
<!-- rx.algorithm.groupby&#45;&gt;rx.subject -->
<g id="edge46" class="edge"><title>rx.algorithm.groupby&#45;&gt;rx.subject</title>
<path fill="none" stroke="black" d="M2714.26,-290.155C2748.86,-278.284 2797.13,-261.72 2831.73,-249.848"/>
<polygon fill="black" stroke="black" points="2833.23,-253.034 2841.55,-246.478 2830.95,-246.413 2833.23,-253.034"/>
</g>
<!-- rx.algorithm.groupby&#45;&gt;rx.util -->
<g id="edge47" class="edge"><title>rx.algorithm.groupby&#45;&gt;rx.util</title>
<path fill="none" stroke="black" d="M2754.04,-300.43C2826.19,-294.517 2922.84,-281.245 2947,-252 2971.72,-222.083 2919.93,-149.599 2915,-144 2874.13,-97.6263 2854.94,-90.626 2796,-72 2656.82,-28.0192 2200.12,-20.5266 2059.55,-19.2572"/>
<polygon fill="black" stroke="black" points="2059.25,-15.7546 2049.22,-19.1701 2059.19,-22.7544 2059.25,-15.7546"/>
</g>
<!-- rx.algorithm.map&#45;&gt;rx.disposable -->
<g id="edge48" class="edge"><title>rx.algorithm.map&#45;&gt;rx.disposable</title>
<path fill="none" stroke="black" d="M2140.19,-221.106C2106.92,-212.24 2063.09,-198.474 2027,-180 2002.94,-167.687 2003.32,-153.435 1978,-144 1870.65,-104.005 1531.77,-94.1713 1384.02,-91.7692"/>
<polygon fill="black" stroke="black" points="1383.77,-88.265 1373.71,-91.6088 1383.66,-95.2642 1383.77,-88.265"/>
</g>
<!-- rx.algorithm.map&#45;&gt;rx.observable -->
<g id="edge49" class="edge"><title>rx.algorithm.map&#45;&gt;rx.observable</title>
<path fill="none" stroke="black" d="M2138.34,-221.652C2128.91,-219.706 2119.17,-217.749 2110,-216 2024.41,-199.683 1925.03,-183.048 1862.58,-172.873"/>
<polygon fill="black" stroke="black" points="1862.93,-169.385 1852.5,-171.235 1861.81,-176.294 1862.93,-169.385"/>
</g>
<!-- rx.algorithm.map&#45;&gt;rx.observer -->
<g id="edge50" class="edge"><title>rx.algorithm.map&#45;&gt;rx.observer</title>
<path fill="none" stroke="black" d="M2159.68,-217.661C2122.97,-199.747 2060.25,-169.334 2006,-144 1980.54,-132.112 1951.8,-119.087 1929.18,-108.924"/>
<polygon fill="black" stroke="black" points="1930.44,-105.654 1919.88,-104.756 1927.57,-112.041 1930.44,-105.654"/>
</g>
<!-- rx.algorithm.map&#45;&gt;rx.util -->
<g id="edge51" class="edge"><title>rx.algorithm.map&#45;&gt;rx.util</title>
<path fill="none" stroke="black" d="M2177.42,-216.208C2146.81,-178.334 2072.31,-86.1805 2037.07,-42.5917"/>
<polygon fill="black" stroke="black" points="2039.58,-40.1283 2030.57,-34.5519 2034.14,-44.529 2039.58,-40.1283"/>
</g>
<!-- rx.algorithm.merge&#45;&gt;rx.disposable -->
<g id="edge52" class="edge"><title>rx.algorithm.merge&#45;&gt;rx.disposable</title>
<path fill="none" stroke="black" d="M165.214,-221.704C175.15,-219.79 185.37,-217.831 195,-216 366.015,-183.491 407.357,-166.304 580,-144 823.036,-112.602 1113.93,-98.5011 1244.53,-93.4036"/>
<polygon fill="black" stroke="black" points="1244.93,-96.8911 1254.79,-93.0091 1244.66,-89.8962 1244.93,-96.8911"/>
</g>
<!-- rx.algorithm.merge&#45;&gt;rx.observable -->
<g id="edge53" class="edge"><title>rx.algorithm.merge&#45;&gt;rx.observable</title>
<path fill="none" stroke="black" d="M161.715,-221.021C172.689,-219.017 184.174,-217.202 195,-216 720.902,-157.631 856.203,-198.803 1385,-180 1507.22,-175.654 1649.6,-169.627 1732.1,-166.039"/>
<polygon fill="black" stroke="black" points="1732.27,-169.535 1742.11,-165.603 1731.96,-162.542 1732.27,-169.535"/>
</g>
<!-- rx.algorithm.merge&#45;&gt;rx.observer -->
<g id="edge54" class="edge"><title>rx.algorithm.merge&#45;&gt;rx.observer</title>
<path fill="none" stroke="black" d="M162.702,-221.218C173.386,-219.249 184.511,-217.395 195,-216 829.498,-131.599 1605.84,-100.46 1827.37,-92.9386"/>
<polygon fill="black" stroke="black" points="1827.62,-96.4323 1837.49,-92.5982 1827.38,-89.4362 1827.62,-96.4323"/>
</g>
<!-- rx.algorithm.merge&#45;&gt;rx.util -->
<g id="edge55" class="edge"><title>rx.algorithm.merge&#45;&gt;rx.util</title>
<path fill="none" stroke="black" d="M139.71,-217.506C213.192,-183.584 397.787,-103.282 562,-72 843.781,-18.3217 1769.13,-18.1561 1976.51,-18.8163"/>
<polygon fill="black" stroke="black" points="1976.66,-22.3168 1986.67,-18.8513 1976.68,-15.3168 1976.66,-22.3168"/>
</g>
<!-- rx.algorithm.scan&#45;&gt;rx.disposable -->
<g id="edge56" class="edge"><title>rx.algorithm.scan&#45;&gt;rx.disposable</title>
<path fill="none" stroke="black" d="M803.35,-221.826C836.985,-213.446 880.232,-199.95 915,-180 935.745,-168.097 933.357,-154.181 955,-144 1005.43,-120.276 1157.64,-104.028 1246.85,-96.2551"/>
<polygon fill="black" stroke="black" points="1247.21,-99.7372 1256.87,-95.3942 1246.61,-92.7628 1247.21,-99.7372"/>
</g>
<!-- rx.algorithm.scan&#45;&gt;rx.observable -->
<g id="edge57" class="edge"><title>rx.algorithm.scan&#45;&gt;rx.observable</title>
<path fill="none" stroke="black" d="M800.601,-221.176C810.952,-219.159 821.786,-217.299 832,-216 1143.23,-176.411 1223.78,-198.081 1537,-180 1603.77,-176.146 1679.99,-171.176 1733.32,-167.607"/>
<polygon fill="black" stroke="black" points="1733.59,-171.096 1743.33,-166.935 1733.12,-164.112 1733.59,-171.096"/>
</g>
<!-- rx.algorithm.scan&#45;&gt;rx.observer -->
<g id="edge58" class="edge"><title>rx.algorithm.scan&#45;&gt;rx.observer</title>
<path fill="none" stroke="black" d="M801.048,-221.113C811.264,-219.127 821.934,-217.295 832,-216 979.224,-197.056 1362.64,-238.644 1499,-180 1520.37,-170.809 1516.09,-154.201 1537,-144 1587.17,-119.523 1741.83,-103.198 1828.51,-95.7096"/>
<polygon fill="black" stroke="black" points="1829.07,-99.175 1838.74,-94.8402 1828.48,-92.2002 1829.07,-99.175"/>
</g>
<!-- rx.algorithm.scan&#45;&gt;rx.util -->
<g id="edge59" class="edge"><title>rx.algorithm.scan&#45;&gt;rx.util</title>
<path fill="none" stroke="black" d="M767.679,-216.528C807.986,-182.143 907.542,-103.327 1007,-72 1100.48,-42.5547 1798.6,-24.1846 1976.73,-19.9443"/>
<polygon fill="black" stroke="black" points="1976.83,-23.4429 1986.74,-19.7077 1976.66,-16.4449 1976.83,-23.4429"/>
</g>
<!-- rx.algorithm.tee&#45;&gt;rx.disposable -->
<g id="edge60" class="edge"><title>rx.algorithm.tee&#45;&gt;rx.disposable</title>
<path fill="none" stroke="black" d="M319.299,-221.471C328.156,-219.523 337.337,-217.612 346,-216 682.214,-153.443 1089.93,-111.832 1247.45,-97.0211"/>
<polygon fill="black" stroke="black" points="1247.83,-100.501 1257.46,-96.0843 1247.18,-93.5313 1247.83,-100.501"/>
</g>
<!-- rx.algorithm.tee&#45;&gt;rx.observable -->
<g id="edge61" class="edge"><title>rx.algorithm.tee&#45;&gt;rx.observable</title>
<path fill="none" stroke="black" d="M317.564,-221.01C326.923,-219.007 336.731,-217.194 346,-216 821.006,-154.789 944.434,-198.759 1423,-180 1530.99,-175.767 1656.29,-169.954 1732.05,-166.34"/>
<polygon fill="black" stroke="black" points="1732.58,-169.818 1742.41,-165.845 1732.25,-162.826 1732.58,-169.818"/>
</g>
<!-- rx.algorithm.tee&#45;&gt;rx.observer -->
<g id="edge62" class="edge"><title>rx.algorithm.tee&#45;&gt;rx.observer</title>
<path fill="none" stroke="black" d="M317.566,-221.019C326.924,-219.015 336.732,-217.2 346,-216 460.557,-201.167 1278.45,-224.611 1385,-180 1406.46,-171.015 1401.91,-153.821 1423,-144 1493.34,-111.242 1717.26,-97.8834 1827.08,-93.1959"/>
<polygon fill="black" stroke="black" points="1827.49,-96.6817 1837.34,-92.769 1827.2,-89.6877 1827.49,-96.6817"/>
</g>
<!-- rx.algorithm.tee&#45;&gt;rx.util -->
<g id="edge63" class="edge"><title>rx.algorithm.tee&#45;&gt;rx.util</title>
<path fill="none" stroke="black" d="M300.691,-217.78C368.217,-184.047 539.366,-103.499 693,-72 947.117,-19.899 1780.59,-18.4557 1976.51,-18.8568"/>
<polygon fill="black" stroke="black" points="1976.66,-22.3571 1986.66,-18.8805 1976.67,-15.3571 1976.66,-22.3571"/>
</g>
<!-- rx.algorithm.uniq&#45;&gt;rx.disposable -->
<g id="edge64" class="edge"><title>rx.algorithm.uniq&#45;&gt;rx.disposable</title>
<path fill="none" stroke="black" d="M638.319,-221.667C647.858,-219.719 657.715,-217.758 667,-216 760.042,-198.386 792.321,-222.385 877,-180 897.804,-169.587 894.003,-154.019 915,-144 972.028,-116.788 1147.61,-101.573 1245.78,-94.9852"/>
<polygon fill="black" stroke="black" points="1246.15,-98.4682 1255.9,-94.3181 1245.69,-91.4834 1246.15,-98.4682"/>
</g>
<!-- rx.algorithm.uniq&#45;&gt;rx.observable -->
<g id="edge65" class="edge"><title>rx.algorithm.uniq&#45;&gt;rx.observable</title>
<path fill="none" stroke="black" d="M635.966,-221.109C646.194,-219.098 656.901,-217.257 667,-216 1034.29,-170.284 1129.33,-198.401 1499,-180 1579.2,-176.008 1671.33,-170.72 1732.53,-167.108"/>
<polygon fill="black" stroke="black" points="1733.06,-170.583 1742.83,-166.499 1732.65,-163.596 1733.06,-170.583"/>
</g>
<!-- rx.algorithm.uniq&#45;&gt;rx.observer -->
<g id="edge66" class="edge"><title>rx.algorithm.uniq&#45;&gt;rx.observer</title>
<path fill="none" stroke="black" d="M635.968,-221.125C646.195,-219.113 656.902,-217.267 667,-216 754.625,-205.001 1379.72,-214.541 1461,-180 1482.41,-170.901 1478.02,-154.051 1499,-144 1555.86,-116.764 1733.38,-101.255 1828.07,-94.718"/>
<polygon fill="black" stroke="black" points="1828.34,-98.2078 1838.08,-94.039 1827.87,-91.2238 1828.34,-98.2078"/>
</g>
<!-- rx.algorithm.uniq&#45;&gt;rx.util -->
<g id="edge67" class="edge"><title>rx.algorithm.uniq&#45;&gt;rx.util</title>
<path fill="none" stroke="black" d="M609.478,-217.044C663.322,-182.935 797.197,-103.469 922,-72 1127.35,-20.2219 1802.69,-18.4047 1976.77,-18.8223"/>
<polygon fill="black" stroke="black" points="1976.8,-22.3223 1986.81,-18.8503 1976.82,-15.3223 1976.8,-22.3223"/>
</g>
<!-- rx.disposable&#45;&gt;rx.util -->
<g id="edge68" class="edge"><title>rx.disposable&#45;&gt;rx.util</title>
<path fill="none" stroke="black" d="M1369.83,-83.4487C1506.84,-69.8257 1857.21,-34.9872 1977.07,-23.0696"/>
<polygon fill="black" stroke="black" points="1977.68,-26.5268 1987.28,-22.0544 1976.98,-19.5611 1977.68,-26.5268"/>
</g>
<!-- rx.observable&#45;&gt;rx.disposable -->
<g id="edge69" class="edge"><title>rx.observable&#45;&gt;rx.disposable</title>
<path fill="none" stroke="black" d="M1756.14,-149.952C1746.56,-147.801 1736.47,-145.692 1727,-144 1605.35,-122.276 1462.02,-105.933 1380.2,-97.4704"/>
<polygon fill="black" stroke="black" points="1380.35,-93.9676 1370.04,-96.428 1379.63,-100.931 1380.35,-93.9676"/>
</g>
<!-- rx.observable&#45;&gt;rx.observer -->
<g id="edge70" class="edge"><title>rx.observable&#45;&gt;rx.observer</title>
<path fill="none" stroke="black" d="M1821.41,-144.765C1833.24,-135.355 1848.3,-123.378 1861.2,-113.117"/>
<polygon fill="black" stroke="black" points="1863.66,-115.63 1869.31,-106.666 1859.3,-110.152 1863.66,-115.63"/>
</g>
<!-- rx.observable&#45;&gt;rx.util -->
<g id="edge71" class="edge"><title>rx.observable&#45;&gt;rx.util</title>
<path fill="none" stroke="black" d="M1801.48,-143.76C1802.97,-123.753 1808.49,-91.0771 1828,-72 1867.81,-33.0733 1933.7,-22.214 1976.48,-19.4718"/>
<polygon fill="black" stroke="black" points="1976.75,-22.9622 1986.56,-18.9479 1976.39,-15.9716 1976.75,-22.9622"/>
</g>
<!-- rx.range&#45;&gt;rx.disposable -->
<g id="edge79" class="edge"><title>rx.range&#45;&gt;rx.disposable</title>
<path fill="none" stroke="#cb2431" d="M2367.69,-304.539C2268.76,-302.759 2016.89,-294.101 1946,-252 1895.53,-222.03 1920.75,-173.485 1870,-144 1789.18,-97.0482 1514.79,-90.755 1384.19,-90.5101"/>
<polygon fill="#cb2431" stroke="#cb2431" points="1383.91,-87.01 1373.91,-90.5028 1383.9,-94.01 1383.91,-87.01"/>
</g>
<!-- rx.range&#45;&gt;rx.observable -->
<g id="edge80" class="edge"><title>rx.range&#45;&gt;rx.observable</title>
<path fill="none" stroke="#cb2431" d="M2367.43,-304.889C2258.18,-303.981 1960.31,-297.301 1875,-252 1848.25,-237.798 1827.35,-209.475 1814.69,-188.578"/>
<polygon fill="#cb2431" stroke="#cb2431" points="1817.67,-186.74 1809.61,-179.859 1811.62,-190.262 1817.67,-186.74"/>
</g>
<!-- rx.range&#45;&gt;rx.observer -->
<g id="edge81" class="edge"><title>rx.range&#45;&gt;rx.observer</title>
<path fill="none" stroke="#cb2431" d="M2446.53,-300.274C2532.72,-289.52 2734.36,-263.279 2744,-252 2754.4,-239.837 2753.5,-228.876 2744,-216 2679.66,-128.776 2617.39,-164.72 2511,-144 2308.81,-104.621 2063.99,-94.5006 1951.29,-91.8996"/>
<polygon fill="#cb2431" stroke="#cb2431" points="1951.2,-88.397 1941.13,-91.6774 1951.05,-95.3953 1951.2,-88.397"/>
</g>
<!-- rx.range&#45;&gt;rx.util -->
<g id="edge82" class="edge"><title>rx.range&#45;&gt;rx.util</title>
<path fill="none" stroke="#cb2431" d="M2446.81,-301.045C2480.65,-297.597 2531.07,-292.463 2575,-288 2614.44,-283.992 2903.42,-281.415 2930,-252 2940.73,-240.129 2935.45,-231.044 2930,-216 2892.34,-111.99 2833.59,-101.561 2727,-72 2599.9,-36.752 2190.9,-23.4186 2059.24,-19.9754"/>
<polygon fill="#cb2431" stroke="#cb2431" points="2059.25,-16.4746 2049.17,-19.7172 2059.07,-23.4723 2059.25,-16.4746"/>
</g>
<!-- rx.range.drop -->
<g id="node23" class="node"><title>rx.range.drop</title>
<ellipse fill="#e6ffed" stroke="#bef5cb" cx="2379" cy="-234" rx="59.5901" ry="18"/>
<text text-anchor="middle" x="2379" y="-230.3" font-family="Times New Roman,serif" font-size="14.00">rx.range.drop</text>
</g>
<!-- rx.range&#45;&gt;rx.range.drop -->
<g id="edge88" class="edge"><title>rx.range&#45;&gt;rx.range.drop</title>
<path fill="none" stroke="#2cbe4e" d="M2400.98,-288.055C2397.72,-280.176 2393.76,-270.617 2390.1,-261.794"/>
<polygon fill="#2cbe4e" stroke="#2cbe4e" points="2393.22,-260.174 2386.16,-252.275 2386.75,-262.853 2393.22,-260.174"/>
</g>
<!-- rx.range.take -->
<g id="node24" class="node"><title>rx.range.take</title>
<ellipse fill="#e6ffed" stroke="#bef5cb" cx="2514" cy="-234" rx="57.3905" ry="18"/>
<text text-anchor="middle" x="2514" y="-230.3" font-family="Times New Roman,serif" font-size="14.00">rx.range.take</text>
</g>
<!-- rx.range&#45;&gt;rx.range.take -->
<g id="edge89" class="edge"><title>rx.range&#45;&gt;rx.range.take</title>
<path fill="none" stroke="#2cbe4e" d="M2429.71,-290.666C2444.77,-280.72 2465.08,-267.305 2481.99,-256.136"/>
<polygon fill="#2cbe4e" stroke="#2cbe4e" points="2484.07,-258.962 2490.48,-250.531 2480.21,-253.121 2484.07,-258.962"/>
</g>
<!-- rx.range.takeLast -->
<g id="node25" class="node"><title>rx.range.takeLast</title>
<ellipse fill="#e6ffed" stroke="#bef5cb" cx="2662" cy="-234" rx="72.5877" ry="18"/>
<text text-anchor="middle" x="2662" y="-230.3" font-family="Times New Roman,serif" font-size="14.00">rx.range.takeLast</text>
</g>
<!-- rx.range&#45;&gt;rx.range.takeLast -->
<g id="edge90" class="edge"><title>rx.range&#45;&gt;rx.range.takeLast</title>
<path fill="none" stroke="#2cbe4e" d="M2441.47,-295.777C2483.14,-284.291 2554.97,-264.495 2605.3,-250.626"/>
<polygon fill="#2cbe4e" stroke="#2cbe4e" points="2606.35,-253.966 2615.06,-247.935 2604.49,-247.218 2606.35,-253.966"/>
</g>
<!-- rx.scheduler&#45;&gt;rx.disposable -->
<g id="edge72" class="edge"><title>rx.scheduler&#45;&gt;rx.disposable</title>
<path fill="none" stroke="black" d="M1693.08,-220.398C1617.53,-194.608 1445.35,-135.834 1361.56,-107.234"/>
<polygon fill="black" stroke="black" points="1362.63,-103.901 1352.03,-103.983 1360.37,-110.526 1362.63,-103.901"/>
</g>
<!-- rx.scheduler&#45;&gt;rx.observable -->
<g id="edge73" class="edge"><title>rx.scheduler&#45;&gt;rx.observable</title>
<path fill="none" stroke="black" d="M1746.47,-216.765C1755.48,-207.882 1766.81,-196.709 1776.81,-186.854"/>
<polygon fill="black" stroke="black" points="1779.47,-189.147 1784.13,-179.633 1774.55,-184.162 1779.47,-189.147"/>
</g>
<!-- rx.scheduler&#45;&gt;rx.observer -->
<g id="edge74" class="edge"><title>rx.scheduler&#45;&gt;rx.observer</title>
<path fill="none" stroke="black" d="M1779.96,-226.287C1810.29,-219.603 1847.39,-206.32 1870,-180 1884.59,-163.01 1888.85,-137.548 1889.74,-118.205"/>
<polygon fill="black" stroke="black" points="1893.24,-118.248 1889.94,-108.182 1886.24,-118.112 1893.24,-118.248"/>
</g>
<!-- rx.subject&#45;&gt;rx.disposable -->
<g id="edge75" class="edge"><title>rx.subject&#45;&gt;rx.disposable</title>
<path fill="none" stroke="black" d="M2835.02,-224.889C2745.41,-207.054 2521.49,-164.398 2332,-144 2147.36,-124.123 1581.28,-101.216 1383.27,-93.6064"/>
<polygon fill="black" stroke="black" points="1383.12,-90.0983 1372.99,-93.2127 1382.85,-97.0932 1383.12,-90.0983"/>
</g>
<!-- rx.subject&#45;&gt;rx.observable -->
<g id="edge76" class="edge"><title>rx.subject&#45;&gt;rx.observable</title>
<path fill="none" stroke="black" d="M2832.61,-226.703C2807,-223.098 2773.69,-218.757 2744,-216 2418.01,-185.728 2026.9,-170.436 1870.54,-165.172"/>
<polygon fill="black" stroke="black" points="1870.25,-161.661 1860.14,-164.825 1870.02,-168.657 1870.25,-161.661"/>
</g>
<!-- rx.subject&#45;&gt;rx.observer -->
<g id="edge77" class="edge"><title>rx.subject&#45;&gt;rx.observer</title>
<path fill="none" stroke="black" d="M2869,-216.029C2860.57,-194.984 2843.02,-159.946 2815,-144 2740.33,-101.502 2146.52,-93.0271 1951.1,-91.3838"/>
<polygon fill="black" stroke="black" points="1951.03,-87.8832 1941,-91.302 1950.97,-94.8829 1951.03,-87.8832"/>
</g>
<!-- rx.subject&#45;&gt;rx.util -->
<g id="edge78" class="edge"><title>rx.subject&#45;&gt;rx.util</title>
<path fill="none" stroke="black" d="M2874.52,-215.662C2872.95,-195.245 2867.08,-161.857 2846,-144 2725.08,-41.5659 2209.59,-22.9445 2059.29,-19.6737"/>
<polygon fill="black" stroke="black" points="2059.18,-16.1708 2049.11,-19.4638 2059.03,-23.1693 2059.18,-16.1708"/>
</g>
<!-- rx.algorithm.combineLatest&#45;&gt;rx.disposable -->
<g id="edge84" class="edge"><title>rx.algorithm.combineLatest&#45;&gt;rx.disposable</title>
<path fill="none" stroke="#2cbe4e" d="M1155.07,-215.975C1176.58,-197.842 1211.84,-168.445 1243,-144 1256.18,-133.663 1270.99,-122.532 1283.66,-113.152"/>
<polygon fill="#2cbe4e" stroke="#2cbe4e" points="1286.07,-115.721 1292.04,-106.97 1281.92,-110.087 1286.07,-115.721"/>
</g>
<!-- rx.algorithm.combineLatest&#45;&gt;rx.observable -->
<g id="edge85" class="edge"><title>rx.algorithm.combineLatest&#45;&gt;rx.observable</title>
<path fill="none" stroke="#2cbe4e" d="M1223.84,-223.317C1246.09,-220.908 1269.92,-218.345 1292,-216 1451.14,-199.099 1638.33,-179.743 1735.3,-169.753"/>
<polygon fill="#2cbe4e" stroke="#2cbe4e" points="1735.67,-173.235 1745.26,-168.729 1734.95,-166.272 1735.67,-173.235"/>
</g>
<!-- rx.algorithm.combineLatest&#45;&gt;rx.observer -->
<g id="edge86" class="edge"><title>rx.algorithm.combineLatest&#45;&gt;rx.observer</title>
<path fill="none" stroke="#2cbe4e" d="M1222.83,-223.119C1348.93,-208.835 1567.09,-183.713 1575,-180 1596.06,-170.109 1592.3,-154.62 1613,-144 1680.98,-109.121 1769.07,-97.0814 1827.23,-92.9906"/>
<polygon fill="#2cbe4e" stroke="#2cbe4e" points="1827.61,-96.473 1837.37,-92.3365 1827.16,-89.4875 1827.61,-96.473"/>
</g>
<!-- rx.algorithm.combineLatest&#45;&gt;rx.util -->
<g id="edge87" class="edge"><title>rx.algorithm.combineLatest&#45;&gt;rx.util</title>
<path fill="none" stroke="#2cbe4e" d="M1140.9,-215.783C1153.7,-181.436 1187.56,-104.881 1245,-72 1308.63,-35.5741 1824.52,-22.7515 1976.2,-19.7483"/>
<polygon fill="#2cbe4e" stroke="#2cbe4e" points="1976.55,-23.2423 1986.48,-19.5489 1976.42,-16.2436 1976.55,-23.2423"/>
</g>
<!-- rx.range.drop&#45;&gt;rx.disposable -->
<g id="edge91" class="edge"><title>rx.range.drop&#45;&gt;rx.disposable</title>
<path fill="none" stroke="#2cbe4e" d="M2334.33,-221.917C2239.28,-198.344 2024.95,-145.268 2017,-144 1787.17,-107.343 1510.9,-95.9007 1383.98,-92.4398"/>
<polygon fill="#2cbe4e" stroke="#2cbe4e" points="1383.73,-88.932 1373.64,-92.1665 1383.54,-95.9295 1383.73,-88.932"/>
</g>
<!-- rx.range.drop&#45;&gt;rx.observable -->
<g id="edge92" class="edge"><title>rx.range.drop&#45;&gt;rx.observable</title>
<path fill="none" stroke="#2cbe4e" d="M2328.18,-224.441C2310.43,-221.581 2290.36,-218.49 2272,-216 2127.93,-196.459 1958.36,-178.645 1867.12,-169.482"/>
<polygon fill="#2cbe4e" stroke="#2cbe4e" points="1867.23,-165.975 1856.93,-168.462 1866.53,-172.94 1867.23,-165.975"/>
</g>
<!-- rx.range.drop&#45;&gt;rx.observer -->
<g id="edge93" class="edge"><title>rx.range.drop&#45;&gt;rx.observer</title>
<path fill="none" stroke="#2cbe4e" d="M2349.84,-218.274C2309.95,-198.687 2235.7,-164.193 2169,-144 2093.84,-121.247 2004.25,-106.335 1947.01,-98.2866"/>
<polygon fill="#2cbe4e" stroke="#2cbe4e" points="1947.44,-94.8135 1937.06,-96.911 1946.49,-101.748 1947.44,-94.8135"/>
</g>
<!-- rx.range.drop&#45;&gt;rx.util -->
<g id="edge94" class="edge"><title>rx.range.drop&#45;&gt;rx.util</title>
<path fill="none" stroke="#2cbe4e" d="M2353.04,-217.61C2287.75,-178.904 2116.99,-77.6838 2047.78,-36.6553"/>
<polygon fill="#2cbe4e" stroke="#2cbe4e" points="2049.48,-33.5927 2039.09,-31.5041 2045.91,-39.6142 2049.48,-33.5927"/>
</g>
<!-- rx.range.take&#45;&gt;rx.disposable -->
<g id="edge95" class="edge"><title>rx.range.take&#45;&gt;rx.disposable</title>
<path fill="none" stroke="#2cbe4e" d="M2472.08,-221.681C2398.15,-202.227 2239.52,-162.739 2103,-144 1838.94,-107.755 1521.62,-96.0029 1383.69,-92.4394"/>
<polygon fill="#2cbe4e" stroke="#2cbe4e" points="1383.76,-88.9402 1373.67,-92.187 1383.58,-95.938 1383.76,-88.9402"/>
</g>
<!-- rx.range.take&#45;&gt;rx.observable -->
<g id="edge96" class="edge"><title>rx.range.take&#45;&gt;rx.observable</title>
<path fill="none" stroke="#2cbe4e" d="M2473.04,-221.297C2464.8,-219.271 2456.17,-217.376 2448,-216 2239.58,-180.885 1989.31,-168.776 1870.36,-164.81"/>
<polygon fill="#2cbe4e" stroke="#2cbe4e" points="1870.4,-161.31 1860.29,-164.484 1870.18,-168.306 1870.4,-161.31"/>
</g>
<!-- rx.range.take&#45;&gt;rx.observer -->
<g id="edge97" class="edge"><title>rx.range.take&#45;&gt;rx.observer</title>
<path fill="none" stroke="#2cbe4e" d="M2489.18,-217.677C2454.79,-197.245 2390.1,-161.613 2330,-144 2198.8,-105.553 2037.81,-94.9386 1951.22,-92.0463"/>
<polygon fill="#2cbe4e" stroke="#2cbe4e" points="1951.14,-88.5422 1941.04,-91.7305 1950.92,-95.5388 1951.14,-88.5422"/>
</g>
<!-- rx.range.take&#45;&gt;rx.util -->
<g id="edge98" class="edge"><title>rx.range.take&#45;&gt;rx.util</title>
<path fill="none" stroke="#2cbe4e" d="M2495.05,-216.945C2471.33,-197.494 2428.82,-164.757 2388,-144 2273.31,-85.6864 2125.35,-45.1416 2056.46,-28.0636"/>
<polygon fill="#2cbe4e" stroke="#2cbe4e" points="2057.04,-24.6014 2046.49,-25.6198 2055.37,-31.4001 2057.04,-24.6014"/>
</g>
<!-- rx.range.takeLast&#45;&gt;rx.disposable -->
<g id="edge99" class="edge"><title>rx.range.takeLast&#45;&gt;rx.disposable</title>
<path fill="none" stroke="#2cbe4e" d="M2612.2,-220.773C2529.76,-201.062 2359.44,-162.595 2213,-144 1905.59,-104.965 1535.33,-94.6044 1383.79,-91.9157"/>
<polygon fill="#2cbe4e" stroke="#2cbe4e" points="1383.75,-88.4147 1373.69,-91.7423 1383.63,-95.4136 1383.75,-88.4147"/>
</g>
<!-- rx.range.takeLast&#45;&gt;rx.observable -->
<g id="edge100" class="edge"><title>rx.range.takeLast&#45;&gt;rx.observable</title>
<path fill="none" stroke="#2cbe4e" d="M2610.57,-221.219C2600.48,-219.225 2589.94,-217.362 2580,-216 2319.85,-180.354 2007.39,-168.307 1870.72,-164.555"/>
<polygon fill="#2cbe4e" stroke="#2cbe4e" points="1870.49,-161.048 1860.4,-164.279 1870.31,-168.046 1870.49,-161.048"/>
</g>
<!-- rx.range.takeLast&#45;&gt;rx.observer -->
<g id="edge101" class="edge"><title>rx.range.takeLast&#45;&gt;rx.observer</title>
<path fill="none" stroke="#2cbe4e" d="M2625.03,-218.441C2599.32,-208.132 2564.34,-193.746 2534,-180 2501.05,-165.072 2495.81,-153.833 2461,-144 2366.36,-117.271 2078.1,-100.271 1950.68,-93.8729"/>
<polygon fill="#2cbe4e" stroke="#2cbe4e" points="1950.48,-90.359 1940.32,-93.3585 1950.14,-97.3504 1950.48,-90.359"/>
</g>
<!-- rx.range.takeLast&#45;&gt;rx.util -->
<g id="edge102" class="edge"><title>rx.range.takeLast&#45;&gt;rx.util</title>
<path fill="none" stroke="#2cbe4e" d="M2630.39,-217.574C2564.93,-186.174 2409.22,-114.238 2272,-72 2197.84,-49.1729 2108.49,-33.0699 2057.96,-24.9766"/>
<polygon fill="#2cbe4e" stroke="#2cbe4e" points="2058.21,-21.4728 2047.78,-23.3717 2057.12,-28.3873 2058.21,-21.4728"/>
</g>
</g>
</svg>
