<?xml version="1.0" encoding="UTF-8" standalone="no"?>
<!DOCTYPE svg PUBLIC "-//W3C//DTD SVG 1.1//EN"
 "http://www.w3.org/Graphics/SVG/1.1/DTD/svg11.dtd">
<!-- Generated by graphviz version 2.38.0 (20140413.2041)
 -->
<!-- Title: %3 Pages: 1 -->
<svg width="3039pt" height="476pt"
 viewBox="0.00 0.00 3039.45 476.00" xmlns="http://www.w3.org/2000/svg" xmlns:xlink="http://www.w3.org/1999/xlink">
<g id="graph0" class="graph" transform="scale(1 1) rotate(0) translate(4 472)">
<title>%3</title>
<polygon fill="white" stroke="none" points="-4,4 -4,-472 3035.45,-472 3035.45,4 -4,4"/>
<!-- rx -->
<g id="node1" class="node"><title>rx</title>
<ellipse fill="none" stroke="black" cx="1649.45" cy="-450" rx="27" ry="18"/>
<text text-anchor="middle" x="1649.45" y="-446.3" font-family="Times New Roman,serif" font-size="14.00">rx</text>
</g>
<!-- rx.algorithm -->
<g id="node2" class="node"><title>rx.algorithm</title>
<ellipse fill="none" stroke="black" cx="1236.45" cy="-378" rx="53.8905" ry="18"/>
<text text-anchor="middle" x="1236.45" y="-374.3" font-family="Times New Roman,serif" font-size="14.00">rx.algorithm</text>
</g>
<!-- rx&#45;&gt;rx.algorithm -->
<g id="edge1" class="edge"><title>rx&#45;&gt;rx.algorithm</title>
<path fill="none" stroke="black" d="M1623.61,-444.621C1558.15,-433.525 1384.51,-404.096 1293.67,-388.698"/>
<polygon fill="black" stroke="black" points="1293.99,-385.203 1283.54,-386.982 1292.82,-392.104 1293.99,-385.203"/>
</g>
<!-- rx.disposable -->
<g id="node15" class="node"><title>rx.disposable</title>
<ellipse fill="none" stroke="black" cx="1429.45" cy="-90" rx="59.5901" ry="18"/>
<text text-anchor="middle" x="1429.45" y="-86.3" font-family="Times New Roman,serif" font-size="14.00">rx.disposable</text>
</g>
<!-- rx&#45;&gt;rx.disposable -->
<g id="edge2" class="edge"><title>rx&#45;&gt;rx.disposable</title>
<path fill="none" stroke="black" d="M1622.39,-447.901C1420.82,-439.431 158.192,-381.363 57.4462,-252 -17.9011,-155.25 -106.962,-209.805 427.446,-144 775.325,-101.164 1195.34,-92.9228 1359.2,-91.3575"/>
<polygon fill="black" stroke="black" points="1359.65,-94.8537 1369.62,-91.2637 1359.59,-87.854 1359.65,-94.8537"/>
</g>
<!-- rx.observable -->
<g id="node16" class="node"><title>rx.observable</title>
<ellipse fill="none" stroke="black" cx="1593.45" cy="-162" rx="59.5901" ry="18"/>
<text text-anchor="middle" x="1593.45" y="-158.3" font-family="Times New Roman,serif" font-size="14.00">rx.observable</text>
</g>
<!-- rx&#45;&gt;rx.observable -->
<g id="edge3" class="edge"><title>rx&#45;&gt;rx.observable</title>
<path fill="none" stroke="black" d="M1651.02,-431.986C1654.03,-392.62 1658.07,-292.759 1630.45,-216 1626.89,-206.126 1621,-196.393 1614.95,-188.016"/>
<polygon fill="black" stroke="black" points="1617.54,-185.639 1608.68,-179.829 1611.98,-189.896 1617.54,-185.639"/>
</g>
<!-- rx.observer -->
<g id="node17" class="node"><title>rx.observer</title>
<ellipse fill="none" stroke="black" cx="1812.45" cy="-90" rx="51.9908" ry="18"/>
<text text-anchor="middle" x="1812.45" y="-86.3" font-family="Times New Roman,serif" font-size="14.00">rx.observer</text>
</g>
<!-- rx&#45;&gt;rx.observer -->
<g id="edge4" class="edge"><title>rx&#45;&gt;rx.observer</title>
<path fill="none" stroke="black" d="M1676.08,-447.028C1851.51,-433.765 2836.66,-354.95 2915.45,-252 3001.26,-139.872 2941.48,-190.07 2725.45,-144 2562.44,-109.239 2052.76,-95.8474 1874.64,-92.1538"/>
<polygon fill="black" stroke="black" points="1874.47,-88.6496 1864.4,-91.9446 1874.32,-95.6482 1874.47,-88.6496"/>
</g>
<!-- rx.range -->
<g id="node18" class="node"><title>rx.range</title>
<ellipse fill="none" stroke="black" cx="2600.45" cy="-306" rx="40.0939" ry="18"/>
<text text-anchor="middle" x="2600.45" y="-302.3" font-family="Times New Roman,serif" font-size="14.00">rx.range</text>
</g>
<!-- rx&#45;&gt;rx.range -->
<g id="edge5" class="edge"><title>rx&#45;&gt;rx.range</title>
<path fill="none" stroke="black" d="M1675.87,-445.054C1806.4,-425.564 2382.81,-339.497 2552.99,-314.086"/>
<polygon fill="black" stroke="black" points="2553.53,-317.545 2562.9,-312.606 2552.49,-310.621 2553.53,-317.545"/>
</g>
<!-- rx.scheduler -->
<g id="node19" class="node"><title>rx.scheduler</title>
<ellipse fill="none" stroke="black" cx="1566.45" cy="-234" rx="55.4913" ry="18"/>
<text text-anchor="middle" x="1566.45" y="-230.3" font-family="Times New Roman,serif" font-size="14.00">rx.scheduler</text>
</g>
<!-- rx&#45;&gt;rx.scheduler -->
<g id="edge6" class="edge"><title>rx&#45;&gt;rx.scheduler</title>
<path fill="none" stroke="black" d="M1642.93,-432.208C1628.57,-395.186 1594.1,-306.297 1576.76,-261.604"/>
<polygon fill="black" stroke="black" points="1579.92,-260.068 1573.04,-252.01 1573.4,-262.599 1579.92,-260.068"/>
</g>
<!-- rx.util -->
<g id="node20" class="node"><title>rx.util</title>
<ellipse fill="none" stroke="black" cx="1985.45" cy="-18" rx="31.3957" ry="18"/>
<text text-anchor="middle" x="1985.45" y="-14.3" font-family="Times New Roman,serif" font-size="14.00">rx.util</text>
</g>
<!-- rx&#45;&gt;rx.util -->
<g id="edge7" class="edge"><title>rx&#45;&gt;rx.util</title>
<path fill="none" stroke="black" d="M1676.43,-449.153C1869.36,-449.904 3031.45,-448.551 3031.45,-307 3031.45,-307 3031.45,-307 3031.45,-161 3031.45,-57.7525 2220.89,-26.2433 2026.83,-20.1789"/>
<polygon fill="black" stroke="black" points="2026.85,-16.6781 2016.75,-19.8697 2026.64,-23.6748 2026.85,-16.6781"/>
</g>
<!-- rx.algorithm.all -->
<g id="node3" class="node"><title>rx.algorithm.all</title>
<ellipse fill="none" stroke="black" cx="803.446" cy="-234" rx="64.189" ry="18"/>
<text text-anchor="middle" x="803.446" y="-230.3" font-family="Times New Roman,serif" font-size="14.00">rx.algorithm.all</text>
</g>
<!-- rx.algorithm&#45;&gt;rx.algorithm.all -->
<g id="edge8" class="edge"><title>rx.algorithm&#45;&gt;rx.algorithm.all</title>
<path fill="none" stroke="black" d="M1205.07,-363.089C1155.14,-341.075 1059.63,-299.52 1024.45,-288 994.794,-278.291 917.43,-260.35 862.624,-248.054"/>
<polygon fill="black" stroke="black" points="863.193,-244.594 852.67,-245.827 861.664,-251.426 863.193,-244.594"/>
</g>
<!-- rx.algorithm.any -->
<g id="node4" class="node"><title>rx.algorithm.any</title>
<ellipse fill="none" stroke="black" cx="1947.45" cy="-234" rx="69.5877" ry="18"/>
<text text-anchor="middle" x="1947.45" y="-230.3" font-family="Times New Roman,serif" font-size="14.00">rx.algorithm.any</text>
</g>
<!-- rx.algorithm&#45;&gt;rx.algorithm.any -->
<g id="edge9" class="edge"><title>rx.algorithm&#45;&gt;rx.algorithm.any</title>
<path fill="none" stroke="black" d="M1288.51,-373.026C1348.9,-367.215 1450.75,-353.673 1533.45,-324 1564.16,-312.978 1566.49,-298.335 1597.45,-288 1712.7,-249.522 1748.74,-272.797 1868.45,-252 1874.52,-250.944 1880.84,-249.75 1887.14,-248.495"/>
<polygon fill="black" stroke="black" points="1887.89,-251.914 1896.99,-246.485 1886.49,-245.056 1887.89,-251.914"/>
</g>
<!-- rx.algorithm.buffer -->
<g id="node5" class="node"><title>rx.algorithm.buffer</title>
<ellipse fill="none" stroke="black" cx="1216.45" cy="-234" rx="78.7863" ry="18"/>
<text text-anchor="middle" x="1216.45" y="-230.3" font-family="Times New Roman,serif" font-size="14.00">rx.algorithm.buffer</text>
</g>
<!-- rx.algorithm&#45;&gt;rx.algorithm.buffer -->
<g id="edge10" class="edge"><title>rx.algorithm&#45;&gt;rx.algorithm.buffer</title>
<path fill="none" stroke="black" d="M1234.03,-359.871C1230.63,-335.67 1224.36,-291.211 1220.3,-262.393"/>
<polygon fill="black" stroke="black" points="1223.73,-261.603 1218.87,-252.189 1216.8,-262.58 1223.73,-261.603"/>
</g>
<!-- rx.algorithm.debounce -->
<g id="node6" class="node"><title>rx.algorithm.debounce</title>
<ellipse fill="none" stroke="black" cx="1377.45" cy="-306" rx="92.0841" ry="18"/>
<text text-anchor="middle" x="1377.45" y="-302.3" font-family="Times New Roman,serif" font-size="14.00">rx.algorithm.debounce</text>
</g>
<!-- rx.algorithm&#45;&gt;rx.algorithm.debounce -->
<g id="edge11" class="edge"><title>rx.algorithm&#45;&gt;rx.algorithm.debounce</title>
<path fill="none" stroke="black" d="M1265.32,-362.666C1285.71,-352.541 1313.35,-338.822 1336.08,-327.537"/>
<polygon fill="black" stroke="black" points="1337.76,-330.608 1345.16,-323.026 1334.65,-324.338 1337.76,-330.608"/>
</g>
<!-- rx.algorithm.filter -->
<g id="node7" class="node"><title>rx.algorithm.filter</title>
<ellipse fill="none" stroke="black" cx="139.446" cy="-234" rx="72.5877" ry="18"/>
<text text-anchor="middle" x="139.446" y="-230.3" font-family="Times New Roman,serif" font-size="14.00">rx.algorithm.filter</text>
</g>
<!-- rx.algorithm&#45;&gt;rx.algorithm.filter -->
<g id="edge12" class="edge"><title>rx.algorithm&#45;&gt;rx.algorithm.filter</title>
<path fill="none" stroke="black" d="M1182.85,-375.733C1064.27,-372.33 770.987,-360.612 528.446,-324 408.471,-305.89 270.589,-270.904 195.453,-250.609"/>
<polygon fill="black" stroke="black" points="196.287,-247.209 185.719,-247.967 194.453,-253.965 196.287,-247.209"/>
</g>
<!-- rx.algorithm.fold -->
<g id="node8" class="node"><title>rx.algorithm.fold</title>
<ellipse fill="none" stroke="black" cx="1384.45" cy="-234" rx="71.4873" ry="18"/>
<text text-anchor="middle" x="1384.45" y="-230.3" font-family="Times New Roman,serif" font-size="14.00">rx.algorithm.fold</text>
</g>
<!-- rx.algorithm&#45;&gt;rx.algorithm.fold -->
<g id="edge13" class="edge"><title>rx.algorithm&#45;&gt;rx.algorithm.fold</title>
<path fill="none" stroke="black" d="M1240.36,-359.934C1245.62,-340.396 1256.67,-308.461 1276.45,-288 1291.6,-272.321 1312.36,-260.615 1331.63,-252.249"/>
<polygon fill="black" stroke="black" points="1333.03,-255.458 1340.94,-248.408 1330.36,-248.987 1333.03,-255.458"/>
</g>
<!-- rx.algorithm.groupby -->
<g id="node9" class="node"><title>rx.algorithm.groupby</title>
<ellipse fill="none" stroke="black" cx="482.446" cy="-234" rx="87.1846" ry="18"/>
<text text-anchor="middle" x="482.446" y="-230.3" font-family="Times New Roman,serif" font-size="14.00">rx.algorithm.groupby</text>
</g>
<!-- rx.algorithm&#45;&gt;rx.algorithm.groupby -->
<g id="edge14" class="edge"><title>rx.algorithm&#45;&gt;rx.algorithm.groupby</title>
<path fill="none" stroke="black" d="M1186.73,-370.751C1117.74,-361.819 989.183,-344.225 880.446,-324 761.698,-301.913 624.479,-269.742 546.136,-250.734"/>
<polygon fill="black" stroke="black" points="546.49,-247.218 535.946,-248.255 544.836,-254.02 546.49,-247.218"/>
</g>
<!-- rx.algorithm.map -->
<g id="node10" class="node"><title>rx.algorithm.map</title>
<ellipse fill="none" stroke="black" cx="1787.45" cy="-234" rx="72.2875" ry="18"/>
<text text-anchor="middle" x="1787.45" y="-230.3" font-family="Times New Roman,serif" font-size="14.00">rx.algorithm.map</text>
</g>
<!-- rx.algorithm&#45;&gt;rx.algorithm.map -->
<g id="edge15" class="edge"><title>rx.algorithm&#45;&gt;rx.algorithm.map</title>
<path fill="none" stroke="black" d="M1284.05,-369.515C1333.41,-361.074 1412.44,-345.646 1478.45,-324 1515.88,-311.723 1522.09,-300.516 1559.45,-288 1612.58,-270.198 1674.62,-256.197 1720.55,-247.067"/>
<polygon fill="black" stroke="black" points="1721.26,-250.496 1730.4,-245.137 1719.91,-243.627 1721.26,-250.496"/>
</g>
<!-- rx.algorithm.merge -->
<g id="node11" class="node"><title>rx.algorithm.merge</title>
<ellipse fill="none" stroke="black" cx="1002.45" cy="-234" rx="78.7863" ry="18"/>
<text text-anchor="middle" x="1002.45" y="-230.3" font-family="Times New Roman,serif" font-size="14.00">rx.algorithm.merge</text>
</g>
<!-- rx.algorithm&#45;&gt;rx.algorithm.merge -->
<g id="edge16" class="edge"><title>rx.algorithm&#45;&gt;rx.algorithm.merge</title>
<path fill="none" stroke="black" d="M1217.15,-360.953C1193.93,-342.094 1153.33,-310.521 1115.45,-288 1094.13,-275.325 1069.28,-263.388 1048.32,-254.064"/>
<polygon fill="black" stroke="black" points="1049.56,-250.784 1038.99,-249.97 1046.74,-257.194 1049.56,-250.784"/>
</g>
<!-- rx.algorithm.scan -->
<g id="node12" class="node"><title>rx.algorithm.scan</title>
<ellipse fill="none" stroke="black" cx="303.446" cy="-234" rx="73.387" ry="18"/>
<text text-anchor="middle" x="303.446" y="-230.3" font-family="Times New Roman,serif" font-size="14.00">rx.algorithm.scan</text>
</g>
<!-- rx.algorithm&#45;&gt;rx.algorithm.scan -->
<g id="edge17" class="edge"><title>rx.algorithm&#45;&gt;rx.algorithm.scan</title>
<path fill="none" stroke="black" d="M1183.76,-373.657C1089.02,-367.206 883.798,-351.219 712.446,-324 586.496,-303.993 441.023,-269.592 361.983,-249.933"/>
<polygon fill="black" stroke="black" points="362.763,-246.521 352.213,-247.494 361.067,-253.312 362.763,-246.521"/>
</g>
<!-- rx.algorithm.tee -->
<g id="node13" class="node"><title>rx.algorithm.tee</title>
<ellipse fill="none" stroke="black" cx="654.446" cy="-234" rx="66.8882" ry="18"/>
<text text-anchor="middle" x="654.446" y="-230.3" font-family="Times New Roman,serif" font-size="14.00">rx.algorithm.tee</text>
</g>
<!-- rx.algorithm&#45;&gt;rx.algorithm.tee -->
<g id="edge18" class="edge"><title>rx.algorithm&#45;&gt;rx.algorithm.tee</title>
<path fill="none" stroke="black" d="M1194.7,-366.561C1100.87,-343.103 881.42,-288.236 880.446,-288 823.823,-274.283 759.08,-259.157 713.445,-248.587"/>
<polygon fill="black" stroke="black" points="713.962,-245.114 703.43,-246.27 712.384,-251.934 713.962,-245.114"/>
</g>
<!-- rx.algorithm.uniq -->
<g id="node14" class="node"><title>rx.algorithm.uniq</title>
<ellipse fill="none" stroke="black" cx="2107.45" cy="-234" rx="72.2875" ry="18"/>
<text text-anchor="middle" x="2107.45" y="-230.3" font-family="Times New Roman,serif" font-size="14.00">rx.algorithm.uniq</text>
</g>
<!-- rx.algorithm&#45;&gt;rx.algorithm.uniq -->
<g id="edge19" class="edge"><title>rx.algorithm&#45;&gt;rx.algorithm.uniq</title>
<path fill="none" stroke="black" d="M1285.14,-370.207C1409.16,-352.709 1746.89,-303.82 2026.45,-252 2032.33,-250.909 2038.44,-249.724 2044.55,-248.503"/>
<polygon fill="black" stroke="black" points="2045.69,-251.844 2054.8,-246.426 2044.3,-244.983 2045.69,-251.844"/>
</g>
<!-- rx.algorithm.combineLatest -->
<g id="node21" class="node"><title>rx.algorithm.combineLatest</title>
<ellipse fill="#e6ffed" stroke="#bef5cb" cx="2307.45" cy="-234" rx="109.681" ry="18"/>
<text text-anchor="middle" x="2307.45" y="-230.3" font-family="Times New Roman,serif" font-size="14.00">rx.algorithm.combineLatest</text>
</g>
<!-- rx.algorithm&#45;&gt;rx.algorithm.combineLatest -->
<g id="edge77" class="edge"><title>rx.algorithm&#45;&gt;rx.algorithm.combineLatest</title>
<path fill="none" stroke="#2cbe4e" d="M1287.54,-372.068C1375.62,-363.411 1561.72,-344.449 1718.45,-324 1898.37,-300.524 2108.34,-267.421 2222.65,-248.915"/>
<polygon fill="#2cbe4e" stroke="#2cbe4e" points="2223.42,-252.335 2232.74,-247.28 2222.3,-245.426 2223.42,-252.335"/>
</g>
<!-- rx.algorithm.all&#45;&gt;rx.disposable -->
<g id="edge20" class="edge"><title>rx.algorithm.all&#45;&gt;rx.disposable</title>
<path fill="none" stroke="black" d="M822.941,-216.567C848.844,-195.753 896.893,-160.605 944.446,-144 1019.65,-117.742 1246.12,-101.46 1361.01,-94.668"/>
<polygon fill="black" stroke="black" points="1361.32,-98.1559 1371.1,-94.079 1360.92,-91.1678 1361.32,-98.1559"/>
</g>
<!-- rx.algorithm.all&#45;&gt;rx.observable -->
<g id="edge21" class="edge"><title>rx.algorithm.all&#45;&gt;rx.observable</title>
<path fill="none" stroke="black" d="M856.974,-223.982C875.174,-221.135 895.66,-218.169 914.446,-216 1031.52,-202.485 1377.97,-177.882 1525.59,-167.653"/>
<polygon fill="black" stroke="black" points="1526.14,-171.124 1535.87,-166.942 1525.65,-164.141 1526.14,-171.124"/>
</g>
<!-- rx.algorithm.all&#45;&gt;rx.observer -->
<g id="edge22" class="edge"><title>rx.algorithm.all&#45;&gt;rx.observer</title>
<path fill="none" stroke="black" d="M857.278,-224.126C875.41,-221.305 895.776,-218.319 914.446,-216 997.963,-205.626 1214.84,-214.838 1291.45,-180 1312.62,-170.37 1308.34,-153.779 1329.45,-144 1402.84,-110 1637.3,-97.1982 1750.34,-92.9143"/>
<polygon fill="black" stroke="black" points="1750.7,-96.4035 1760.56,-92.5376 1750.44,-89.4082 1750.7,-96.4035"/>
</g>
<!-- rx.algorithm.all&#45;&gt;rx.util -->
<g id="edge23" class="edge"><title>rx.algorithm.all&#45;&gt;rx.util</title>
<path fill="none" stroke="black" d="M824.499,-216.856C870.358,-182.742 983.964,-103.847 1093.45,-72 1256.01,-24.7128 1789.77,-19.5326 1943.61,-19.0329"/>
<polygon fill="black" stroke="black" points="1944.03,-22.5318 1954.02,-19.0045 1944.01,-15.5319 1944.03,-22.5318"/>
</g>
<!-- rx.algorithm.any&#45;&gt;rx.disposable -->
<g id="edge24" class="edge"><title>rx.algorithm.any&#45;&gt;rx.disposable</title>
<path fill="none" stroke="black" d="M1902.14,-220.312C1868.44,-210.449 1821.55,-195.819 1781.45,-180 1746.68,-166.286 1740.97,-155.617 1705.45,-144 1635.05,-120.979 1551.09,-106.624 1494.41,-98.7521"/>
<polygon fill="black" stroke="black" points="1494.53,-95.2367 1484.15,-97.357 1493.59,-102.173 1494.53,-95.2367"/>
</g>
<!-- rx.algorithm.any&#45;&gt;rx.observable -->
<g id="edge25" class="edge"><title>rx.algorithm.any&#45;&gt;rx.observable</title>
<path fill="none" stroke="black" d="M1896.06,-221.774C1886.87,-219.815 1877.38,-217.822 1868.45,-216 1794.33,-200.886 1708.74,-184.569 1652.99,-174.093"/>
<polygon fill="black" stroke="black" points="1653.41,-170.611 1642.94,-172.206 1652.12,-177.491 1653.41,-170.611"/>
</g>
<!-- rx.algorithm.any&#45;&gt;rx.observer -->
<g id="edge26" class="edge"><title>rx.algorithm.any&#45;&gt;rx.observer</title>
<path fill="none" stroke="black" d="M1931.7,-216.433C1907.92,-191.422 1862.73,-143.891 1835.32,-115.062"/>
<polygon fill="black" stroke="black" points="1837.52,-112.297 1828.1,-107.462 1832.45,-117.121 1837.52,-112.297"/>
</g>
<!-- rx.algorithm.any&#45;&gt;rx.util -->
<g id="edge27" class="edge"><title>rx.algorithm.any&#45;&gt;rx.util</title>
<path fill="none" stroke="black" d="M1970.11,-216.833C1981.21,-207.486 1993.45,-194.677 1999.45,-180 2017.64,-135.472 2005.19,-78.3757 1994.97,-45.5164"/>
<polygon fill="black" stroke="black" points="1998.21,-44.1627 1991.78,-35.746 1991.56,-46.3386 1998.21,-44.1627"/>
</g>
<!-- rx.algorithm.buffer&#45;&gt;rx.disposable -->
<g id="edge28" class="edge"><title>rx.algorithm.buffer&#45;&gt;rx.disposable</title>
<path fill="none" stroke="black" d="M1240.88,-216.711C1279.52,-190.949 1354.74,-140.802 1397.58,-112.246"/>
<polygon fill="black" stroke="black" points="1399.57,-115.126 1405.95,-106.667 1395.68,-109.301 1399.57,-115.126"/>
</g>
<!-- rx.algorithm.buffer&#45;&gt;rx.observable -->
<g id="edge29" class="edge"><title>rx.algorithm.buffer&#45;&gt;rx.observable</title>
<path fill="none" stroke="black" d="M1274.18,-221.766C1284.27,-219.826 1294.66,-217.843 1304.45,-216 1383.54,-201.108 1474.91,-184.441 1533.39,-173.843"/>
<polygon fill="black" stroke="black" points="1534.34,-177.228 1543.56,-172.001 1533.09,-170.34 1534.34,-177.228"/>
</g>
<!-- rx.algorithm.buffer&#45;&gt;rx.observer -->
<g id="edge30" class="edge"><title>rx.algorithm.buffer&#45;&gt;rx.observer</title>
<path fill="none" stroke="black" d="M1259.01,-218.859C1289.41,-208.568 1331.17,-194.033 1367.45,-180 1405.71,-165.199 1412.94,-155.077 1452.45,-144 1555.21,-115.183 1679.12,-101.319 1751.52,-95.2215"/>
<polygon fill="black" stroke="black" points="1752.13,-98.6826 1761.81,-94.3774 1751.56,-91.706 1752.13,-98.6826"/>
</g>
<!-- rx.algorithm.debounce&#45;&gt;rx.disposable -->
<g id="edge31" class="edge"><title>rx.algorithm.debounce&#45;&gt;rx.disposable</title>
<path fill="none" stroke="black" d="M1288.58,-301.094C1161.09,-294.565 938.868,-279.376 914.446,-252 903.795,-240.06 906.641,-229.967 914.446,-216 944.23,-162.7 973.925,-164.478 1031.45,-144 1141.65,-104.764 1278.41,-94.1942 1359.54,-91.5674"/>
<polygon fill="black" stroke="black" points="1359.75,-95.063 1369.64,-91.2723 1359.54,-88.066 1359.75,-95.063"/>
</g>
<!-- rx.algorithm.debounce&#45;&gt;rx.observable -->
<g id="edge32" class="edge"><title>rx.algorithm.debounce&#45;&gt;rx.observable</title>
<path fill="none" stroke="black" d="M1407.46,-288.813C1424.71,-279 1446.46,-265.75 1464.45,-252 1482.93,-237.87 1483.83,-229.947 1502.45,-216 1518.87,-203.7 1538.38,-191.999 1555.11,-182.736"/>
<polygon fill="black" stroke="black" points="1556.98,-185.706 1564.09,-177.852 1553.63,-179.558 1556.98,-185.706"/>
</g>
<!-- rx.algorithm.debounce&#45;&gt;rx.observer -->
<g id="edge33" class="edge"><title>rx.algorithm.debounce&#45;&gt;rx.observer</title>
<path fill="none" stroke="black" d="M1469.46,-303.754C1719.27,-299.922 2393.72,-286.422 2426.45,-252 2437.47,-240.404 2436.56,-228.396 2426.45,-216 2401.2,-185.072 2113.57,-151.958 2074.45,-144 2002.46,-129.356 1919.32,-112.558 1866.35,-101.868"/>
<polygon fill="black" stroke="black" points="1866.99,-98.4266 1856.49,-99.8796 1865.6,-105.288 1866.99,-98.4266"/>
</g>
<!-- rx.algorithm.debounce&#45;&gt;rx.scheduler -->
<g id="edge34" class="edge"><title>rx.algorithm.debounce&#45;&gt;rx.scheduler</title>
<path fill="none" stroke="black" d="M1418.46,-289.811C1448.83,-278.563 1490.18,-263.245 1521.46,-251.662"/>
<polygon fill="black" stroke="black" points="1523.07,-254.797 1531.23,-248.042 1520.64,-248.233 1523.07,-254.797"/>
</g>
<!-- rx.algorithm.filter&#45;&gt;rx.disposable -->
<g id="edge35" class="edge"><title>rx.algorithm.filter&#45;&gt;rx.disposable</title>
<path fill="none" stroke="black" d="M192.293,-221.582C201.972,-219.622 211.999,-217.679 221.446,-216 436.001,-177.866 489.852,-167.982 706.446,-144 946.077,-117.467 1231.92,-100.966 1360.63,-94.3402"/>
<polygon fill="black" stroke="black" points="1360.93,-97.8295 1370.74,-93.8236 1360.57,-90.8387 1360.93,-97.8295"/>
</g>
<!-- rx.algorithm.filter&#45;&gt;rx.observable -->
<g id="edge36" class="edge"><title>rx.algorithm.filter&#45;&gt;rx.observable</title>
<path fill="none" stroke="black" d="M190.407,-221.064C200.635,-219.057 211.343,-217.229 221.446,-216 643.526,-164.665 752.583,-196.681 1177.45,-180 1299.65,-175.202 1442.03,-169.321 1524.54,-165.883"/>
<polygon fill="black" stroke="black" points="1524.7,-169.38 1534.55,-165.466 1524.41,-162.386 1524.7,-169.38"/>
</g>
<!-- rx.algorithm.filter&#45;&gt;rx.observer -->
<g id="edge37" class="edge"><title>rx.algorithm.filter&#45;&gt;rx.observer</title>
<path fill="none" stroke="black" d="M191.327,-221.216C201.285,-219.246 211.658,-217.393 221.446,-216 375.136,-194.12 1479.12,-114.746 1751.72,-95.3152"/>
<polygon fill="black" stroke="black" points="1752.09,-98.7976 1761.81,-94.5957 1751.59,-91.8153 1752.09,-98.7976"/>
</g>
<!-- rx.algorithm.filter&#45;&gt;rx.util -->
<g id="edge38" class="edge"><title>rx.algorithm.filter&#45;&gt;rx.util</title>
<path fill="none" stroke="black" d="M172.359,-217.79C247.168,-184.079 436.526,-103.57 604.446,-72 870.997,-21.8864 1743.81,-18.9507 1944.19,-18.9491"/>
<polygon fill="black" stroke="black" points="1944.29,-22.449 1954.29,-18.9515 1944.29,-15.449 1944.29,-22.449"/>
</g>
<!-- rx.algorithm.fold&#45;&gt;rx.disposable -->
<g id="edge39" class="edge"><title>rx.algorithm.fold&#45;&gt;rx.disposable</title>
<path fill="none" stroke="black" d="M1389.87,-215.871C1397.58,-191.564 1411.76,-146.819 1420.89,-118.013"/>
<polygon fill="black" stroke="black" points="1424.31,-118.779 1424,-108.189 1417.64,-116.665 1424.31,-118.779"/>
</g>
<!-- rx.algorithm.fold&#45;&gt;rx.observable -->
<g id="edge40" class="edge"><title>rx.algorithm.fold&#45;&gt;rx.observable</title>
<path fill="none" stroke="black" d="M1425.74,-219.17C1460.1,-207.662 1509.07,-191.261 1545.22,-179.151"/>
<polygon fill="black" stroke="black" points="1546.69,-182.352 1555.06,-175.857 1544.47,-175.714 1546.69,-182.352"/>
</g>
<!-- rx.algorithm.fold&#45;&gt;rx.observer -->
<g id="edge41" class="edge"><title>rx.algorithm.fold&#45;&gt;rx.observer</title>
<path fill="none" stroke="black" d="M1404.88,-216.389C1430.99,-196.057 1478.33,-162.104 1524.45,-144 1599.6,-114.493 1692.35,-101.199 1751.93,-95.3578"/>
<polygon fill="black" stroke="black" points="1752.3,-98.8385 1761.93,-94.4173 1751.65,-91.8693 1752.3,-98.8385"/>
</g>
<!-- rx.algorithm.groupby&#45;&gt;rx.disposable -->
<g id="edge42" class="edge"><title>rx.algorithm.groupby&#45;&gt;rx.disposable</title>
<path fill="none" stroke="black" d="M544.392,-221.339C619.001,-207.166 735.51,-184.567 744.446,-180 765.451,-169.264 761.847,-153.482 783.446,-144 885.14,-99.3601 1214.07,-92.0499 1359.35,-91.0425"/>
<polygon fill="black" stroke="black" points="1359.51,-94.5417 1369.49,-90.9805 1359.47,-87.5418 1359.51,-94.5417"/>
</g>
<!-- rx.algorithm.groupby&#45;&gt;rx.observable -->
<g id="edge43" class="edge"><title>rx.algorithm.groupby&#45;&gt;rx.observable</title>
<path fill="none" stroke="black" d="M543.223,-221.074C554.877,-219.118 567.011,-217.306 578.446,-216 601.985,-213.312 1300.76,-177.814 1524.94,-166.464"/>
<polygon fill="black" stroke="black" points="1525.13,-169.959 1534.94,-165.958 1524.77,-162.968 1525.13,-169.959"/>
</g>
<!-- rx.algorithm.groupby&#45;&gt;rx.observer -->
<g id="edge44" class="edge"><title>rx.algorithm.groupby&#45;&gt;rx.observer</title>
<path fill="none" stroke="black" d="M543.485,-221.071C555.06,-219.127 567.098,-217.321 578.446,-216 719.277,-199.61 1085.27,-236.179 1215.45,-180 1236.81,-170.782 1232.27,-153.623 1253.45,-144 1297.94,-123.785 1615.71,-102.72 1751.34,-94.5399"/>
<polygon fill="black" stroke="black" points="1751.79,-98.0194 1761.56,-93.927 1751.37,-91.0319 1751.79,-98.0194"/>
</g>
<!-- rx.algorithm.groupby&#45;&gt;rx.util -->
<g id="edge45" class="edge"><title>rx.algorithm.groupby&#45;&gt;rx.util</title>
<path fill="none" stroke="black" d="M510.5,-216.799C571.428,-182.574 721.414,-103.476 858.446,-72 1071.02,-23.1724 1766.62,-19.1887 1943.99,-18.9785"/>
<polygon fill="black" stroke="black" points="1944.21,-22.4784 1954.2,-18.97 1944.2,-15.4784 1944.21,-22.4784"/>
</g>
<!-- rx.algorithm.map&#45;&gt;rx.disposable -->
<g id="edge46" class="edge"><title>rx.algorithm.map&#45;&gt;rx.disposable</title>
<path fill="none" stroke="black" d="M1769.01,-216.24C1745.83,-196.079 1704.02,-162.625 1662.45,-144 1608.55,-119.852 1542.53,-106.171 1494.55,-98.7831"/>
<polygon fill="black" stroke="black" points="1495,-95.312 1484.6,-97.3007 1493.97,-102.236 1495,-95.312"/>
</g>
<!-- rx.algorithm.map&#45;&gt;rx.observable -->
<g id="edge47" class="edge"><title>rx.algorithm.map&#45;&gt;rx.observable</title>
<path fill="none" stroke="black" d="M1748.19,-218.834C1716.85,-207.526 1672.86,-191.656 1639.8,-179.725"/>
<polygon fill="black" stroke="black" points="1640.94,-176.416 1630.35,-176.314 1638.56,-183.001 1640.94,-176.416"/>
</g>
<!-- rx.algorithm.map&#45;&gt;rx.observer -->
<g id="edge48" class="edge"><title>rx.algorithm.map&#45;&gt;rx.observer</title>
<path fill="none" stroke="black" d="M1790.46,-215.871C1794.72,-191.67 1802.55,-147.211 1807.62,-118.393"/>
<polygon fill="black" stroke="black" points="1811.13,-118.645 1809.42,-108.189 1804.24,-117.431 1811.13,-118.645"/>
</g>
<!-- rx.algorithm.map&#45;&gt;rx.util -->
<g id="edge49" class="edge"><title>rx.algorithm.map&#45;&gt;rx.util</title>
<path fill="none" stroke="black" d="M1802.98,-216.208C1838.26,-178.084 1924.42,-84.9587 1964.41,-41.733"/>
<polygon fill="black" stroke="black" points="1967.1,-43.9841 1971.32,-34.267 1961.96,-39.2301 1967.1,-43.9841"/>
</g>
<!-- rx.algorithm.merge&#45;&gt;rx.disposable -->
<g id="edge50" class="edge"><title>rx.algorithm.merge&#45;&gt;rx.disposable</title>
<path fill="none" stroke="black" d="M1010.85,-216.023C1022.06,-195.312 1043.99,-160.969 1073.45,-144 1121.15,-116.52 1271.85,-101.76 1361.16,-95.2281"/>
<polygon fill="black" stroke="black" points="1361.47,-98.7144 1371.2,-94.5093 1360.97,-91.7322 1361.47,-98.7144"/>
</g>
<!-- rx.algorithm.merge&#45;&gt;rx.observable -->
<g id="edge51" class="edge"><title>rx.algorithm.merge&#45;&gt;rx.observable</title>
<path fill="none" stroke="black" d="M1067.81,-223.92C1087.31,-221.283 1108.73,-218.453 1128.45,-216 1270.72,-198.296 1437.78,-179.818 1527.86,-170.044"/>
<polygon fill="black" stroke="black" points="1528.36,-173.51 1537.93,-168.953 1527.61,-166.551 1528.36,-173.51"/>
</g>
<!-- rx.algorithm.merge&#45;&gt;rx.observer -->
<g id="edge52" class="edge"><title>rx.algorithm.merge&#45;&gt;rx.observer</title>
<path fill="none" stroke="black" d="M1066.82,-223.561C1158.71,-209.943 1317.77,-185.779 1329.45,-180 1350.3,-169.682 1346.38,-153.877 1367.45,-144 1434.09,-112.753 1645.29,-98.7436 1750.97,-93.5601"/>
<polygon fill="black" stroke="black" points="1751.35,-97.0461 1761.17,-93.0713 1751.01,-90.0542 1751.35,-97.0461"/>
</g>
<!-- rx.algorithm.merge&#45;&gt;rx.util -->
<g id="edge53" class="edge"><title>rx.algorithm.merge&#45;&gt;rx.util</title>
<path fill="none" stroke="black" d="M1003.13,-215.893C1004.9,-195.703 1010.96,-162.539 1031.45,-144 1168.08,-20.3306 1777.93,-16.9847 1943.73,-18.4181"/>
<polygon fill="black" stroke="black" points="1943.96,-21.9205 1953.99,-18.5183 1944.03,-14.9208 1943.96,-21.9205"/>
</g>
<!-- rx.algorithm.scan&#45;&gt;rx.disposable -->
<g id="edge54" class="edge"><title>rx.algorithm.scan&#45;&gt;rx.disposable</title>
<path fill="none" stroke="black" d="M356.45,-221.404C366.389,-219.44 376.712,-217.541 386.446,-216 527.805,-193.619 576.668,-240.338 706.446,-180 727.542,-170.192 723.183,-153.44 744.446,-144 853.082,-95.7731 1207.72,-90.5142 1359.5,-90.5506"/>
<polygon fill="black" stroke="black" points="1359.63,-94.0506 1369.64,-90.561 1359.64,-87.0506 1359.63,-94.0506"/>
</g>
<!-- rx.algorithm.scan&#45;&gt;rx.observable -->
<g id="edge55" class="edge"><title>rx.algorithm.scan&#45;&gt;rx.observable</title>
<path fill="none" stroke="black" d="M355.039,-221.114C365.391,-219.102 376.227,-217.26 386.446,-216 752.465,-170.858 847.014,-196.285 1215.45,-180 1323.41,-175.228 1448.72,-169.569 1524.49,-166.133"/>
<polygon fill="black" stroke="black" points="1525.01,-169.613 1534.84,-165.664 1524.7,-162.62 1525.01,-169.613"/>
</g>
<!-- rx.algorithm.scan&#45;&gt;rx.observer -->
<g id="edge56" class="edge"><title>rx.algorithm.scan&#45;&gt;rx.observer</title>
<path fill="none" stroke="black" d="M355.042,-221.131C365.393,-219.118 376.229,-217.271 386.446,-216 473.753,-205.14 1096.48,-214.417 1177.45,-180 1198.86,-170.899 1194.24,-153.56 1215.45,-144 1263.4,-122.387 1608.01,-101.853 1750.76,-94.1758"/>
<polygon fill="black" stroke="black" points="1751.29,-97.6525 1761.09,-93.6238 1750.92,-90.6625 1751.29,-97.6525"/>
</g>
<!-- rx.algorithm.scan&#45;&gt;rx.util -->
<g id="edge57" class="edge"><title>rx.algorithm.scan&#45;&gt;rx.util</title>
<path fill="none" stroke="black" d="M334.797,-217.566C405.243,-183.765 582.288,-103.693 740.446,-72 978.432,-24.3108 1755.7,-19.5034 1944.06,-19.0433"/>
<polygon fill="black" stroke="black" points="1944.11,-22.5433 1954.1,-19.0216 1944.09,-15.5433 1944.11,-22.5433"/>
</g>
<!-- rx.algorithm.tee&#45;&gt;rx.disposable -->
<g id="edge58" class="edge"><title>rx.algorithm.tee&#45;&gt;rx.disposable</title>
<path fill="none" stroke="black" d="M689.504,-218.535C749.932,-193.623 867.732,-145.16 872.446,-144 1043.83,-101.834 1252.53,-92.8242 1359.23,-91.1463"/>
<polygon fill="black" stroke="black" points="1359.6,-94.6416 1369.55,-91.0021 1359.5,-87.6423 1359.6,-94.6416"/>
</g>
<!-- rx.algorithm.tee&#45;&gt;rx.observable -->
<g id="edge59" class="edge"><title>rx.algorithm.tee&#45;&gt;rx.observable</title>
<path fill="none" stroke="black" d="M701.666,-221.22C711.147,-219.2 721.075,-217.327 730.446,-216 769.55,-210.461 1327.75,-178.202 1525.01,-166.905"/>
<polygon fill="black" stroke="black" points="1525.47,-170.385 1535.25,-166.319 1525.07,-163.397 1525.47,-170.385"/>
</g>
<!-- rx.algorithm.tee&#45;&gt;rx.observer -->
<g id="edge60" class="edge"><title>rx.algorithm.tee&#45;&gt;rx.observer</title>
<path fill="none" stroke="black" d="M702.081,-221.188C711.438,-219.196 721.214,-217.342 730.446,-216 845.731,-199.237 1146.77,-226.816 1253.45,-180 1274.75,-170.651 1270.3,-153.696 1291.45,-144 1332.48,-125.185 1623.47,-103.662 1751.84,-94.9585"/>
<polygon fill="black" stroke="black" points="1752.17,-98.4448 1761.91,-94.28 1751.69,-91.4607 1752.17,-98.4448"/>
</g>
<!-- rx.algorithm.tee&#45;&gt;rx.util -->
<g id="edge61" class="edge"><title>rx.algorithm.tee&#45;&gt;rx.util</title>
<path fill="none" stroke="black" d="M674.327,-216.608C698.752,-197.123 742.058,-164.652 783.446,-144 873.992,-98.8182 900.031,-90.8851 999.446,-72 1184.84,-36.7815 1780.63,-22.9395 1943.79,-19.7545"/>
<polygon fill="black" stroke="black" points="1943.98,-23.2517 1953.91,-19.56 1943.84,-16.253 1943.98,-23.2517"/>
</g>
<!-- rx.algorithm.uniq&#45;&gt;rx.disposable -->
<g id="edge62" class="edge"><title>rx.algorithm.uniq&#45;&gt;rx.disposable</title>
<path fill="none" stroke="black" d="M2054.78,-221.67C2045.36,-219.722 2035.62,-217.76 2026.45,-216 1934.74,-198.407 1907.19,-211.944 1819.45,-180 1789.5,-169.1 1787.45,-154.72 1757.45,-144 1671.16,-113.173 1565.67,-100.196 1498.03,-94.7866"/>
<polygon fill="black" stroke="black" points="1498.16,-91.2863 1487.92,-94.012 1497.62,-98.2658 1498.16,-91.2863"/>
</g>
<!-- rx.algorithm.uniq&#45;&gt;rx.observable -->
<g id="edge63" class="edge"><title>rx.algorithm.uniq&#45;&gt;rx.observable</title>
<path fill="none" stroke="black" d="M2055.28,-221.371C2045.72,-219.433 2035.8,-217.551 2026.45,-216 1897.21,-194.569 1744.94,-177.903 1659.76,-169.346"/>
<polygon fill="black" stroke="black" points="1660.01,-165.854 1649.72,-168.343 1659.32,-172.819 1660.01,-165.854"/>
</g>
<!-- rx.algorithm.uniq&#45;&gt;rx.observer -->
<g id="edge64" class="edge"><title>rx.algorithm.uniq&#45;&gt;rx.observer</title>
<path fill="none" stroke="black" d="M2075.88,-217.804C2021.39,-191.575 1909.88,-137.899 1850.93,-109.527"/>
<polygon fill="black" stroke="black" points="1852.13,-106.216 1841.6,-105.033 1849.09,-112.524 1852.13,-106.216"/>
</g>
<!-- rx.algorithm.uniq&#45;&gt;rx.util -->
<g id="edge65" class="edge"><title>rx.algorithm.uniq&#45;&gt;rx.util</title>
<path fill="none" stroke="black" d="M2098.58,-215.859C2083.13,-186.192 2049.99,-123.509 2019.45,-72 2013.84,-62.5502 2007.4,-52.3518 2001.64,-43.4488"/>
<polygon fill="black" stroke="black" points="2004.56,-41.5167 1996.16,-35.0535 1998.69,-45.3412 2004.56,-41.5167"/>
</g>
<!-- rx.disposable&#45;&gt;rx.util -->
<g id="edge66" class="edge"><title>rx.disposable&#45;&gt;rx.util</title>
<path fill="none" stroke="black" d="M1483.52,-82.1926C1594.76,-68.1872 1847.04,-36.4252 1945.26,-24.0598"/>
<polygon fill="black" stroke="black" points="1945.88,-27.5089 1955.37,-22.7871 1945.01,-20.5638 1945.88,-27.5089"/>
</g>
<!-- rx.observable&#45;&gt;rx.disposable -->
<g id="edge67" class="edge"><title>rx.observable&#45;&gt;rx.disposable</title>
<path fill="none" stroke="black" d="M1560.26,-146.834C1534.81,-135.971 1499.49,-120.896 1471.97,-109.149"/>
<polygon fill="black" stroke="black" points="1473.16,-105.851 1462.58,-105.144 1470.41,-112.289 1473.16,-105.851"/>
</g>
<!-- rx.observable&#45;&gt;rx.observer -->
<g id="edge68" class="edge"><title>rx.observable&#45;&gt;rx.observer</title>
<path fill="none" stroke="black" d="M1632.85,-148.405C1670.2,-136.466 1726.32,-118.528 1765.87,-105.888"/>
<polygon fill="black" stroke="black" points="1767.09,-109.173 1775.54,-102.795 1764.95,-102.506 1767.09,-109.173"/>
</g>
<!-- rx.observable&#45;&gt;rx.util -->
<g id="edge69" class="edge"><title>rx.observable&#45;&gt;rx.util</title>
<path fill="none" stroke="black" d="M1616.22,-145.348C1646.02,-125.541 1700.48,-91.6437 1751.45,-72 1816.99,-46.7401 1897.71,-31.7617 1945.18,-24.4798"/>
<polygon fill="black" stroke="black" points="1945.7,-27.9409 1955.08,-23.0002 1944.67,-21.0179 1945.7,-27.9409"/>
</g>
<!-- rx.range&#45;&gt;rx.disposable -->
<g id="edge73" class="edge"><title>rx.range&#45;&gt;rx.disposable</title>
<path fill="none" stroke="#cb2431" d="M2560.3,-304.316C2326.9,-300.249 1154.02,-278.514 1128.45,-252 1049.45,-170.105 1258.27,-120.488 1367.61,-100.8"/>
<polygon fill="#cb2431" stroke="#cb2431" points="1368.31,-104.23 1377.55,-99.0431 1367.09,-97.3372 1368.31,-104.23"/>
</g>
<!-- rx.range&#45;&gt;rx.observable -->
<g id="edge74" class="edge"><title>rx.range&#45;&gt;rx.observable</title>
<path fill="none" stroke="#cb2431" d="M2560.2,-304.097C2396.6,-300.226 1786.42,-283.767 1706.45,-252 1683.28,-242.799 1682.94,-231.527 1663.45,-216 1650.46,-205.661 1635.86,-194.53 1623.37,-185.151"/>
<polygon fill="#cb2431" stroke="#cb2431" points="1625.21,-182.154 1615.1,-178.968 1621.01,-187.76 1625.21,-182.154"/>
</g>
<!-- rx.range&#45;&gt;rx.observer -->
<g id="edge75" class="edge"><title>rx.range&#45;&gt;rx.observer</title>
<path fill="none" stroke="#cb2431" d="M2640.65,-303.98C2714.23,-301.174 2866.01,-290.718 2898.45,-252 2908.72,-239.736 2908.44,-228.494 2898.45,-216 2833.97,-135.4 2094.82,-101.518 1874.23,-93.158"/>
<polygon fill="#cb2431" stroke="#cb2431" points="1874.25,-89.6563 1864.12,-92.7791 1873.98,-96.6514 1874.25,-89.6563"/>
</g>
<!-- rx.range&#45;&gt;rx.util -->
<g id="edge76" class="edge"><title>rx.range&#45;&gt;rx.util</title>
<path fill="none" stroke="#cb2431" d="M2640.81,-304.407C2717.72,-302.331 2880.71,-293.072 2915.45,-252 2925.78,-239.784 2925.12,-228.744 2915.45,-216 2805.23,-70.8093 2192.76,-29.5037 2026.89,-20.9064"/>
<polygon fill="#cb2431" stroke="#cb2431" points="2026.78,-17.3966 2016.62,-20.3866 2026.43,-24.3877 2026.78,-17.3966"/>
</g>
<!-- rx.range.drop -->
<g id="node22" class="node"><title>rx.range.drop</title>
<ellipse fill="#e6ffed" stroke="#bef5cb" cx="2533.45" cy="-234" rx="59.5901" ry="18"/>
<text text-anchor="middle" x="2533.45" y="-230.3" font-family="Times New Roman,serif" font-size="14.00">rx.range.drop</text>
</g>
<!-- rx.range&#45;&gt;rx.range.drop -->
<g id="edge82" class="edge"><title>rx.range&#45;&gt;rx.range.drop</title>
<path fill="none" stroke="#2cbe4e" d="M2585.24,-289.116C2576.75,-280.244 2566,-269.009 2556.49,-259.077"/>
<polygon fill="#2cbe4e" stroke="#2cbe4e" points="2558.97,-256.601 2549.52,-251.797 2553.91,-261.442 2558.97,-256.601"/>
</g>
<!-- rx.range.take -->
<g id="node23" class="node"><title>rx.range.take</title>
<ellipse fill="#e6ffed" stroke="#bef5cb" cx="2668.45" cy="-234" rx="57.3905" ry="18"/>
<text text-anchor="middle" x="2668.45" y="-230.3" font-family="Times New Roman,serif" font-size="14.00">rx.range.take</text>
</g>
<!-- rx.range&#45;&gt;rx.range.take -->
<g id="edge83" class="edge"><title>rx.range&#45;&gt;rx.range.take</title>
<path fill="none" stroke="#2cbe4e" d="M2615.88,-289.116C2624.62,-280.116 2635.73,-268.682 2645.48,-258.646"/>
<polygon fill="#2cbe4e" stroke="#2cbe4e" points="2648.15,-260.919 2652.61,-251.307 2643.13,-256.041 2648.15,-260.919"/>
</g>
<!-- rx.range.takeLast -->
<g id="node24" class="node"><title>rx.range.takeLast</title>
<ellipse fill="#e6ffed" stroke="#bef5cb" cx="2816.45" cy="-234" rx="72.5877" ry="18"/>
<text text-anchor="middle" x="2816.45" y="-230.3" font-family="Times New Roman,serif" font-size="14.00">rx.range.takeLast</text>
</g>
<!-- rx.range&#45;&gt;rx.range.takeLast -->
<g id="edge84" class="edge"><title>rx.range&#45;&gt;rx.range.takeLast</title>
<path fill="none" stroke="#2cbe4e" d="M2632.32,-294.671C2667.08,-283.405 2723.26,-265.199 2764.43,-251.855"/>
<polygon fill="#2cbe4e" stroke="#2cbe4e" points="2765.6,-255.159 2774.03,-248.746 2763.44,-248.5 2765.6,-255.159"/>
</g>
<!-- rx.scheduler&#45;&gt;rx.disposable -->
<g id="edge70" class="edge"><title>rx.scheduler&#45;&gt;rx.disposable</title>
<path fill="none" stroke="black" d="M1550.73,-216.711C1526.6,-191.7 1480.3,-143.707 1452.41,-114.799"/>
<polygon fill="black" stroke="black" points="1454.86,-112.303 1445.4,-107.537 1449.82,-117.163 1454.86,-112.303"/>
</g>
<!-- rx.scheduler&#45;&gt;rx.observable -->
<g id="edge71" class="edge"><title>rx.scheduler&#45;&gt;rx.observable</title>
<path fill="none" stroke="black" d="M1572.98,-216.055C1576.02,-208.176 1579.71,-198.617 1583.11,-189.794"/>
<polygon fill="black" stroke="black" points="1586.45,-190.865 1586.78,-180.275 1579.92,-188.346 1586.45,-190.865"/>
</g>
<!-- rx.scheduler&#45;&gt;rx.observer -->
<g id="edge72" class="edge"><title>rx.scheduler&#45;&gt;rx.observer</title>
<path fill="none" stroke="black" d="M1593.88,-218.147C1613.15,-207.643 1639.48,-193.148 1662.45,-180 1702.81,-156.889 1748.74,-129.469 1779.03,-111.232"/>
<polygon fill="black" stroke="black" points="1781.14,-114.043 1787.9,-105.882 1777.53,-108.049 1781.14,-114.043"/>
</g>
<!-- rx.algorithm.combineLatest&#45;&gt;rx.disposable -->
<g id="edge78" class="edge"><title>rx.algorithm.combineLatest&#45;&gt;rx.disposable</title>
<path fill="none" stroke="#2cbe4e" d="M2228.76,-221.38C2215.32,-219.503 2201.49,-217.641 2188.45,-216 2041.62,-197.534 1996.76,-229.9 1857.45,-180 1829.94,-170.148 1829.78,-154.301 1802.45,-144 1701.55,-105.981 1575.93,-94.9489 1499.26,-91.9128"/>
<polygon fill="#2cbe4e" stroke="#2cbe4e" points="1499.36,-88.4141 1489.24,-91.5505 1499.1,-95.4095 1499.36,-88.4141"/>
</g>
<!-- rx.algorithm.combineLatest&#45;&gt;rx.observable -->
<g id="edge79" class="edge"><title>rx.algorithm.combineLatest&#45;&gt;rx.observable</title>
<path fill="none" stroke="#2cbe4e" d="M2229.43,-221.251C2215.79,-219.369 2201.71,-217.538 2188.45,-216 1997.64,-193.888 1771.47,-176.029 1660.99,-167.844"/>
<polygon fill="#2cbe4e" stroke="#2cbe4e" points="1661.22,-164.351 1650.99,-167.105 1660.7,-171.332 1661.22,-164.351"/>
</g>
<!-- rx.algorithm.combineLatest&#45;&gt;rx.observer -->
<g id="edge80" class="edge"><title>rx.algorithm.combineLatest&#45;&gt;rx.observer</title>
<path fill="none" stroke="#2cbe4e" d="M2255.41,-218.072C2159.13,-190.453 1954.51,-131.755 1860.96,-104.916"/>
<polygon fill="#2cbe4e" stroke="#2cbe4e" points="1861.76,-101.505 1851.18,-102.112 1859.83,-108.234 1861.76,-101.505"/>
</g>
<!-- rx.algorithm.combineLatest&#45;&gt;rx.util -->
<g id="edge81" class="edge"><title>rx.algorithm.combineLatest&#45;&gt;rx.util</title>
<path fill="none" stroke="#2cbe4e" d="M2282.45,-216.386C2223.44,-177.167 2075.79,-79.0404 2013.68,-37.7626"/>
<polygon fill="#2cbe4e" stroke="#2cbe4e" points="2015.42,-34.7188 2005.16,-32.0986 2011.55,-40.5487 2015.42,-34.7188"/>
</g>
<!-- rx.range.drop&#45;&gt;rx.disposable -->
<g id="edge85" class="edge"><title>rx.range.drop&#45;&gt;rx.disposable</title>
<path fill="none" stroke="#2cbe4e" d="M2482.34,-224.53C2464.65,-221.692 2444.7,-218.593 2426.45,-216 2075.56,-166.143 1653.68,-116.693 1494.48,-98.4047"/>
<polygon fill="#2cbe4e" stroke="#2cbe4e" points="1494.71,-94.9083 1484.38,-97.2454 1493.92,-101.863 1494.71,-94.9083"/>
</g>
<!-- rx.range.drop&#45;&gt;rx.observable -->
<g id="edge86" class="edge"><title>rx.range.drop&#45;&gt;rx.observable</title>
<path fill="none" stroke="#2cbe4e" d="M2483.5,-224.063C2465.56,-221.119 2445.14,-218.072 2426.45,-216 2174.59,-188.089 2110.33,-196.142 1857.45,-180 1790.81,-175.747 1714.72,-170.842 1661.4,-167.397"/>
<polygon fill="#2cbe4e" stroke="#2cbe4e" points="1661.59,-163.902 1651.38,-166.75 1661.14,-170.887 1661.59,-163.902"/>
</g>
<!-- rx.range.drop&#45;&gt;rx.observer -->
<g id="edge87" class="edge"><title>rx.range.drop&#45;&gt;rx.observer</title>
<path fill="none" stroke="#2cbe4e" d="M2509.86,-217.457C2477.15,-196.771 2415.48,-160.85 2357.45,-144 2268.07,-118.052 1996.61,-100.793 1873.87,-94.1099"/>
<polygon fill="#2cbe4e" stroke="#2cbe4e" points="1873.7,-90.5957 1863.53,-93.5526 1873.32,-97.5856 1873.7,-90.5957"/>
</g>
<!-- rx.range.drop&#45;&gt;rx.util -->
<g id="edge88" class="edge"><title>rx.range.drop&#45;&gt;rx.util</title>
<path fill="none" stroke="#2cbe4e" d="M2498.33,-219.288C2399.33,-180.625 2118.75,-71.0552 2020.19,-32.5687"/>
<polygon fill="#2cbe4e" stroke="#2cbe4e" points="2021.28,-29.2381 2010.7,-28.8607 2018.74,-35.7585 2021.28,-29.2381"/>
</g>
<!-- rx.range.take&#45;&gt;rx.disposable -->
<g id="edge89" class="edge"><title>rx.range.take&#45;&gt;rx.disposable</title>
<path fill="none" stroke="#2cbe4e" d="M2627.08,-221.494C2618.96,-219.476 2610.47,-217.534 2602.45,-216 2187.58,-136.65 1679.83,-104.023 1498.13,-94.3376"/>
<polygon fill="#2cbe4e" stroke="#2cbe4e" points="1498.09,-90.8308 1487.92,-93.7994 1497.72,-97.8211 1498.09,-90.8308"/>
</g>
<!-- rx.range.take&#45;&gt;rx.observable -->
<g id="edge90" class="edge"><title>rx.range.take&#45;&gt;rx.observable</title>
<path fill="none" stroke="#2cbe4e" d="M2627.87,-221.194C2619.52,-219.15 2610.75,-217.274 2602.45,-216 2420.72,-188.109 1860.06,-170.358 1662.9,-164.842"/>
<polygon fill="#2cbe4e" stroke="#2cbe4e" points="1662.76,-161.337 1652.67,-164.558 1662.56,-168.334 1662.76,-161.337"/>
</g>
<!-- rx.range.take&#45;&gt;rx.observer -->
<g id="edge91" class="edge"><title>rx.range.take&#45;&gt;rx.observer</title>
<path fill="none" stroke="#2cbe4e" d="M2636.58,-218.987C2589.02,-198.744 2496.19,-161.799 2413.45,-144 2220,-102.388 1984.79,-93.3289 1874.79,-91.4385"/>
<polygon fill="#2cbe4e" stroke="#2cbe4e" points="1874.6,-87.9351 1864.54,-91.2771 1874.49,-94.9342 1874.6,-87.9351"/>
</g>
<!-- rx.range.take&#45;&gt;rx.util -->
<g id="edge92" class="edge"><title>rx.range.take&#45;&gt;rx.util</title>
<path fill="none" stroke="#2cbe4e" d="M2642.24,-217.895C2607.72,-198.519 2544.67,-164.922 2487.45,-144 2320.23,-82.8638 2110.98,-41.4574 2025.05,-25.8833"/>
<polygon fill="#2cbe4e" stroke="#2cbe4e" points="2025.42,-22.393 2014.96,-24.0699 2024.18,-29.2828 2025.42,-22.393"/>
</g>
<!-- rx.range.takeLast&#45;&gt;rx.disposable -->
<g id="edge93" class="edge"><title>rx.range.takeLast&#45;&gt;rx.disposable</title>
<path fill="none" stroke="#2cbe4e" d="M2763.61,-221.544C2753.93,-219.588 2743.9,-217.656 2734.45,-216 2623.44,-196.552 2594.83,-197.182 2483.45,-180 2386.39,-165.028 2363.02,-155.121 2265.45,-144 2117.38,-127.124 1670.62,-103.302 1498.29,-94.4704"/>
<polygon fill="#2cbe4e" stroke="#2cbe4e" points="1498.24,-90.9635 1488.07,-93.9481 1497.88,-97.9543 1498.24,-90.9635"/>
</g>
<!-- rx.range.takeLast&#45;&gt;rx.observable -->
<g id="edge94" class="edge"><title>rx.range.takeLast&#45;&gt;rx.observable</title>
<path fill="none" stroke="#2cbe4e" d="M2765.48,-221.134C2755.25,-219.121 2744.54,-217.273 2734.45,-216 2331.32,-165.173 1842.57,-161.756 1663.5,-162.417"/>
<polygon fill="#2cbe4e" stroke="#2cbe4e" points="1663.41,-158.917 1653.43,-162.459 1663.44,-165.917 1663.41,-158.917"/>
</g>
<!-- rx.range.takeLast&#45;&gt;rx.observer -->
<g id="edge95" class="edge"><title>rx.range.takeLast&#45;&gt;rx.observer</title>
<path fill="none" stroke="#2cbe4e" d="M2774.94,-219.093C2713.08,-198.982 2592.69,-162.204 2487.45,-144 2264.04,-105.357 1994.11,-94.8578 1874.57,-92.0296"/>
<polygon fill="#2cbe4e" stroke="#2cbe4e" points="1874.59,-88.5291 1864.51,-91.8013 1874.43,-95.5273 1874.59,-88.5291"/>
</g>
<!-- rx.range.takeLast&#45;&gt;rx.util -->
<g id="edge96" class="edge"><title>rx.range.takeLast&#45;&gt;rx.util</title>
<path fill="none" stroke="#2cbe4e" d="M2778.92,-218.488C2697.16,-187.382 2496.34,-113.73 2322.45,-72 2216.88,-46.6675 2089.72,-30.4404 2026.01,-23.2666"/>
<polygon fill="#2cbe4e" stroke="#2cbe4e" points="2026.3,-19.7772 2015.97,-22.1527 2025.52,-26.7345 2026.3,-19.7772"/>
</g>
</g>
</svg>
